P1
# CREATOR: GIMP PNM Filter Version 1.1
1536 26
0000000000000000000000000000000000000000000000000000000000000000000000
0000000000000000000000000000000000000000000000000000000000000000000000
0000000000000000000000000000000000000000000000000000000000000000000000
0000000000000000000000000000000000000000000000000000000000000000000000
0000000000000000000000000000000000000000000000000000000000000000000000
0000000000000000000000000000000000000000000000000000000000000000000000
0000000000000000000000000000000000000000000000000000000000000000000000
0000000000000000000000000000000000000000000000000000000000000000000000
0000000000000000000000000000000000000000000000000000000000000000000000
0000000000000000000000000000000000000000000000000000000000000000000000
0000000000000000000000000000000000000000000000000000000000000000000000
0000000000000000000000000000000000000000000000000000000000000000000000
0000000000000000000000000000000000000000000000000000000000000000000000
0000000000000000000000000000000000000000000000000000000000000000000000
0000000000000000000000000000000000000000000000000000000000000000000000
0000000000000000000000000000000000000000000000000000000000000000000000
0000000000000000000000000000000000000000000000000000000000000000000000
0000000000000000000000000000000000000000000000000000000000000000000000
0000000000000000000000000000000000000000000000000000000000000000000000
0000000000000000000000000000000000000000000000000000000000000000000000
0000000000000000000000000000000000000000000000000000000000000000000000
0000000000000000000000000000000000000000000000000000000000000000000000
0000000000000000000000000000000000000000000000000000000000000000000000
0000000000000000000000000000000000000000000000000000000000000000000000
0000000000000000000000000000000000000000000000000000000000000000000000
0000000000000000000000000000000000000000000000000000000000000000000000
0000000000000000000000000000000000000000000000000000000000000000000000
0000000000000000000000000000000000000000000000000000000000000000000000
0000000000000000000000000000000000000000000000000000000000000000000000
0000000000000000000000000000000000000000000000000000000000000000000000
0000000000000000000000000000000000000000000000000000000000000000000000
0000000000000000000000000000000000000000000000000000000000000000000000
0000000000000000000000000000000000000000000000000000000000000000000000
0000000000000000000000000000000000000000000000000000000000000000000000
0000000000000000000000000000000000000000000000000000000000000000000000
0000000000000000000000000000000000000000000000000000000000000000000000
0000000000000000000000000000000000000000000000000000000000000000000000
0000000000000000000000000000000000000000000000000000000000000000000000
0000000000000000000000000000000000000000000000000000000000000000000000
0000000000000000000000000000000000000000000000000000000000000000000000
0000000000000000000000000000000000000000000000000000000000000000000000
0000000000000000000000000000000000000000000000000000000000000000000000
0000000000000000000000000000000000000000000000000000000000000000000000
0000000000000000000000000000000000000000000000000000000000000000000000
0000000000000000000000000000000000000000000000000000000000000000000000
0000000000000000000000000000000000000000000000000000000000000000000000
0000000000000000000000000000000000000000000000000000000000000000000000
0000000000000000000000000000000000000000000000000000000000000000000000
0000000000000000000000000000000000000000000000000000000000000000000000
0000000000000000000000000000000000000000000000000000000000000000000000
0000000000000000000000000000000000000000000000000000000000000000000000
0000000000000000000000000000000000000000000000000000000000000000000000
0000000000000000000000000000000000000000000000000000000000000000000000
0000000000000000000000000000000000000000000000000000000000000000000000
0000000000000000000000000000000000000000000000000000000000000000000000
0000000000000000000000000000000000000000000000000000000000000000000000
0000000000000000000000000000000000000000000000000000000000000000000000
0000000000000000000000000000000000000000000000000000000000000000000000
0000000000000000000000000000000000000000000000000000000000000000000000
0000000000000000000000000000000000000000000000000000000000000000000000
0000000000000000000000000000000000000000000000000000000000000000000000
0000000000000000000000000000000000000000000000000000000000000000000000
0000000000000000000000000000000000000000000000000000000000000000000000
0000000000000000000000000000000000000000000000000000000000000000000000
0000000000000000000000000000000000000000000000000000000000000000000000
0000000000000000000000000000000000000000000000000000000000000000000000
0000000000000000000000000000000000000000000000000000000000000000000000
0000000000000000000000000000000000000000000000000000000000000000000000
0000000000000000000000000000000000000000000000000000000000000000000000
0000000000000000000000000000000000000000000000000000000000000000000000
0000000000000000000000000000000000000000000000000000000000000000000000
0000000000000000000000000000000000000000000000000000000000000000000000
0000000000000000000000000000000000000000000000000000000000000000000000
0000000000000000000000000000000000000000000000000000000000000000000000
0000000000000000000000000000000000000000000000000000000000000000000000
0000000000000000000000000000000000000000000000000000000000000000000000
0000000000000000000000000000000000000000000000000000000000000000000000
0000000000000000000000000000000000000000000000000000000000000000000000
0000000000000000000000000000000000000000000000000000000000000000000000
0000000000000000000000000000000000000000000000000000000000000000000000
0000000000000000000000000000000000000000000000000000000000000000000000
0000000000000000000000000000000000000000000000000000000000000000000000
0000000000000000000000000000000000000000000000000000000000000000000000
0000000000000000000000000000000000000000000000000000000000000000000000
0000000000000000000000000000000000000000000000000000000000000000000000
0000000000000000000000000000000000000000000000000000000000000000000000
0000000000000000000000000000000000000000000000000000000000000000000000
0000000000000000000000000000000000000000000000000000000000000000000000
0000001100000000000011000011000000000000000000000000000000000000000011
0000001100000000000000000000001111110000000000000000110000000011000000
0000000000000000000000000000000000000000000000000000000000000000000000
0000000000000000000000000011000000001111000000000000110000000000001111
1111000000111111111111000000000000110000001111111111110000000011111100
0000111111111111000000111111110000000011111111000000000000000000000000
0000000000000000000000001100000000000000000000110000000000000000111111
1100000000111111110000000000111100000011111111111100000000111111110000
1111111111110000001111111111110000111111111111000000111111110000001100
0000001100001111111111000000000011111111000011000000001100001100000000
0000110000000000110000110000000011000000111111110000001111111111000000
0011111111000000111111111100000000111111110000111111111111110000110000
0000110011000000000011001100000000001100110000000000110011000000000011
0000111111111111000000111111110000110000000000000000111111110000000000
0011000000000000000000000000000011111100000000000000000000000011000000
0000000000000000000000000000000000110000000000000000000000001111110000
0000000000000000001100000000000000000000000000000000000000000000001100
0000000000000011110000000000000000000000000000000000000000000000000000
0000000000000000000000000000000000000000000000000000000000000000000000
0000000000000000000000000000000000000000000000000000000000000000000000
0000000000000000000000000000000000000000000000001111110000000011000000
0000111111000000000000110000110000000000000000000000000000000000000000
0011000000000000110000110000000000000000000000000000000000000001111000
0011000000000000000000000011111100000000000000011100000000111000000000
0000000000000000000000000000000000000000000000000000000000000000000000
0000000000000000000000110000000111111000000000011100000000000111111111
1000001111111111110000000000011100000011111111111100000001111111000000
1111111111110000011111111110000001111111111000000000000000000000000000
0000000000000000000111000000000000000000001110000000000000011111111110
0000011111111110000000011111100000111111111111100000011111111110001111
1111111110000011111111111100001111111111110000011111111110000011000000
0011000011111111110000000000111111110000110000000111000011000000000000
1100000000001100001100000000110000011111111110000011111111111000000111
1111111000001111111111100000011111111110001111111111111100001100000000
1100110000000000110011000000000011001100000000001100110000000000110000
1111111111110000001111111100001100000000000000001111111100000000000111
1000000000000000000000000000111111000000000000000000000000110000000000
0000000000000000000000000000001100000000000000000000000111111110000000
0000000000000011000000000000000000000000000000000000000000000011000000
0000000000111100000000000000000000000000000000000000000000000000000000
0000000000000000000000000000000000000000000000000000000000000000000000
0000000000000000000000000000000000000000000000000000000000000000000000
0000000000000000000000000000000000000000000111111100000000110000000000
1111111000000000011110001100000000000000000000000000000000000000000011
0000000000001100001100000000110000110000000000110000000000111111000111
0000000000000000000001111110000000000000001110000000000111000000000000
0000000000000000000000000000000000000000000000000000000000000000000000
0000000000000000011100000011111111000000001111000000000011100000011100
0000000000011100000000001111000000110000000000000000111100000000000000
0000011100001110000001110000111000000111000000000000000000000000000000
0000000000000011100000000000000000000001110000000000001110000001110000
1110000001110000001111111100000111000000011100001110000011110001110000
0001110000110000000000000011000000000000001110000011110000110000000011
0000000011000000000000000000111000001100000011100000110000000000001110
0000000111000011100000001100001110000001110000110000000111000011100000
0111000011000000011100001110000011110000000011000000000011000000001100
1110000000011100110000000000110011100000000111001110000000011100000000
0000011100000011000000000011100000000000000000000011000000000011111100
0000000000000000000000000111111000000000000000000000001100000000000000
0000000000000000000000000011000000000000000000000011100011110000000000
0000000000110000000000000000001100000000000000000011000000110000000000
0000000111000000000000000000000000000000000000000000000000000000000000
0000000000000000000000000000000000000000000000000000000000000000110000
0000000000000000000000000000000000000000000000000000000000000000000000
0000000000000000000000000000000000000011100000000000001100000000000000
0111000000001111110011000000000000000000000000000000000000000000110000
0000000011000011000000001100001100000000011111000000001111110001110000
0000000000000000011111000000000000000011100000000001110000000000000000
0000000000000000000000000000000000000000000000000000000000000000000000
0000000000000111000001110000111000000111110000000000110000000011000000
0000000111000000000111110000001100000000000000011100000000000000000000
0111000011000000001100001100000000110000000000000000000000000000000000
0000000001110000000000000000000000001110000000000011000000001100001100
0000001100000111000011100001110000000011000011000000001100011100000000
1100001100000000000000110000000000000011000000001100001100000000110000
0000110000000000000000001110000011000001110000001100000000000011100000
0001110000111000000011000011000000001100001100000000110000110000000011
0000110000000011000011000000001100000000110000000000110000000011001110
0000000111001100000000001100111000000001110011100000000111000000000000
0111000000110000000000111000000000000000000000110000000001110011100000
0000000000000000000000111110000000000000000000000011000000000000000000
0000000000000000000000110000000000000000000000110000001100000000000000
0000001100000000000000000011000000000000000000110000001100000000000000
0001110000000000000000000000000000000000000000000000000000000000000000
0000000000000000000000000000000000000000000000000000000000001100000000
0000000000000000000000000000000000000000000000000000000000000000000000
0000000000000000000000000000000000110000000000000011000000000000000011
0000000011001111110000000000000000000000000000000000000000001100000000
0000110000110000000111000011100000001111111100000001111000111000000011
1100000000001111000000000000000001110000000000001110000000000011000011
0000000000110000000000000000000000000000000000000000000000000000000000
0000000011100000111000000111000011111100000000001100000000110000000000
0011100000000011111100000011000000000000001110000000000000000000001110
0000110000000011000011000000011100000000110000000000000011000000000000
0000111000000000000000000000000001110000000000110000000011000011000000
0011000011100000011100001100000000110000110000000000000011000000001100
0011000000000000001100000000000000110000000000000011000000001100000000
1100000000000000000011000000110000111000000011000000000000111100000011
1100001111000000110000110000000011000011000000001100001100000000110000
1100000000110000110000000000000000001100000000001100000000110001110000
0011100011000000000011000111000000111000011100000011100000000000001110
0000001100000000000111000000000000000000001100000000111000011100000000
0000000000000000000011110000000000000000000000110000000000000000000000
0000000000000000001100000000000000000000001100000000000000000000000000
0011000000000000000000000000000000000000000000000011000000000000000000
1100000000000000000000000000000000000000000000000000000000000000000000
0000000000000000000000000000000000000000000000000000000111000000000000
0000000000000000000000000000000000000000000000000000000000000000000000
0000000000000000000000000000001110000000000000110000000000000001110000
0000110001111000000000000000000000000000000000000000000011000000000000
1100001100000001110000111000000111111111000000001100011100000001111110
0000000011000000000000000000011100000000000011100000000000111111110000
0000001100000000000000000000000000000000000000000000000000000000000000
0001110000001110000001110000110011000000000011000000001100000000000111
0000000001110011000000110000000000000011100000000000000000000111000000
1100000000110000110000000111000000011110000000000001111000000000000001
1100000000000000000000000000001110000000001100000000110000110000000011
0000111000000111000011000000001100001100000000000000110000000011000011
0000000000000011000000000000001100000000000000110000000011000000001100
0000000000000000110000001100011100000000110000000000001111100001111100
0011111000001100001100000000110000110000000011000011000000001100001100
0000001100001100000000000000000011000000000011000000001100011100000011
1000110000000000110000111000011100000011100001110000000000000111000000
0011000000000000111000000000000000000011000000001100000011000000000000
0000000000000000001100000000000000000000001100000000000000000000000000
0000000000000011000000000000000000000011000000000000000000000000000011
0000000000000000000000000000000000000000000000110000000000000000001100
0000000000000000000000000000000000000000000000000000000000000000000000
0000000000000000000000000000000000000000000000000001110000000000000000
0000000000000000000000000000000000000000000000000000000000000000000000
0000000000000000000000000011100000000000001100000000000000011100000000
1100001100000000000000000000000000000000000000000000110000000000000000
0000000000111111111111000011011100000000000000001110000000111001110000
0000000000000000000000001110000000000000011100000000000111111000000000
0011000000000000000000000000000000000000000000000000000000000000000011
1000000011000000001100000000110000000000000000000111000000000011000000
0000111000110000001100111111000000110000000000000000000011100000001100
0000001100001100000011110000001111110000000000111111000000000000111000
0000001111111111110000000001110000000000000000011100001100001111110000
1100000000110000110000000011000011000000000000001100000000110000110000
0000000000110000000000000011000000000000001100000000110000000011000000
0000000000001100000011001110000000001100000000000011111100111111000011
1111000011000011000000001100001100000000110000110000000011000011000000
0011000011000000000000000000110000000000110000000011000011000000110000
1100000000001100000111001110000000011100111000000000000011100000000011
0000000000000111000000000000000000110000000000000000000000000000000000
0000000000000000000000001111111100000011001111110000000011111111000000
0011111100110000001111111100000001110000000000000011111100110000110011
1111000000001111000000000000000011110000001100000011000000000011000000
0011111100111100000011001111110000000011111111000000110011111100000000
1111110011000011001111110000000011111111000000111111111100000011000000
1100000011000000110000110000000000110000110000000011000011000000001100
0011111111111100000000011100000000000011000000000000001110000000000000
0000000000000000000000000000000000000000000000001100000000000000000000
0000001111111111110000110111100000000000000011100000001100001100000000
0000000000000000000011100000000000000111000000000001111110000000000011
0000000000000000000000000000000000000000000000000000000000000001110000
0000110000000011000000001100000000000000000001110000000001111000000001
1100001100000011111111111000001100000000000000000000111000000011100000
0111000011100011111100000011111100000000001111110000000000011100000000
0011111111111100000000001110000000000000000111000011000111111100001100
0000001100001100000001110000110000000000000011000000001100001100000000
0000001100000000000000110000000000000011000000001100000000110000000000
0000000011000000111111000000000011000000000000110011111100110000110011
1000110000110000000011000011000000011100001100000000110000110000000111
0000111000000000000000001100000000001100000000110000110000001100001100
0000000011000000111111000000000011111100000000000001110000000000110000
0000000000111000000000000000001100000000000000000000000000000000000000
0000000000000000000011111111100000111111111110000001111111111000000111
1111111100000111111111100000011100000000000001111111111100001111111111
1000000011110000000000000000111100000011000001110000000000110000000011
1111111111100000111011111110000001111111111000001110111111100000011111
1101110000111111111110000001111111111000001111111111000000110000001100
0000110000001100001100000000001100001110000001110000110000000011000011
1111111111000000000111000000000000110000000000000011100000000000000000
0000000000000000000000000000000000000000000011000000000000000000000000
0001110000111000000111111100000000000001110000000011000011000000000000
0000000000000000110000000000000000110000000011111111111100001111111111
0000000000000000000000111111111111000000000000000000000000111000000000
1100000000110000000011000000000000000000111000000000111111000000111000
0011000000111111000111000011001111110000000000011100000000011111111110
0000011111111111000000011110000000000001111000000000001110000000000000
0000000000000000000001110000000000000011100000110011100011000011000000
0011000011111111111000001100000000000000110000000011000011111111000000
0011111111000000001100000000000000111111111111000000001100000000000000
0000110000001111100000000000110000000000001100011110001100001100011100
1100001100000000110000111111111110000011000000001100001111111111100000
0111111111000000000011000000000011000000001100001110000111000011000011
0000110000000111100000000000011110000000000000111000000000001100000000
0000000111000000000000000011000000000000000000000000000000000000000000
0000000000000000000000001100001111110001110000111000001111000011100011
1111000011000000001100001111111111000000111000011110000011111100011100
0000011100000000000000000111000000110000111000000000001100000000110001
1110011100001111110001110000111000000111000011111100011100001110001111
1100000111100011110000111000001111000001110000000000001100000011000000
1100000011000011000000000011000001110000111000001100000000110000000000
0111100000001111100000000000001100000000000000011111000000000000000000
0000000000000000000000000000000000000000110000000000000000000000000001
1100001110000000111111100000000000011100000000111001110000000000000000
0000000000001100000000000000001100000000111111111111000011111111110000
0000000000000000001111111111110000000000000000000000011100000000001100
0000001100000000110000000000000000111100000000001111111000001110000011
0000001111000000110000111111111110000000000111000000000111111111100000
0011111100110000000011000000000000001100000000000011100000000000000000
0000000000000000011100000000000001110000001100110001110000110000000011
0000111111111110000011000000000000001100000000110000111111110000000011
1111110000000011000000000000001111111111110000000011000000000000000000
1100000011111000000000001100000000000011000111100011000011000011111100
0011000000001100001111111111000000110000000011000011111111110000000011
1111111000000000110000000000110000000011000011100001110000110000110000
1100000001111000000000000111100000000000011100000000000011000000000000
0000111000000000000000110000000000000000000000000000000000000000000000
0000000000000000001111000011110000001100001100000000110000110000001111
0000111100001111000011111111110000001100000011100000111100000011000000
0111000000000000000001110000001100111100000000000011000000001100001100
0011000011110000001100001100000000110000111100000011000011000000111100
0001110000001100001110000000110000011100000000000011000000110000001100
0000110000110000000000110000001111111100000011000000001100000000000111
0000000011111000000000000011000000000000000111110000000000000000000000
0000000000000000000000000000000000001100000000000000000000000000111111
1111110000000111101100000000001110000000000111111000000000000000000000
0000000011100000000000000111000000000001111110000000000011000000000000
0000000000000000000000000000000000000000000000001110000000000011000000
0011000000001100000000000000111110000000000000000111000011000000111000
0000000000001100001111110001110000000011100000000011100000011100000000
0000001100000000000000000000000000000000000000011100000000000000000000
0000000000001110000000000000111000000011001100111100001111111111110000
1100000001110000110000000000000011000000001100001100000000000000110000
0000000000110000111111000011000000001100000000110000000000000000001100
0000111111000000000011000000000000110000110000110000110000011111000011
0000000011000011000000000000001100000000110000110111100000000000000000
0111000000001100000000001100000000110000011100111000001100001100001100
0000111111000000000000110000000000001110000000000000110000000000000000
0111000000000000001100000000000000000000000000000000000000000000000000
0000000011111111110000111000000011000011000000000000001100000001110000
1111111111110000011100000000000011000000110000001110000000110000000011
0000000000000000001100000011111110000000000000110000000011000011000011
0000111000000011000011000000001100001110000000110000110000000111000000
1100000000000001111100000000000011000000000000110000001100000011100001
1100001100001100001100000001111110000000110000000111000000000011100000
0000000111000000000000110000000000000011100000000000000000000000000000
0000000000000000000000000000000011000000000000000000000000001111111111
1100000000111011000000000111000000000001111110000000000000000000000000
0000111000000000000001110000000000011111100000000000110000000000000000
0000000000000000000000000000000000000000000111000000000000110000000011
0000000011000000000000011111000000000000000000110000110000001110000000
0000000011000011110000001100000000111000000000110000000011000000000000
0011000000000000000000000000000000000000000011100000000000000000000000
0000000111000000000000001110000000110011111111000011111111111100001100
0000001100001100000000000000110000000011000011000000000000001100000000
0000001100001111110000110000000011000000001100000000000000000011000000
1100111000000000110000000000001100001100001100001100000011110000110000
0000110000110000000000000011000000001100001100111000000000000000000011
0000000011000000000011000000001100000111001110000011000011000011000001
1100111000000000001100000000000111000000000000001100000000000000000011
1000000000000011000000000000000000000000000000000000000000000000000000
0001111111111100001110000000110000110000000000000011000000011100001111
1111111100000111000000000000111000011100000011100000001100000000110000
0000000000000011000000111111100000000000001100000000110000110000110000
1110000000110000110000000011000011100000001100001100000001110000001100
0000000000001111110000000000110000000000001100000011000000111000011100
0011000011000011000000011111100000001100000001110000000001110000000000
0001110000000000001100000000000000111000000000000000000000000000000000
0000000000000000000000000000110000000000000000000000000001110000111000
0011111111100000000011100011000000111011110011000000000000000000000000
0111000000000000111000000000001111111100000000001100000000000000000000
0000000000000000000000000000000000000011100000000000001110000001110000
0000110000000000001111000000000000000000001100001111111111110000000000
0000110000111000000011000000011100000000001100000000110000000000000111
0000000000000000000000000000000000000000011100000000111111111111000000
0011100000000000000011000000001100011101110000110000000011000011000000
0011000011000000000000001100000000110000110000000000000011000000000000
0011000000001100001100000000110000000011000000000000000000110000001100
0111000000001100000000000011000000000011000011000000011100001100000000
1100001100000000000000110011000011000011000111000000000000000000110000
0000110000000000110000000011000000110011000000110001111000110000111000
0111000000000011000000000011100000000000000011000000000000000000011100
0000000000110000000000000000000000000000000000000000000000000000000011
1000000011000011100000001100001100000000000000110000000111000011000000
0000000000110000000000000111111110000000110000000011000000001100000000
0000000000110000001100111100000000000011000000001100001100001100001100
0000001100001100000000110000111100000011000011000000111100000011000000
0000000000111111000000001100000000000011000000110000000111001110000011
0001111000110000000111111000000011000000111100000000111000000000000011
1000000000000011000000000000000111000000000000000000000000000000000000
0000000000000000000000001100000000000000000000000000011100001110000011
1111110000000000111001111000001100001111110000000000000000000000000111
0000000000001110000000000011000011000000000011000000000000000000000000
0000000000000000000000000000000001110000000000000011100000011100000000
1100000000000111000000000000000000000011000011111111111100000000000000
1100001110000000110000000111000000000011000000001100000000000001110000
0000000000000000000000000000000000000011100000001111111111110000000111
0000000000000000110000000011000011001100001100000000110000110000000011
0000110000000000000011000000001100001100000000000000110000000000000011
0000000111000011000000001100000000110000000000000000001100000011000011
1000000011000000000000110000000000110000110000000111000011000000001100
0011000000000000001100111000110000110000111000000000000000001100000000
1100000000001100000000110000001100110000001100011110001100011100000011
1000000000110000000000111000000000000000110000000000000000000011100000
0000001100000000000000000000000000000000000000000000000000000000110000
0001110000111000000011000011000000000000001100000001110000110000000000
0000001100000000000001111111000000001100000000110000000011000000000000
0000001100000011000011100000000000110000000011000011000011000011000000
0011000011000000001100001111110001110000111000111111000000110000000000
0000000011111000000011000000000000110000001100000001110011100000110001
1110001100000001111110000000111000111111000000011100000000000000111000
0000000000110000000000000001110000000000000000000000000000000000000000
0000000000000000000000000000000000000000000000000011000011000000001111
1000000000011100111111000011000001111000000000000000000000000000111000
0000000111000000000000000000000000000000000000000000001111110000000000
0000000000000000001100000000111000000000000000011100001110000000001100
0000000011100000000000001100000000110000000000001110000011000000001100
0011000000001100000011100000000000110000000011000000000000111000000000
1100000000000011111100000000000000011100000000000000000000000011100000
0000000000000000000000110000000000000011000000001100011100000000110000
1100000000110001110000000011000011000000000000001100000000000000110000
0011110000110000000011000000001100000000001100000011000000110000011100
0000110000000000001100000000001100001100000000110000110000000011000011
0000000000000011000111001100001100000111000000110000000011000000001100
0000000011000000001100000011001100000011001111110011001110000000011100
0000001100000000001100000000000000001100000000000000000000011100000000
0011000000000000000000000000000000000000000000000000000000001100000011
1100001111000000110000110000000011000011000000111100001100000000110000
0011000000000000111000000000000011000000001100000000110000000000000000
0011000000110000011100000000001100000000110000110000110000110000000011
0000110000000011000011111111111000000111111111110000001100000000000011
0000000111000000110000001100001100000011100000001100110000001100111111
0011000000111111110000000111111111110000001110000000000000001100000000
0000001100000000000000001100000000000000000000000000000000000000000000
0000000000000000000000000000000000000000000000110000110000000000110000
0000000111001111110000111000011110000000000000000000000000001110000000
0001110000000000000000000000000000000000000000000011111100000000000000
0000000000000111100000001110000000000000000011111111000000000011000000
0000111000000000000011110000011100000000000011100000111100000111000011
1000000111000000111000000000001110000001110000000000111100000000011110
0000000000111111000000000000000011100000000000000000000001110000000000
0000000000000000001110000000000000110000000011000111000000011100001110
0000111100011100000001110000110000000000000011000000000000001110001111
1100001100000000110000000011000000000011110001110000001100000011100000
1100000000000011000000000011000011000000001100001110000001110000110000
0000000000111001111011000011000000111000001111000001110000000011000000
0000111000000111000000111111000000111111001111110011100000000111000000
0011000000000011000000000000000011000000000000000000000111000000000011
0000000000000000000000000000000000000000000000000000000011100011111100
0011111100011100001110000011110000111000111111000011100000111100000011
0000000000001110000000000000110000000011000000001100000000000000000011
0000001100000011100000000011000000001100001100001100001100000000110000
1110000001110000110011111100000000111111001100000011000000000000111100
0001110000001110001111000011100001111000000011111100000011111100111111
0000011100001110000000111111001100000111100000000000000011100000000000
0011000000000000000111000000000000000000000000000000000000000000000000
0000000000001100000000000000000000000000000000000000000000000000000000
0011100001111000000111111111110000000000000000000000000001110000000011
1000000000000000000000000000000000000000000001111110000000000000000000
0000000011111100000011000000000000000000011111100000001111111111000000
1111111111110000011111111110000000000000110000000111111111100000011111
1111100000001100000000000001111111111000000011111110000000001111110000
0000011111100000000000000000011100000000000000000000111000000000000000
0000110000000001111111110000001100000000110011111111111110000001111111
1110001111111111111000001111111111110000110000000000000001111111011100
0011000000001100001111111111000000011111111000000011000000011100001111
1111111100110000000000110000110000000011000001111111111000001100000000
0000000111111111100000110000000111000001111111111000000000110000000000
0111111111100000000111100000000111100001111000110000000000110000000011
0000000000111111111111000000111111110000000000000000110000111111110000
0000000000000000000000000000000000000000000000000000011111110111000011
1011111110000001111111111000000111111101110000011111111110000000110000
0000000001111111110000001100000000110000111111111100000011000000110000
0011000000011100001111111111000011000000000011000011000000001100000111
1111111000001100000000000000000000000011000000110000000000000111111111
1000000001111111100000011111111111000000011110000000011110000111100000
1110000001110000000000000011000011111111111100000000011111110000000011
0000000000111111100000000000000000000000000000000000000000000000000000
0000000011000000000000000000000000000000000000000000000000000000000011
0000001100000000111111001100000000000000000000000000001100000000110000
0000000000000000000000000000000000000000011111000000000000000000000000
0000111111000000110000000000000000000011110000000011111111110000001111
1111111100000011111111000000000000001100000000111111110000000011111111
0000000011000000000000001111111100000000111111000000000011111100000000
0111110000000000000000000011000000000000000000001100000000000000000000
1100000000001111111100000011000000001100111111111111000000001111111100
0011111111111100000011111111111100001100000000000000001111110011000011
0000000011000011111111110000000011111100000000110000000011000011111111
1111001100000000001100001100000000110000001111111100000011000000000000
0000111111111000001100000000110000001111111100000000001100000000000011
1111110000000000110000000000110000001100001100000000001100000000110000
0000001111111111110000001111111100000000000000001100001111111100000000
0000000000000000000000000000000000000000000000000011111100110000110011
1111000000001111111100000000111111001100000011111111000000001100000000
0000011111111110000011000000001100001111111111000000110000001100000011
0000000011000011111111110000110000000000110000110000000011000000111111
1100000011000000000000000000000000110000001100000000000000111111110000
0000001111110000000011111100110000000011000000000011000000110000001100
0000001100000000000000110000111111111111000000000011111100000000110000
0000001111110000000000000000000000000000000000000000000000000000000000
0000000000000000000000000000000000000000000000000000000000000000000000
0000000000000000000000000000000000000000000000000000000000000000000000
0000000000000000000000000000000000001111000000000000000000000000000000
0111100000000000000000000000000000000000000000000000000000000000000000
0000000000000000000000000000000000000000000000000000000000000000000000
0000000000000000000000000000000000000000000000000000011110000000001111
0000000000000000000000000000000000000000000000000000000000000000000000
0000000000000000000000000000000000000000000000000000000000000000000000
0000000000000000000000000000000000000000000000000000000000000000000000
0000000000000000000000000000000000000000000000000000000000000000000000
0000000000000000000000000000000000000000000000000000000000000000000000
0000001111000000000000000000000000000000000000000000000000000000000000
0000000000000000000000000000000000000000000000000000000000000000000000
0000000000000000000000000000000000000000000000000000000000000000000000
0000000000111111111111110000000000000000000000000000000000000000000000
0000000000000000000000000000000000000000000000000000000000000000000000
1110000001110000000000000000000000000000000000001100000011000000000000
0000000000000000000000000000000000000000000000000000000000000000000000
0000110000000000000000000000001100000000000000000000000000000000000000
0000000000000000000000000000000000000000000000000000000000000000000000
0000000011000000001100000000000000000000000000000000000000000000000000
0000000000000000000000000000000000000000000000000000000000000000000000
0000000000000000000000000000000000000000000000000000000000000000000000
0000000000000000000000000000000000000000000000000000000000000000000000
0000000000000000000000000000000011000000000000000000000000000000000011
0000000000000000000000000000000000000000000000000000000000000000000000
0000000000000000000000000000000000000000000000000000000000000000000000
0000000000000000000000000000000000000000000000000011000000000011000000
0000000000000000000000000000000000000000000000000000000000000000000000
0000000000000000000000000000000000000000000000000000000000000000000000
0000000000000000000000000000000000000000000000000000000000000000000000
0000000000000000000000000000000000000000000000000000000000000000000000
0000000000000000000000000000000000000000000000000000000000000000000000
0000110000000000000000000000000000000000000000000000000000000000000000
0000000000000000000000000000000000000000000000000000000000000000000000
0000000000000000000000000000000000000000000000000000000000000000000000
0000001111111111111100000000000000000000000000000000000000000000000000
0000000000000000000000000000000000000000000000000000000000000000001110
0000011100000000000000000000000000000000000011100001110000000000000000
0000000000000000000000000000000000000000000000000000000000000000000000
1100000000000000000000000011000000000000000000000000000000000000000000
0000000000000000000000000000000000000000000000000000000000000000000000
0000111100000111000000000000000000000000000000000000000000000000000000
0000000000000000000000000000000000000000000000000000000000000000000000
0000000000000000000000000000000000000000000000000000000000000000000000
0000000000000000000000000000000000000000000000000000000000000000000000
0000000000000000000000000000000000000000000000000000000000000000000000
0000000000000000000000000000000000000000000000000000000000000000000000
0000000000000000000000000000000000000000000000000000000000000000000000
0000000000000000000000000000000000000000000000000000000000000000000000
0000000000000000000000000000000000000000000000000000000000000000000000
0000000000000000000000000000000000000000000000000000000000000000000000
0000000000000000000000000000000000000000000000000000000000000000000000
0000000000000000000000000000000000000000000000000000000000000000000000
0000000000000000000000000000000000000000000000000000000000000000000000
0000000000000000000000000000000000000000000000000000000000000000000000
0000000000000000000000000000000000000000000000000000000000000000000000
0000000000000000000000000000000000000000000000000000000000000000000000
0000000000000000000000000000000000000000000000000000000000000000000000
0000000000000000000000000000000000000000000000000000000000000001111111
1110000000000000000000000000000000000000011111111000000000000000000000
0000000000000000000000000000000000000000000000000000000000000000001100
0000000000000000000000110000000000000000000000000000000000000000000000
0000000000000000000000000000000000000000000000000000000000000000000000
0111111111100000000000000000000000000000000000000000000000000000000000
0000000000000000000000000000000000000000000000000000000000000000000000
0000000000000000000000000000000000000000000000000000000000000000000000
0000000000000000000000000000000000000000000000000000000000000000000000
0000000000000000000000000000000000000000000000000000000000000000000000
0000000000000000000000000000000000000000000000000000000000000000000000
0000000000000000000000000000000000000000000000000000000000000000000000
0000000000000000000000000000000000000000000000000000000000000000000000
0000000000000000000000000000000000000000000000000000000000000000000000
0000000000000000000000000000000000000000000000000000000000000000000000
0000000000000000000000000000000000000000000000000000000000000000000000
0000000000000000000000000000000000000000000000000000000000000000000000
0000000000000000000000000000000000000000000000000000000000000000000000
0000000000000000000000000000000000000000000000000000000000000000000000
0000000000000000000000000000000000000000000000000000000000000000000000
0000000000000000000000000000000000000000000000000000000000000000000000
0000000000000000000000000000000000000000000000000000000000000000000000
0000000000000000000000000000000000000000000000000000000000011111111110
0000000000000000000000000000000000000111111110000000000000000000000000
0000000000000000000000000000000000000000000000000000000000000011000000
0000000000000000001100000000000000000000000000000000000000000000000000
0000000000000000000000000000000000000000000000000000000000000000000111
1111111000000000000000000000000000000000000000000000000000000000000000
000000000000000000000000000000000000