P1
# Generated from ogl_fonts.c
672 5
000000000100000101000010100001111001100100010000000100000001000
010000000100000000000000000000000000000000000010001110000010000
011100011110000001000111110011111001111100011100011111000000000
000000000010000000000010000001110000111000011100011110000111100
111100001111000111000011110010001000111000111100010010001000000
100010010001000111000111100001110000111000011110011111001000100
100010010001001000100100010011111000011000100000001100000010000
000000000100000111000111100001111001111000011110001110000111100
100010001110001111000100100010000001000100100010001110001111000
011100001110000111100111110010001001000100100010010001001000100
111110000110000010000011000000000000000000000000000100000101000
111110010100001101000101000000100000010000001000010101000010000
000000000000000000000000100010001000110000100100000001000011000
100000010000000001000100010010001000010000001000000100000111000
001000000010001010100100010010001001000000100010010000001000000
100000010001000010000000010010100001000000110110011001001000100
100010010001001000100100000000100001000100100010010001000101000
010100000010000010000010000000100000101000000000000100001000100
100010010000001000100100000010000001000000100010000100000000100
101000010000001101100110010010001001000100100010010001001000000
001000010001001000100100010001010000101000000100000100000010000
001000001000000000000000000000100000000000010100001110000010000
011010000000000010000001000001110000111000000000001110000000000
001000010101000010000001000000110000101000111110011111000010000
011100011111000000000000000001000000000000000100000100001011100
111110010110001000000100010011111001111000101110011111000010000
000010011000001000000101010010101001000100111100010101001011000
011100000100001000100010100010101000010000001000000100000010000
001000000100001000100000000000000001111100101100010000001000100
111110011110001011100111110000100000000100110000010000001010100
101010010001001111000101010010110000111000001000010001000101000
101010000100000010000001000001100000010000001100010101000000000
000000000000000000000111110000101000101100100100000000000010000
001000010101000010000001000000000000000000010000010001000010000
010000000001001111000000010010001000100000100010000001000000000
001000000100000111000001000000000001000000100010010001001000000
100010010000001000000100010010001000010000100010010100001000000
100010010011001000100100000010011001001000000010000100001000100
010100010101000101000001000001000000010000000100000100000000000
000000000000001000100100010010000001000100100000010000001000100
100010000100001000100101000010000001000100100110010001001000000
100110010010000000100001000010001000101000101010001010000010000
010000000100000010000001000000010000000000000000000100000000000
010100011110001001100011010000000000001000010000000100000000000
010000000000000010000100000001110000111000111100011110000001000
111110011111001000000011100011111000010000010000000010000000000
010000000100000111100100010011110000111100111100001111001000000
011100010001000111000011100010010001111100100010010001000111000
100000001111001000100111100000100000111000001000001110001000100
001000011111000011000000010001100000000000111110000000001000100
111100001111001111000011110010000000111000100010001110000111000
100100011111001000100100010001110001000000011110010001001111000
001000001110000010000011100010001000010000111110000110000010000
011000000000000000000
