<?xml version="1.0" encoding="UTF-8" standalone="no"?>
<!-- Created with Inkscape (http://www.inkscape.org/) -->

<svg
   xmlns:dc="http://purl.org/dc/elements/1.1/"
   xmlns:cc="http://creativecommons.org/ns#"
   xmlns:rdf="http://www.w3.org/1999/02/22-rdf-syntax-ns#"
   xmlns:svg="http://www.w3.org/2000/svg"
   xmlns="http://www.w3.org/2000/svg"
   xmlns:sodipodi="http://sodipodi.sourceforge.net/DTD/sodipodi-0.dtd"
   xmlns:inkscape="http://www.inkscape.org/namespaces/inkscape"
   width="420"
   height="280"
   id="svg2"
   version="1.1"
   inkscape:version="0.47 r22583"
   sodipodi:docname="kv_z_zaba.svg"
   inkscape:export-filename="C:\kv_zaba.png"
   inkscape:export-xdpi="67.5"
   inkscape:export-ydpi="67.5">
  <defs
     id="defs4">
    <inkscape:perspective
       sodipodi:type="inkscape:persp3d"
       inkscape:vp_x="0 : 526.18109 : 1"
       inkscape:vp_y="0 : 1000 : 0"
       inkscape:vp_z="744.09448 : 526.18109 : 1"
       inkscape:persp3d-origin="372.04724 : 350.78739 : 1"
       id="perspective10" />
    <inkscape:perspective
       id="perspective2824"
       inkscape:persp3d-origin="0.5 : 0.33333333 : 1"
       inkscape:vp_z="1 : 0.5 : 1"
       inkscape:vp_y="0 : 1000 : 0"
       inkscape:vp_x="0 : 0.5 : 1"
       sodipodi:type="inkscape:persp3d" />
    <inkscape:perspective
       id="perspective2838"
       inkscape:persp3d-origin="0.5 : 0.33333333 : 1"
       inkscape:vp_z="1 : 0.5 : 1"
       inkscape:vp_y="0 : 1000 : 0"
       inkscape:vp_x="0 : 0.5 : 1"
       sodipodi:type="inkscape:persp3d" />
    <inkscape:perspective
       id="perspective2852"
       inkscape:persp3d-origin="0.5 : 0.33333333 : 1"
       inkscape:vp_z="1 : 0.5 : 1"
       inkscape:vp_y="0 : 1000 : 0"
       inkscape:vp_x="0 : 0.5 : 1"
       sodipodi:type="inkscape:persp3d" />
    <inkscape:perspective
       id="perspective2866"
       inkscape:persp3d-origin="0.5 : 0.33333333 : 1"
       inkscape:vp_z="1 : 0.5 : 1"
       inkscape:vp_y="0 : 1000 : 0"
       inkscape:vp_x="0 : 0.5 : 1"
       sodipodi:type="inkscape:persp3d" />
    <inkscape:perspective
       id="perspective3080"
       inkscape:persp3d-origin="0.5 : 0.33333333 : 1"
       inkscape:vp_z="1 : 0.5 : 1"
       inkscape:vp_y="0 : 1000 : 0"
       inkscape:vp_x="0 : 0.5 : 1"
       sodipodi:type="inkscape:persp3d" />
    <inkscape:perspective
       id="perspective2900"
       inkscape:persp3d-origin="0.5 : 0.33333333 : 1"
       inkscape:vp_z="1 : 0.5 : 1"
       inkscape:vp_y="0 : 1000 : 0"
       inkscape:vp_x="0 : 0.5 : 1"
       sodipodi:type="inkscape:persp3d" />
    <inkscape:perspective
       id="perspective3716"
       inkscape:persp3d-origin="0.5 : 0.33333333 : 1"
       inkscape:vp_z="1 : 0.5 : 1"
       inkscape:vp_y="0 : 1000 : 0"
       inkscape:vp_x="0 : 0.5 : 1"
       sodipodi:type="inkscape:persp3d" />
  </defs>
  <sodipodi:namedview
     id="base"
     pagecolor="#ffffff"
     bordercolor="#666666"
     borderopacity="1.0"
     inkscape:pageopacity="0.0"
     inkscape:pageshadow="2"
     inkscape:zoom="0.18888889"
     inkscape:cx="210"
     inkscape:cy="-980"
     inkscape:document-units="px"
     inkscape:current-layer="layer1"
     showgrid="false"
     inkscape:window-width="1280"
     inkscape:window-height="728"
     inkscape:window-x="-4"
     inkscape:window-y="-4"
     inkscape:window-maximized="1" />
  <style
     type="text/css"
     id="style4">
    .Zaba { fill:#000000; stroke:#004000; stroke-width:1;stroke-linejoin:round }
    .ZabaB { fill:none; stroke:#000000; stroke-width:1;stroke-linejoin:round }
    .Dira { fill:#ffffff; stroke:#808080; stroke-width:1;stroke-linejoin:round }</style>
  <metadata
     id="metadata7">
    <rdf:RDF>
      <cc:Work
         rdf:about="">
        <dc:format>image/svg+xml</dc:format>
        <dc:type
           rdf:resource="http://purl.org/dc/dcmitype/StillImage" />
        <dc:title></dc:title>
      </cc:Work>
    </rdf:RDF>
  </metadata>
  <g
     inkscape:label="Layer 1"
     inkscape:groupmode="layer"
     id="layer1"
     transform="translate(0,-772.36218)">
    <rect
       style="fill:#ffffff;fill-opacity:1;fill-rule:nonzero;stroke:none"
       id="rect_fon"
       width="420"
       height="2520"
       x="0"
       y="772.36218"
       ry="0"
       inkscape:export-xdpi="90"
       inkscape:export-ydpi="90" />
    <g
       id="g_zaba_l">
      <path
         class="ZabaB"
         sodipodi:nodetypes="cssccssc"
         id="path2857"
         d="m 165.10084,917.20318 c 0,0 -0.31568,-2.4036 -1.02605,-3.8244 -0.55967,-1.1193 -2.0521,-0.9328 -2.61176,0.093 -0.55966,1.0261 -0.27984,3.7311 -0.27984,3.7311 m 12.21933,1.6793 c 0,0 -0.0933,-2.6118 -0.83949,-4.2908 -0.74622,-1.679 -2.33194,-1.8655 -3.07816,-1.026 -0.74621,0.8395 -0.18655,4.1975 -0.18655,4.1975"
         style="fill:none;stroke:#000000;stroke-width:1;stroke-linejoin:round" />
      <path
         d="m 167.52605,910.42841 c 0,0 -2.14538,-1.86554 -4.57059,-1.86554 -2.42521,0 -4.66386,2.33193 -6.80924,6.1563 -2.14538,3.82437 -2.23866,6.80922 -1.58572,9.70082 0.65295,2.8916 4.57059,8.8614 4.66387,10.074 0.0933,1.2126 -2.14538,7.6487 -1.86555,12.2193 0.27984,4.5706 1.39916,9.2345 3.7311,13.5252 2.33193,4.2908 5.78319,9.8874 6.99579,10.4471 1.21261,0.5596 3.54454,-0.3731 3.35799,-0.5597 0,0 -8.39496,-9.8874 -10.07395,-18.1891 -1.67899,-8.3016 -1.2126,-14.9243 1.11933,-17.2563 -2.23866,-3.2647 -4.75715,-5.4101 -4.9437,-9.0479 -0.29456,-5.74394 6.9958,-6.063 10.72689,-4.0109 3.73109,2.0521 6.43613,1.5857 7.46218,1.2126 1.02605,-0.3731 1.49244,-2.98487 1.49244,-2.98487 0,0 -4.38403,-0.74622 -5.96975,-1.67899 -1.58571,-0.93277 -5.96974,-1.30588 -7.92857,-1.21261 -1.95882,0.0933 -4.9437,0.65295 -4.9437,0.65295 0,0 -0.55966,-4.01093 1.77227,-5.7832 2.33194,-1.77227 3.45126,-1.67899 4.85042,-1.02605 1.39916,0.65294 1.99244,1.76066 1.99244,1.76066"
         id="path2859"
         sodipodi:nodetypes="cssssssscscssscsscssc"
         class="Zaba"
         style="fill:#000000;stroke:#004000;stroke-width:1;stroke-linejoin:round" />
      <path
         d="m 167,912.56218 c 0,0 2.17975,-1.93518 4.81803,-1.80326 2.63828,0.13191 3.65757,1.91564 4.28721,3.36381 0.62964,1.44817 1.3287,4.43106 1.00867,6.64234 -0.32002,2.21128 -2.85547,6.02141 -2.85547,6.02141 0,0 7.0769,6.68933 10.09143,12.79566 2.57232,5.2106 4.61699,8.4425 4.88082,13.58714 0.26383,5.14465 -1.64893,10.15738 -4.02338,12.79566 -2.37445,2.63829 -5.14465,4.22125 -5.14465,4.22125 l 0,0.9234 c 0,0 4.74891,-2.24254 6.33188,-4.08933 1.58296,-1.8468 3.36842,-3.69741 4.02338,-2.90211 0.92339,1.12127 -1.54079,4.64368 -3.49573,6.46379 -1.91275,1.78084 -8.66074,3.57916 -8.04676,5.14464 0.53836,1.37266 5.53544,-0.9688 7.51911,-0.39574 2.96806,0.85744 7.52353,6.27144 8.97015,5.40848 1.65144,-0.98515 -2.11062,-3.16594 -0.65957,-3.6936 1.45106,-0.52765 9.8197,3.14942 10.42121,1.97871 0.83589,-1.62687 -9.49781,-3.95742 -11.21269,-6.5957 -1.71489,-2.63828 0,-8.17867 4.7489,-12.39992 4.74891,-4.22125 6.19996,-8.31058 4.48508,-11.74035 -1.71488,-3.42976 -7.78293,0.9234 -7.78293,0.9234 0,0 -0.13191,-8.64037 -2.37445,-11.21269 -1.54339,-1.77036 -5.44452,-7.93929 -6.96176,-9.71495 -2.07386,-2.42708 -4.64668,-5.05942 -4.64668,-5.05942 0,0 -0.84309,-8.8693 -2.63828,-11.08078 -1.85921,-2.29035 -3.9783,-3.29785 -6.5957,-3.29785 -2.57233,0 -4.88082,1.58296 -4.88082,1.58296"
         id="path2861"
         sodipodi:nodetypes="cszzcsssccssssssssssscsscssc"
         class="Zaba"
         style="fill:#000000;stroke:#004000;stroke-width:1;stroke-linejoin:round" />
    </g>
    <g
       id="g_lapi_lu"
       transform="translate(0,280)">
      <path
         class="Zaba"
         sodipodi:nodetypes="ccssssssssscssssc"
         id="path2825"
         d="m 194.66234,932.28518 -5.98961,-7.2731 c 0,0 4.63572,-7.7136 4.99134,-12.69226 0.42783,-5.98962 -9.35487,-7.32285 -9.12703,-8.84181 0.42783,-2.8522 5.27656,1.14088 6.13222,-1.28349 0.71825,-2.03504 -5.50921,-5.32914 -4.27829,-6.56005 1.85393,-1.85393 4.6994,3.83033 7.41571,2.42437 2.35386,-1.21836 0.85886,-7.09675 2.70958,-6.98788 2.42437,0.14261 0.49509,6.54645 2.70959,7.13049 3.02741,0.79843 5.70439,-4.2783 7.41571,-2.56698 0.95133,0.95133 -4.56352,5.56178 -4.13569,6.98788 0.42783,1.4261 2.28176,1.4261 2.28176,1.4261 0,0 2.51904,-2.90063 2.99481,-1.85393 0.71305,1.56871 -2.56698,4.84873 -3.99308,5.70439 -1.4261,0.85566 -3.46716,1.6424 -4.56351,3.13742 -1.56871,2.13915 -1.93714,7.86951 -3.13742,10.2679 -1.68485,3.36698 -1.5687,10.83834 -1.42609,10.98095 z"
         style="fill:#000000;stroke:#004000;stroke-width:1;stroke-linejoin:round" />
      <path
         class="Zaba"
         sodipodi:nodetypes="czcsszzc"
         id="path2827"
         d="m 154.44638,942.26718 c 0,0 0.977,-4.6878 0.99827,-6.56005 0.0213,-1.87226 -0.42783,-3.42264 -0.42783,-3.42264 0,0 -9.84007,-3.13741 -12.83488,-5.56178 -2.9948,-2.42436 -3.42848,-4.47274 -4.13568,-6.13222 -0.87296,-2.04844 -1.56837,-4.4581 -2.56698,-4.13568 -0.99862,0.32242 0.7158,6.66278 2.70959,10.41051 1.99379,3.74773 16.25751,15.40186 16.25751,15.40186 z"
         style="fill:#000000;stroke:#004000;stroke-width:1;stroke-linejoin:round" />
      <path
         class="Zaba"
         sodipodi:nodetypes="ccsssccc"
         id="path2829"
         d="m 138.37783,934.03544 -3.56168,-6.72762 c 0,0 0.52765,-3.16594 -0.39574,-5.01273 -0.9234,-1.8468 -3.42977,-3.82551 -5.01274,-3.42977 -1.49244,0.37311 -0.24702,4.30446 0.39574,5.80422 0.79149,1.8468 3.56168,3.16594 3.56168,3.16594 l 3.42977,6.5957 1.58297,-0.39574 z"
         style="fill:#000000;stroke:#004000;stroke-width:1;stroke-linejoin:round" />
      <g
         id="g_sovok_lu">
        <path
           d="M 131.91404,917.01818 123.33963,900.397 c 0,0 -7.87496,-1.87615 -10.15739,-9.10206 -1.56187,-4.94471 -1.43722,-10.86205 0.65958,-11.60843 2.72659,-0.97057 7.22744,3.65788 8.97015,8.97015 2.17633,6.63411 0.52766,11.74035 0.52766,11.74035"
           id="path2826"
           sodipodi:nodetypes="ccsssc"
           class="ZabaB"
           style="fill:none;stroke:#000000;stroke-width:1;stroke-linejoin:round" />
        <path
           class="ZabaB"
           sodipodi:nodetypes="csssssc"
           id="path2828"
           d="m 123.33963,899.86942 c 0,0 2.7702,-0.65957 5.54039,-1.18722 2.41041,-0.45912 2.77019,-2.50638 10.94886,-1.8468 9.49989,0.76613 12.13609,-2.24254 12.79566,-6.19996 0.5281,-3.16861 -1.45105,-6.5957 -4.88082,-7.65102 -3.42976,-1.05531 -16.53326,1.22567 -19.52327,-1.05531 -5.93661,-4.52886 -13.98289,-2.63828 -13.98289,-2.63828"
           style="fill:none;stroke:#000000;stroke-width:1;stroke-linejoin:round" />
        <path
           class="ZabaB"
           sodipodi:nodetypes="csccsccsccsc"
           id="path2830"
           d="m 143.91822,897.09979 c 0,0 2.63827,-3.95743 3.42976,-6.46379 0.65514,-2.0746 1.05531,-7.25527 1.05531,-7.25527 m -14.11479,13.1914 c 0,0 1.45105,-5.27656 0.65956,-7.78293 -0.79148,-2.50636 -2.37445,-5.93613 -2.37445,-5.93613 m 8.04676,0.13191 c 0,0 0.92339,3.82551 -0.26383,6.99145 -0.99987,2.66632 -1.97871,6.85953 -1.97871,6.85953 m -15.43395,-17.67648 c 0,0 4.74891,3.8255 5.80422,8.57441 1.05531,4.74891 0.65957,10.28929 0.65957,10.28929"
           style="fill:none;stroke:#000000;stroke-width:1;stroke-linejoin:round" />
        <path
           class="ZabaB"
           sodipodi:nodetypes="cssccssc"
           id="path2832"
           d="m 151.70114,886.67765 c 0,0 -4.41912,-0.9234 -8.64037,-0.70904 -4.22125,0.21436 -8.90419,0.37925 -10.75099,0.18138 -3.69359,-0.39574 -12.92758,-3.42976 -12.92758,-3.42976 m 4.08934,10.81695 c 0,0 3.95742,-3.6936 10.2893,-3.56168 6.33187,0.13191 9.62972,2.77019 11.47652,2.77019 1.84679,0 6.5957,0.13192 6.5957,0.13192"
           style="fill:none;stroke:#000000;stroke-width:1;stroke-linejoin:round" />
      </g>
      <path
         d="m 163.24661,968.54492 c 0,0 -11.60376,5.46497 -11.5777,6.95717 0.033,1.8552 4.1042,4.6639 5.03697,7.2756 0.93278,2.6118 2.23866,10.2605 0.93278,13.9916 -1.30589,3.73111 -8.50371,14.05831 -7.27563,14.55131 1.65721,0.6652 2.76883,-4.1172 4.3247,-3.6538 1.31655,0.3921 -1.34256,7.5979 0.33916,7.758 2.30558,0.2195 1.08466,-7.4505 2.67869,-7.5395 1.9108,-0.1085 1.83617,6.8212 3.1045,7.5395 0.8695,0.4924 1.3935,-0.7369 1.3935,-0.7369 0,0 -1.04205,-3.5539 -0.83383,-5.4194 0.21103,-1.8908 1.03074,-3.6425 2.19436,-3.292 1.14378,0.3445 1.5988,3.2098 2.28295,2.7323 1.9994,-1.3954 -2.19029,-7.99 -2.42521,-9.32771 -0.38586,-2.1972 0.79143,-5.6048 0.44941,-9.1195 -0.48291,-4.9627 -4.61384,-8.7842 -4.74017,-10.4687 -0.14323,-1.9099 1.22959,-3.1375 2.42521,-3.1715 1.59329,-0.045 3.91765,2.2387 4.85042,2.2387 0.93278,0 2.79832,-2.4252 2.79832,-2.4252 l -5.95843,-7.88997 z"
         id="path2854"
         sodipodi:nodetypes="csssssssscsssssssscc"
         class="Zaba"
         style="fill:#000000;stroke:#004000;stroke-width:1;stroke-linejoin:round" />
    </g>
    <g
       id="g_lapi_ld"
       transform="translate(0,560)">
      <path
         class="Zaba"
         sodipodi:nodetypes="ccssssccssc"
         id="path2821"
         d="m 180.82919,940.84099 2.56697,3.42263 c 0,0 -1.71131,3.99308 -4.27829,3.70786 -2.56697,-0.28522 -5.13395,-1.4261 -6.56005,-0.85566 -1.4261,0.57044 -4.32361,6.04692 -5.41917,5.13395 -1.71132,-1.4261 2.28176,-5.41917 1.71132,-6.27483 -0.57044,-0.85566 -5.41917,-4.56351 -5.41917,-4.56351 l 3.70785,-0.28522 c 0,0 -3.70784,-2.85219 -2.56697,-3.99307 1.99653,-1.99654 9.10675,5.70439 11.12356,5.70439 3.13741,0 5.70439,-1.99654 5.13395,-1.99654 z"
         style="fill:#000000;stroke:#004000;stroke-width:1;stroke-linejoin:round" />
      <path
         d="m 155.9224,966.48642 c 0,0 -3.0644,-12.39993 -6.85954,-12.39992 -2.37445,0 -0.80166,9.51819 -1.58297,12.53184 -0.92339,3.56167 -5.14464,2.64751 -7.91484,1.72412 -2.97466,-0.99154 -5.93613,-0.40498 -5.93613,-0.40498 0,0 4.61699,1.31914 3.95742,2.63828 -0.65957,1.31914 -6.78289,0.39191 -6.5957,2.63828 0.13191,1.58296 4.74891,0.39574 5.14465,1.97871 0.24366,0.97463 -2.97276,1.90806 -1.97871,2.90211 1.31914,1.31914 5.80421,-3.42977 8.4425,-4.08934 2.63828,-0.65957 5.27656,-0.65957 6.85953,-1.97871 1.58296,-1.31914 0.52765,-6.85953 1.71488,-7.38719 1.18722,-0.52765 3.82551,2.50637 3.82551,2.50637 l 0.9234,-0.65957 z"
         id="path2831"
         sodipodi:nodetypes="cssscssssssscc"
         class="Zaba"
         style="fill:#000000;stroke:#004000;stroke-width:1;stroke-linejoin:round" />
      <path
         d="m 150.375,949.74182 c 0,0 0.32485,-3.78364 -0.25,-5.125 -0.57485,-1.34136 -2.25,-2.125 -2.25,-2.125 0,0 -2.875,0.5 -7.375,0.625 -4.5,0.125 -6.83739,-0.42035 -9.375,-1.625 -2.01319,-0.9557 -5.75,-2.625 -6.125,-1.625 -0.375,1 6.67075,5.4218 7.875,6.125 1.29623,0.75691 6.625,0.875 9,1.375 2.375,0.5 8.5,2.625 8.5,2.375 z"
         id="path2868"
         sodipodi:nodetypes="czcssszsc"
         class="Zaba"
         style="fill:#000000;stroke:#004000;stroke-width:1;stroke-linejoin:round" />
      <path
         d="m 137.70905,951.23636 c 0,0 -9.19544,-7.29973 -11.75565,-7.42462 -1.81196,-0.0884 -0.31752,0.87764 -1.96664,0.69606 -2.03342,-0.22389 -2.09131,1.02221 0.55243,2.04398 1.83726,0.71008 2.93348,2.76872 4.33102,2.20971 1.32582,-0.53032 2.47487,-0.0884 2.47487,-0.0884 l 5.30331,3.88909 1.06066,-1.32583 0,10e-6 z"
         id="path2871"
         sodipodi:nodetypes="csssscccc"
         class="Zaba"
         style="fill:#000000;stroke:#004000;stroke-width:1;stroke-linejoin:round" />
      <g
         id="g_sovok_ld">
        <path
           class="ZabaB"
           sodipodi:nodetypes="ccssssc"
           id="path2874"
           d="m 121.875,940.74218 -19.625,-7.5 c 0,0 -1.75,2.5 -5,3 -3.25,0.5 -8.386875,-1.79508 -13.125,-5.375 -5.625,-4.25 -4.860647,-7.60857 -4,-8.375 1.81066,-1.61244 7.875,0.5 11.625,2.25 3.75,1.75 9.375,9.25 9.375,9.25"
           style="fill:none;stroke:#000000;stroke-width:1;stroke-linejoin:round" />
        <path
           d="m 83.375,921.99218 c 0,0 2.5,-4.125 6.375,-5.25 3.875,-1.125 11.25,0.125 15,-0.5 3.75,-0.625 8,-4.375 11.625,-4.125 3.625,0.25 7.75,1.75 7.75,5.375 0,3.625 -0.625,8.125 -3.875,9.625 -3.25,1.5 -6.25,1.75 -9.625,2.625 -3.375,0.875 -9.875,3.5 -9.875,3.5"
           id="path2876"
           class="ZabaB"
           style="fill:none;stroke:#000000;stroke-width:1;stroke-linejoin:round" />
        <path
           d="m 93.25,925.61218 c 0,0 4.875,-3.125 11.875,-5.125 7,-2 10.625,-2 12.375,-2 1.75,0 6.375,0.5 6.375,0.5"
           id="path2878"
           class="ZabaB"
           style="fill:none;stroke:#000000;stroke-width:1;stroke-linejoin:round" />
        <path
           d="m 102,926.86218 c 0,0 2.375,-2 7,-2.75 4.625,-0.75 10.25,-0.75 10.25,-0.75 l 0.125,4 c 0,0 0.25,-4 -0.25,-7.625 -0.5,-3.625 -1.625,-7.75 -1.625,-7.75 m -29,5.125 8.25,6.375"
           id="path2880"
           sodipodi:nodetypes="csccsccc"
           class="ZabaB"
           style="fill:none;stroke:#000000;stroke-width:1;stroke-linejoin:round" />
        <path
           d="m 107,930.98718 c 0,0 1,-5.75 -0.875,-8.5 -1.875,-2.75 -5.625,-6.25 -5.625,-6.25 m 10.125,-2.625 c 0,0 1.75,4.25 1.625,6.875 -0.125,2.625 0.5,8.875 0.5,8.875 m -17.875,-13.375 c 0,0 4.112458,3.1099 5.125,5 1.0077,1.881 2.26517,4.5277 2.125,6 -0.13507,1.4188 1.25,5.125 1.25,5.125"
           id="path2882"
           sodipodi:nodetypes="csccsccssc"
           class="ZabaB"
           style="fill:none;stroke:#000000;stroke-width:1;stroke-linejoin:round" />
      </g>
    </g>
    <g
       id="g_zaba_r"
       transform="translate(0,840)">
      <path
         class="Zaba"
         sodipodi:nodetypes="cssssscsssssscssscscssc"
         id="path2864"
         d="m 247.875,927.96218 c 0,0 2.5,-1.845 4.625,-1.845 3.125,0 5,3.125 5.625,4.375 0.625,1.25 1.25,4.375 1.75,5.5 0.46805,1.05312 1.375,2.375 1.5,4.5 0.22755,3.86831 -1.875,6.875 -2.75,8.25 -0.875,1.375 -3.375,4.75 -3.375,4.75 0,0 3.5,4.625 3.625,9.875 0.125,5.25 -1,10.125 -2.875,14 -1.95169,4.03349 -7.375,11.375 -9.125,11.375 -1.125,0 -1.55985,-1.20255 -1,-1.875 1.125,-1.35128 3.85078,-4.0146 6.625,-9.125 2.375,-4.375 3.375,-8.75 3.375,-13.625 0,-4.875 -3.5,-10.375 -3.5,-10.375 0,0 5.125,-4.75 5.125,-9.75 0,-5 -4.25,-5.125 -6.25,-4.625 -2,0.5 -7.25,2.625 -8.625,2.625 -1.375,0 -4.875,-3.625 -4.875,-3.625 0,0 5.875,-2.75 10.25,-3.25 4.375,-0.5 9.5,-1 9.5,-1 0,0 -0.20015,-1.54033 -0.75,-2.75 -0.625,-1.375 -2.2452,-3.375 -3.875,-3.375 -2.5,0 -5.125,2.17 -5.125,2.17"
         style="fill:#000000;stroke:#004000;stroke-width:1;stroke-linejoin:round" />
      <path
         d="m 245.875,935.61218 c 0,0 0.28436,-3.72149 -1.125,-4.25 -1,-0.375 -2.125,0.125 -2.5,1.5 -0.375,1.375 -0.5,3.75 -0.5,3.75 m 13.375,-2.25 c 0,0 -0.88417,-3.9157 -2.375,-3.75 -2.25,0.25 -3.375,4.25 -3.375,4.25"
         id="path2866"
         sodipodi:nodetypes="cssccsc"
         class="ZabaB"
         style="fill:none;stroke:#000000;stroke-width:1;stroke-linejoin:round" />
      <path
         d="m 247.8,927.96218 c 0,0 -1.08512,-1.30116 -4.20171,-0.92917 -2.7645,0.32997 -6.43825,2.30577 -7.95495,5.39169 -1.29072,2.62613 -1.06067,8.3969 -1.06067,8.3969 0,0 -5.83363,4.77297 -9.54594,11.13693 -3.71231,6.36396 -6.18718,15.20279 -6.18718,15.20279 0,0 -3.88909,-3.0052 -6.01041,-1.41421 -2.12132,1.59099 -2.2981,6.71751 0,9.36916 2.2981,2.65165 8.22896,10.42543 8.13173,12.9047 -0.17678,4.41942 -11.84404,7.95495 -11.84404,8.66206 0,0.70711 0,2.12132 1.41421,1.59099 1.41422,-0.53033 5.52155,-2.5647 6.36397,-2.12132 1.67938,0.88388 -1.60393,3.9101 -0.17678,4.773 1.62432,0.982 8.48528,-6.71754 9.89949,-6.89432 1.41422,-0.17678 6.03842,3.1398 7.24785,2.12132 1.67938,-1.41422 -5.3314,-5.10506 -6.54074,-6.71751 -2.38649,-3.18198 -2.47488,-8.3969 -2.47488,-8.3969 0,0 2.47488,3.97748 4.06587,5.39169 1.59099,1.41422 3.53553,3.71231 4.59619,3.88909 1.06066,0.17678 1.96801,-0.35983 1.76777,-1.06066 -0.35356,-1.23744 -5.3033,-3.88909 -7.6014,-8.3085 -1.6514,-3.17575 -2.82842,-9.01562 -1.06066,-14.49569 1.76777,-5.48008 4.06587,-10.42983 7.07107,-13.78859 3.00521,-3.35875 7.6014,-7.95495 7.6014,-7.95495 0,0 -3.18198,-2.29809 -3.35876,-6.36396 -0.17677,-4.06586 0.8518,-6.68047 2.2981,-7.77818 1.35285,-1.02678 3.19274,-1.80226 4.59619,-1.76776 1.52536,0.0375 2.91428,1.3614 2.91428,1.3614"
         id="path2889"
         sodipodi:nodetypes="csscscsssssssssscsssssscsssc"
         class="Zaba"
         style="fill:#000000;stroke:#004000;stroke-width:1;stroke-linejoin:round" />
    </g>
    <g
       id="g_lapi_ru"
       transform="translate(0,1120)">
      <path
         class="Zaba"
         sodipodi:nodetypes="cssssssssssssssscsc"
         id="path2850"
         d="m 258,987.3665 c 0,0 6,1.625 7.75,2.75 1.75,1.125 5.875,4.875 5.75,6 -0.125,1.125 -6.625,5.75 -7.875,8.375 -1.25,2.625 -3.70485,7.9929 -3.875,10.375 -0.5,7 4.375,12.5 3.125,13.75 -0.51539,0.5154 -2.50872,-3.489 -4,-3 -1.56226,0.5123 0.62118,5.694 -0.75,5.625 -1.13049,-0.057 -2,-5 -3.5,-5 -1,0 -1.625,3.75 -2.75,3.625 -1.125,-0.125 0.625,-9 -0.375,-9.375 -0.96515,-0.3619 -2.875,2.5 -3.875,1.75 -1,-0.75 5.75,-6.75 6.875,-8.25 1.125,-1.5 3.375,-7.375 4.625,-9.375 1.25,-2 6.02285,-5.78359 5.75,-6.875 -0.5,-2 -6.20333,-1.02844 -9.125,-1.375 -1.92575,-0.22842 -3.125,-2 -3.125,-2 0,0 1.25,-2.75 2.25,-4.25 1,-1.5 3.25,-2.875 3.125,-2.75 z"
         style="fill:#000000;stroke:#004000;stroke-width:1;stroke-linejoin:round" />
      <path
         d="m 225.25,947.73982 4.25,-4.625 c 0,0 -2.875,-3.875 -3.125,-9.375 -0.29602,-6.51248 3.38182,-7.98818 5.125,-8 1.25621,-0.009 3.1678,-0.11139 3,-1.25 -0.21946,-1.48912 -4.76355,-0.14105 -5,-1.875 -0.375,-2.75 4.875,-5.25 3.75,-6.5 -1.125,-1.25 -3.64028,2.37245 -5.125,2.125 -2.25,-0.375 -3.40868,-2.37212 -3.70677,-3.87069 -0.41143,-2.06834 -0.11059,-4.49856 -1.54323,-4.37931 -1.77764,0.14797 0.70441,6.88843 -1,8 -2.875,1.875 -4.625,-2.25 -5.875,-1.375 -1.25,0.875 1.58397,2.72926 0.875,5.875 -0.7163,3.17826 -3.61607,-0.53444 -4.375,0.875 -0.875,1.625 6.19909,3.14817 8.25,7.25 1.5,3 3.25,6.625 3.625,9.5 0.375,2.875 0.625,7.75 0.875,7.625 z"
         id="path2846"
         sodipodi:nodetypes="ccssssssssssssssc"
         class="Zaba"
         style="fill:#000000;stroke:#004000;stroke-width:1;stroke-linejoin:round" />
      <path
         d="m 276.375,952.61218 -1.5,-1.625 4.375,-5.75 c 0,0 0.40512,-5.2126 1.5,-6.125 1.5,-1.25 4,-2.625 4.75,-1.75 1.0193,1.1892 0.43228,3.5852 -0.5,5.25 -1.75,3.125 -4.375,4 -4.375,4 l -4.25,6 z"
         id="path2851"
         sodipodi:nodetypes="cccssscc"
         class="Zaba"
         style="fill:#000000;stroke:#004000;stroke-width:1;stroke-linejoin:round" />
      <path
         d="m 258,951.86718 c 0,0 1.125,2.25 1.5,3.5 0.375,1.25 1.125,4.625 1.125,4.625 0,0 13.625,-11.125 15.125,-14 1.5,-2.875 5.5,-11 4.25,-11.5 -1.875,-0.75 -3.93936,6.82922 -5.5,9 -2.25636,3.13851 -5.85059,4.18371 -9.10938,5.17188 -3.2579,0.98789 -7.39062,3.14062 -7.39062,3.20312 z"
         id="path2855"
         sodipodi:nodetypes="cscssssc"
         class="Zaba"
         style="fill:#000000;stroke:#004000;stroke-width:1;stroke-linejoin:round" />
      <path
         d="m 283.625,933.86218 8.875,-17.25 c 0,0 5.625,1.5 8.625,-8.375 3,-9.87502 0.375,-11.50002 -0.75,-12.00002 -1.125,-0.5 -5.125,1 -7.875,8.37502 -2.75,7.375 -0.375,11.875 -0.375,11.875 0,0 -9.8505,-0.871 -14.625,-1 -4.625,-0.125 -10.25,1.875 -11.875,0.625 -1.625,-1.25 -4.75,-8.5 -4.375,-11.125 0.375,-2.625 2.625,-5.25002 5.375,-5.12502 2.75,0.125 16.5,-0.375 18.5,-0.875 2,-0.5 6.5,-3.5 7.75,-3.5 1.25,0 4.625,1.375 4.625,1.375"
         id="path2858"
         sodipodi:nodetypes="ccssscssssssc"
         class="ZabaB"
         style="fill:none;stroke:#000000;stroke-width:1;stroke-linejoin:round" />
      <path
         d="m 291.25,910.61218 c 0,0 -4.125,-2 -10.375,-2 -6.25,0 -9.5,0.25 -11.875,1.125 -2.375,0.875 -6,2.125 -6,2.125 m 22.25,4.25 c 0,0 -0.875,-4.75 0.625,-9.875 1.5,-5.125 4.75,-9.87502 4.75,-9.87502 m -12.75,3.125 c 0,0 -0.5,5.25002 -0.25,7.00002 0.25,1.75 0.875,9.375 0.875,9.375 m -4,0.125 c 0,0 -2,-6.875 -3,-9.125 -1,-2.25 -3.375,-7.00002 -3.375,-7.00002 m -7,7.75002 c 0,0 3.25,-2.75 5.75,-3.125 2.5,-0.375 9.98028,0.084 11.5,-0.625 3.75,-1.75 14.5,-0.5 14.5,-0.5"
         id="path2860"
         sodipodi:nodetypes="cssccsccsccsccssc"
         class="ZabaB"
         style="fill:none;stroke:#000000;stroke-width:1;stroke-linejoin:round" />
    </g>
    <g
       id="g_lapi_rd"
       transform="translate(0,1400)">
      <path
         class="Zaba"
         sodipodi:nodetypes="ccsssssssssc"
         id="path2848"
         d="m 233.875,959.11601 -1.625,2.625 c 0,0 1.125,3.375 3.875,4.25 2.75,0.875 5.875,-0.375 8.125,1 2.25,1.375 3.85814,4.36012 4.875,3.75 1.25,-0.75 -2.66108,-3.7768 -2.25,-5.75 0.625,-3 6.10287,-3.09572 5.875,-4.625 -0.18441,-1.23764 -4.5,0.625 -4.375,-0.375 0.125,-1 3.875,-3.125 3.125,-4 -0.75,-0.875 -3.375,1.375 -6.375,1.75 -2.49307,0.31163 -4.875,3.125 -7.125,3.125 -2.25,0 -4,-1.75 -4.125,-1.75 z"
         style="fill:#000000;stroke:#004000;stroke-width:1;stroke-linejoin:round" />
      <path
         d="m 268.625,955.99141 c 0,0 7.25,5 12.75,6.5 5.5,1.5 11.51437,3.28302 13.75,3 3.81253,-0.48264 4.75,-2.625 6,-2.125 1.14893,0.45957 -0.25,2.625 -1.25,3.125 -1,0.5 -2.75,0.875 -2.75,0.875 0,0 1.125,2.5 -0.625,3.625 -1.37095,0.88133 -4.32685,0.22129 -5,-1.125 -0.75,-1.5 -3.125,-3.125 -6.75,-3.875 -3.625,-0.75 -22.5,-1.125 -22.5,-1.125 0,0 0.875,-3.125 2.75,-5.375 1.875,-2.25 3.375,-3.375 3.625,-3.5 z"
         id="path2869"
         sodipodi:nodetypes="csssscssscsc"
         class="Zaba"
         style="fill:#000000;stroke:#004000;stroke-width:1;stroke-linejoin:round" />
      <path
         d="m 267.875,977.73858 c 0,0 -0.75,8.375 0.5,9.625 1.25,1.25 3.625,0.25 5.875,1.5 2.25,1.25 5.75,5.75 6.875,5.25 1.125,-0.5 -0.75,-3.25 0.25,-4.25 0.63738,-0.63738 5.6065,1.61417 6.25,0.125 0.86736,-2.00722 -6,-2.25 -6.125,-3.75 -0.0887,-1.06431 4.67688,-1.9424 4.125,-3.125 -0.875,-1.875 -6.125,1.25 -7.75,1 -1.625,-0.25 -4.875,-0.375 -5.625,-1.375 -0.75,-1 -1.375,-5.625 0.625,-9.5 2,-3.875 3,-4.75 -0.75,-6.125 -3.75,-1.375 -9.75,1.5 -9.75,1.5 0,0 -0.625,4.5 -2.125,8 -1.5,3.5 -3,5.125 -5.375,7.625 -2.375,2.5 -5.5,5.25 -5.875,6.25 -0.375,1 -0.25,1.75 0.625,1.625 0.72154,-0.10308 5.625,-5 8,-7.625 2.375,-2.625 3.875,-5 5.625,-5.875 1.75,-0.875 4.375,-0.75 4.625,-0.875 z"
         id="path2875"
         sodipodi:nodetypes="cssssssssssscssssssc"
         class="Zaba"
         style="fill:#000000;stroke:#004000;stroke-width:1;stroke-linejoin:round" />
      <path
         d="m 297.25,975.36106 c 1,1.25 3.375,0.125 6.375,-1.625 3.3904,-1.97773 5.5,-4.875 4.625,-6.125 -0.91799,-1.31141 -2.35586,0.62739 -4.375,0.375 -2,-0.25 -4.375,0.75 -4.625,2.375 -0.25,1.625 -1.875,2.125 -2.125,3 -0.25,0.875 -0.125,2.25 0.125,2 z"
         id="path2879"
         sodipodi:nodetypes="csssssc"
         class="Zaba"
         style="fill:#000000;stroke:#004000;stroke-width:1;stroke-linejoin:round" />
      <path
         d="m 311.5,948.74218 c 0,0 0.375,-2.5 2.5,-6.5 2.125,-4 7.875,-9.125 7.875,-9.125 m -13.75,-0.5 c 0,0 -0.25,2.75 -0.875,5.125 -0.625,2.375 -1.25,8.625 -1.25,8.625 m -6.375,-1.625 c 0,0 0,-4.875 0.25,-7.875 0.25,-3 0,-7.75 0,-7.75 m 4,36.125 13,-12.625 c 0,0 2.75,3.25 7.625,-1.25 4.875,-4.5 8.75,-8.5 8.75,-12.125 0,-3.625 -3.75,-3.375 -5.875,-2.5 -2.125,0.875 -8.625,6.125 -9.75,9 -1.125,2.875 -0.875,6.625 -0.875,6.625 0,0 -3.125,-3.625 -9.25,-5.625 -6.125,-2 -10.75,-1.75 -12.75,-3.5 -2,-1.75 -1.875,-7.875 -1.125,-10.5 0.75,-2.625 1.625,-4.375 4.25,-4.125 1.81183,0.17256 5.5,3 10.375,4.125 4.875,1.125 11.42964,-0.20359 14,0.25 4.25,0.75 6.625,3.25 6.625,3.25"
         id="path2883"
         sodipodi:nodetypes="csccsccscccsssscssssssc"
         class="ZabaB"
         style="fill:none;stroke:#000000;stroke-width:1;stroke-linejoin:round" />
      <path
         d="m 322.245,940.61218 c 0,0 -7.375,-4.375 -10,-5 -2.625,-0.625 -6.125,-0.125 -10,-1.5 -3.875,-1.375 -8.75,-2 -8.75,-2 m -0.375,6.25 c 0,0 9.875,0.5 13.625,1 3.75,0.5 10.75,6.5 10.75,6.5"
         id="path2886"
         sodipodi:nodetypes="cssccsc"
         class="ZabaB"
         style="fill:none;stroke:#000000;stroke-width:1;stroke-linejoin:round" />
    </g>
    <g
       id="g2927"
       transform="translate(0,1960)">
      <path
         class="Zaba"
         sodipodi:nodetypes="csscscccsssscsccsssccssczzc"
         id="path2870"
         d="m 107.875,806.11218 c 0,0 -2.25,-1.6563 -4.4375,-2.9688 -2.1875,-1.3125 -4.3125,-2.2812 -5.0625,-2.9062 -1.548399,-1.29035 -1.125,-4.62502 -1.125,-4.62502 0,0 9.75,5.50002 10.25,6.50002 0.5,1 0.5,0.75 0.5,0.75 l 0.625,14.125 3.375,1.875 c 0,0 2.06835,-4.082 2.5,-7.375 0.22802,-1.7396 -0.125,-4.75 -0.75,-6.375 -0.63459,-1.65 -6.75,-6.25002 -9.25,-7.75002 -2.5,-1.5 -6.25,-4 -7.25,-4.75 -1,-0.75 -3.25,-3.75 -3.25,-3.75 0,0 -2.5,2.5 -3.25,4.75 -0.637377,1.91213 -0.75,6.25 -0.75,6.25 l -2.5,-1.25 c 0,0 -0.125,6.00002 0.75,8.25002 0.77947,2.0043 3.130505,4.0851 6.25,5.125 3,1 8.29218,2.23508 10.25,3.125 1.375,0.625 3.875,1.75 3.875,1.75 0,0 0.0625,-1.23437 0.0625,-1.23437 0,0 -3.8125,-4.70312 -5.9375,-6.01563 -1.90245,-1.17505 -6.25,-1.25 -7.75,-3.5 -1.5,-2.25 -1.75,-4.75 -1.75,-4.75 0,0 2,1.75 4.25,2.25 2.25,0.5 5.99706,1.9116 7.75,3 1.75294,1.0884 3,3.5 3,3.5"
         style="fill:#000000;stroke:#004000;stroke-width:1;stroke-linejoin:round" />
      <path
         d="m 176,814.24247 0,11.625 c 0,0 -0.22889,1.1329 -1.57322,1.5 -1.18352,0.32319 -2.40392,-0.61573 -2.41292,-1.67287 -0.01,-1.17471 0.51359,-1.63832 1.13129,-1.97618 C 173.77741,823.3726 175,823.15408 175,823.15408 l 0,-8.78661 -4,-3.7 0,10.7 c 0,0 -0.60355,1.78661 -1.92678,1.95581 -1.49304,0.1909 -2.32322,-0.70581 -2.32322,-1.83081 0,-1.125 0.53267,-1.71357 1.08081,-2.01386 C 168.59597,819.05941 170,818.8978 170,818.8978 l 0,-10.53033 6,5.875 z"
         id="path2877"
         sodipodi:nodetypes="ccsssccccsssccc"
         class="Zaba"
         style="fill:#000000;stroke:#004000;stroke-width:1;stroke-linejoin:round" />
    </g>
    <g
       id="g_datel"
       transform="translate(0,1680)">
      <path
         class="Zaba"
         sodipodi:nodetypes="ccccccscsscscssczcssccsssscscssccscssscccccccssssscssscsccssccssssscssssc"
         id="path3685"
         d="m 136.11806,836.52703 7.07106,5.48007 12.72793,-3.0052 -7.24785,-1.41421 -3.88909,-1.94455 -3.18198,1.41422 c 0,0 0.70711,-3.00521 0.53033,-4.5962 -0.17677,-1.59099 -0.53033,-4.06586 -0.53033,-4.06586 0,0 2.02443,-0.15893 3.36764,-1.49632 0.9116,-0.90766 1.38389,-2.35876 0.69823,-3.69087 -0.58339,-1.13342 -2.2981,-1.7071 -2.2981,-1.7071 0,0 0.68566,1.2071 -0.55178,2.79809 -1.23743,1.59099 -3.16053,1.44455 -3.16053,1.44455 0,0 0.91421,-1.41422 1.09099,-2.82843 0.17678,-1.41421 -0.35355,-2.5052 -1.44454,-3.0052 -1.44633,-0.66286 -3.00521,0 -3.00521,0 0,0 1.32899,1.0602 1.41422,1.94454 0.0852,0.88434 -1.23744,2.65165 -1.23744,2.65165 0,0 -2.73376,-3.26409 -7.65318,-3.35876 -4.45029,-0.0856 -7.17462,2.25889 -9.01561,4.03554 -2.22514,2.14738 -2.95342,6.92462 -2.95342,6.92462 l -2.82843,0.35355 c 0,0 -0.70711,-4.94975 -2.82843,-8.13173 -2.12132,-3.18198 -4.06586,-5.3033 -8.13173,-6.71751 -4.065861,-1.41421 -11.746665,-0.81131 -14.318909,-1.76777 -1.90165,-0.7071 -4.346194,-2.7981 -4.596194,-4.77297 -0.310815,-2.45528 0.883884,-6.89429 0.883884,-6.89429 0,0 -3.160534,0.83211 -5.147971,2.69454 -1.276942,1.19663 -2.099874,5.43719 -2.099874,5.43719 0,0 -2.566619,-1.29418 -3.108757,-4.12653 -0.443443,-2.31673 -0.40533,-4.26408 0.28033,-6.48007 0.565205,-1.82669 2.828427,-3.35876 2.828427,-3.35876 l -0.53033,7.24784 c 0,0 3.054852,-2.04465 3.889087,-4.06586 1.03033,-2.49632 1.59099,-6.01041 1.59099,-6.01041 0,0 -5.126524,1.59099 -8.308504,3.71231 -3.181981,2.12132 -5.208631,5.80851 -5.480078,8.6066 -0.22451,2.31427 0.579565,6.04771 1.414214,8.54074 0.712717,2.12883 2.65165,4.5962 2.65165,4.5962 l -3.483757,0.34467 1.362437,3.36764 -5.833631,-2.47488 1.414213,4.77297 -5.83363,-1.94454 -1.694544,1.5481 c 0,0 2.256561,7.22861 5.303301,10.04594 3.169188,2.93056 6.217514,5.08363 11.240485,7.14429 4.523536,1.85577 9.704951,1.60876 13.749369,1.34987 4.497734,-0.2879 8.044624,-2.94928 9.947592,-5.39429 1.37692,-1.76912 3.36024,-5.98159 2.81954,-9.92094 -0.51933,-3.78369 -6.730074,-9.36916 -6.730074,-9.36916 0,0 6.354904,1.47216 7.790734,3.71231 2.543,3.96753 2.32435,7.32088 1.76777,10.31738 -0.55985,3.01414 -2.37868,5.56253 -4.41942,7.89062 -2.558827,2.91913 -5.355075,4.50152 -5.355075,4.50152 0,0 9.184625,-0.19794 13.133255,-3.08731 3.58295,-2.6218 5.78185,-8.20495 5.78185,-8.20495 l 2.52665,-0.10355 c 0,0 1.8154,3.84614 4.4712,6.1354 1.3435,1.15808 3.94223,2.39322 6.20863,3.08731 2.27256,0.69599 6.41574,1.23744 6.41574,1.23744 l -0.30178,-1.59987 c 0,0 -4.76729,-0.5198 -7.42462,-1.78922 -2.41564,-1.15395 -4.8033,-2.87132 -6.01041,-4.94974 -1.46422,-2.52113 -1.34777,-6.55261 0.88388,-9.36917 2.55983,-3.23075 4.02195,-4.37788 7.89061,-4.52297 3.65055,-0.13691 6.37587,1.64924 7.84252,3.10876 2.45711,2.44454 1.71599,6.5104 1.71599,6.5104 0,0 -3.19168,-4.47237 -5.60508,-4.91941 -2.38392,-0.44159 -4.21751,-0.22856 -5.82107,1.49632 -1.70221,1.83098 -2.28269,4.26698 -1.17677,6.54074 0.85703,1.76203 3.45169,3.63757 6.07474,3.07842 2.93199,-0.625 4.63541,-2.98375 4.45864,-2.98375 z"
         style="fill:#000000;stroke:#004000;stroke-width:1;stroke-linejoin:round" />
      <path
         d="m 81.5,809.36855 c 0,0 0.25,2.875 1.75,4.625 1.5,1.75 4.75,3.25 4.75,3.25 0,0 -2.375,1.875 -5,0.875 -2.625,-1 -3.125,-3.25 -3,-4.875 0.125,-1.625 1.5,-3.5 1.5,-3.875 z"
         id="path3687"
         class="Dira"
         style="fill:#ffffff;stroke:#808080;stroke-width:1;stroke-linejoin:round" />
      <path
         d="m 86.75,820.85175 c 0,0 -3.25,2.375 -6.125,2.625 -2.875,0.25 -5.25,-1.875 -5.25,-1.875 0,0 -0.08597,2.54484 0.625,4.5 0.5,1.375 1.810213,2.91739 3.875,3.5 1.675622,0.4728 4.25,-0.25 4.25,-0.25 l -4.25,-2.25 c 0,0 2.75,-0.375 4.5,-1.5 1.75,-1.125 2.75,-4.5 2.375,-4.75 z"
         id="path3693"
         sodipodi:nodetypes="cscssccsc"
         class="Dira"
         style="fill:#ffffff;stroke:#808080;stroke-width:1;stroke-linejoin:round" />
      <path
         d="m 86.375,833.61562 c 0,0 -4.25,0.5 -7.25,-0.25 -3,-0.75 -4.25,-2.875 -4.25,-2.875 l 1.75,-1.125 -2.625,-2.25 -1.125,1.75 -2.875,0.375 c 0,0 1.625,3.625 4.875,5.125 3.25,1.5 4.875,1.625 7.75,1.375 2.875,-0.25 4,-1.875 3.75,-2.125 z"
         id="path3691"
         sodipodi:nodetypes="cscccccssc"
         class="Dira"
         style="fill:#ffffff;stroke:#808080;stroke-width:1;stroke-linejoin:round" />
      <path
         d="m 97.5,828.36973 c 0,0 -1.286342,5.86362 -5.625,9.875 -2.867368,2.65108 -8.875,3.75 -14.25,3.25 -4.384549,-0.40786 -7.25,-3.125 -9.375,-5.125 -2.125,-2 -4.125,-6.125 -4.125,-6.125 l 3.5,0.125 c 0,0 2.71399,3.65158 5.5,5.625 3,2.125 7.75,2.875 11.75,2.125 2.385491,-0.44728 5.301823,-2.18653 7.625,-4.875 2.137249,-2.4733 3.375,-5.5 3.375,-5.5 l 1.625,0.625 z"
         id="path3689"
         sodipodi:nodetypes="csssccssscc"
         class="Dira"
         style="fill:#ffffff;stroke:#808080;stroke-width:1;stroke-linejoin:round" />
      <path
         d="m 134.75,832.11718 c 0,0 -1.10614,-2.39971 -4.25,-2.25 -2.625,0.125 -3.875,2.625 -3.75,4.125 0.125,1.5 1.5,3.25 1.5,3.25 0,0 0.93586,-2.56086 2.125,-3.75 1.125,-1.125 4.5,-1 4.375,-1.375 z"
         id="path3695"
         sodipodi:nodetypes="csscsc"
         class="Dira"
         style="fill:#ffffff;stroke:#808080;stroke-width:1;stroke-linejoin:round" />
      <path
         d="m 130.125,837.36592 c 0,0 1.5,0.375 2.875,-0.5 1.375,-0.875 1.75,-3 1.75,-3 0,0 -1.5,-0.125 -2.875,0.75 -1.375,0.875 -2.125,2.875 -1.75,2.75 z"
         id="path3697"
         class="Dira"
         sodipodi:nodetypes="cscsc"
         style="fill:#ffffff;stroke:#808080;stroke-width:1;stroke-linejoin:round" />
    </g>
    <g
       id="g2921"
       transform="translate(0,2240)">
      <path
         class="Zaba"
         sodipodi:nodetypes="ccccc"
         id="path2865"
         d="m 137,841.11218 -0.5,7.25 9,9 -1,-10 -7.5,-6.25 z"
         style="fill:#000000;stroke:#004000;stroke-width:1;stroke-linejoin:round" />
      <path
         class="ZabaB"
         sodipodi:nodetypes="cccc"
         id="path2867"
         d="m 166.25,852.61218 -5.75,-5.25 m -2.25,4 5.75,5.25"
         style="fill:none;stroke:#000000;stroke-width:1;stroke-linejoin:round" />
      <path
         class="Zaba"
         sodipodi:nodetypes="ccsssccccsssccc"
         id="path2872"
         d="m 180,856.24247 0,7.625 c 0,0 -0.22889,1.1329 -1.57322,1.5 -1.18352,0.32319 -2.40392,-0.61573 -2.41292,-1.67287 -0.01,-1.17471 0.51359,-1.63832 1.13129,-1.97618 C 177.77741,861.3726 179,861.15408 179,861.15408 l 0,-4.78661 -4,-3.7 0,4.7 c 0,0 -0.60355,1.78661 -1.92678,1.95581 -1.49304,0.1909 -2.32322,-0.70581 -2.32322,-1.83081 0,-1.125 0.53267,-1.71357 1.08081,-2.01386 C 172.59597,855.05941 174,854.8978 174,854.8978 l 0,-4.53033 6,5.875 z"
         style="fill:#000000;stroke:#004000;stroke-width:1;stroke-linejoin:round" />
      <path
         class="Zaba"
         sodipodi:nodetypes="cscsssc"
         id="path2881"
         d="m 87.375,849.2409 c 0,0 -8,-0.0107 -14.5,-2.875 -8.552132,-3.77066 -11.125,-8.375 -11.125,-8.375 0,0 -1.345895,5.11156 -0.625,7.875 0.75,2.875 2.827759,4.74503 5.875,5.875 3.180631,1.17943 8.0059,1.926 11.5,1.5 4.754958,-0.58089 9,-3.625 8.875,-4 z"
         style="fill:#000000;stroke:#004000;stroke-width:1;stroke-linejoin:round" />
    </g>
  </g>
</svg>
