<?xml version="1.0" encoding="UTF-8" standalone="no"?>
<!-- Created with Inkscape (http://www.inkscape.org/) -->

<svg
   xmlns:dc="http://purl.org/dc/elements/1.1/"
   xmlns:cc="http://creativecommons.org/ns#"
   xmlns:rdf="http://www.w3.org/1999/02/22-rdf-syntax-ns#"
   xmlns:svg="http://www.w3.org/2000/svg"
   xmlns="http://www.w3.org/2000/svg"
   xmlns:xlink="http://www.w3.org/1999/xlink"
   xmlns:sodipodi="http://sodipodi.sourceforge.net/DTD/sodipodi-0.dtd"
   xmlns:inkscape="http://www.inkscape.org/namespaces/inkscape"
   width="430"
   height="285"
   id="svg2"
   version="1.1"
   inkscape:version="0.47 r22583"
   sodipodi:docname="nu_p_chi.svg"
   inkscape:export-filename="C:\Documents and Settings\Игорь\Рабочий стол\chi.png"
   inkscape:export-xdpi="67.5"
   inkscape:export-ydpi="67.5">
  <defs
     id="defs4">
    <inkscape:perspective
       sodipodi:type="inkscape:persp3d"
       inkscape:vp_x="0 : 526.18109 : 1"
       inkscape:vp_y="0 : 1000 : 0"
       inkscape:vp_z="744.09448 : 526.18109 : 1"
       inkscape:persp3d-origin="372.04724 : 350.78739 : 1"
       id="perspective10" />
    <inkscape:perspective
       id="perspective2824"
       inkscape:persp3d-origin="0.5 : 0.33333333 : 1"
       inkscape:vp_z="1 : 0.5 : 1"
       inkscape:vp_y="0 : 1000 : 0"
       inkscape:vp_x="0 : 0.5 : 1"
       sodipodi:type="inkscape:persp3d" />
    <inkscape:perspective
       id="perspective2838"
       inkscape:persp3d-origin="0.5 : 0.33333333 : 1"
       inkscape:vp_z="1 : 0.5 : 1"
       inkscape:vp_y="0 : 1000 : 0"
       inkscape:vp_x="0 : 0.5 : 1"
       sodipodi:type="inkscape:persp3d" />
    <inkscape:perspective
       id="perspective2852"
       inkscape:persp3d-origin="0.5 : 0.33333333 : 1"
       inkscape:vp_z="1 : 0.5 : 1"
       inkscape:vp_y="0 : 1000 : 0"
       inkscape:vp_x="0 : 0.5 : 1"
       sodipodi:type="inkscape:persp3d" />
    <inkscape:perspective
       id="perspective2866"
       inkscape:persp3d-origin="0.5 : 0.33333333 : 1"
       inkscape:vp_z="1 : 0.5 : 1"
       inkscape:vp_y="0 : 1000 : 0"
       inkscape:vp_x="0 : 0.5 : 1"
       sodipodi:type="inkscape:persp3d" />
  </defs>
  <sodipodi:namedview
     id="base"
     pagecolor="#ffffff"
     bordercolor="#666666"
     borderopacity="1.0"
     inkscape:pageopacity="0.0"
     inkscape:pageshadow="2"
     inkscape:zoom="0.20796703"
     inkscape:cx="212.5"
     inkscape:cy="-1345.1618"
     inkscape:document-units="px"
     inkscape:current-layer="layer1"
     showgrid="false"
     inkscape:window-width="1680"
     inkscape:window-height="1001"
     inkscape:window-x="-4"
     inkscape:window-y="-4"
     inkscape:window-maximized="1" />
  <style
     type="text/css"
     id="style4">      .Egg { fill:#800000; stroke:#804040; stroke-width:1;stroke-linejoin:round }
      .Chi { fill:#000000; stroke:#808000; stroke-width:1;stroke-linejoin:round }
</style>
  <metadata
     id="metadata7">
    <rdf:RDF>
      <cc:Work
         rdf:about="">
        <dc:format>image/svg+xml</dc:format>
        <dc:type
           rdf:resource="http://purl.org/dc/dcmitype/StillImage" />
        <dc:title></dc:title>
      </cc:Work>
    </rdf:RDF>
  </metadata>
  <g
     inkscape:label="Layer 1"
     inkscape:groupmode="layer"
     id="layer1"
     transform="translate(0,-767.36218)">
    <rect
       style="fill:#ffffff;fill-opacity:1;fill-rule:nonzero;stroke:none"
       id="rect_fon"
       width="420"
       height="3640"
       x="2.5"
       y="2.5"
       transform="translate(0,767.36218)"
       ry="0"
       inkscape:export-xdpi="90"
       inkscape:export-ydpi="90" />
    <g
       id="g3077"
       transform="translate(0,1120)">
      <path
         class="Chi"
         sodipodi:nodetypes="cscscccsscscsccccccsccccccc"
         id="path2896"
         d="m 21.5125,1018.7607 c 0,0 -1.0625,0 -2.0625,-3 -1,-3 -0.4375,-6.5 -0.4375,-6.5 0,0 -2.0625,0.3125 -3.9375,-1.1875 -1.04446,-0.8355 -1.75,-2.875 -1.75,-2.875 l -2.1875,-0.8125 2.3125,-0.625 c 0,0 1.125,-3.0625 2.8125,-3.6875 1.89009,-0.70001 4.05111,-0.40488 5.625,1.5625 1.5,1.875 0.3125,6.4375 0.3125,6.4375 0,0 0.375,1.375 1.625,1.375 1.875,0 3.9375,-3.8125 3.9375,-3.8125 0,0 2.53386,1.3347 3.75,4.375 1.375,3.4375 0.1875,7.4375 0.1875,7.4375 l 1.5625,1.3125 1.375,0.625 -3.5625,1.6875 0.8125,-1.625 -1.875,-0.9375 c 0,0 -1.375,0.5625 -3.5625,0.5625 -2.1875,0 -3.1875,0.125 -3.1875,0.125 l -1.125,2.1875 0.0625,1.75 -1.3125,-1.4375 -2.4375,-1 2.3125,-0.5625 0.75,-1.375 z"
         style="fill:#000000;stroke:#808000;stroke-width:1;stroke-linejoin:round" />
    </g>
    <g
       id="g3074"
       transform="translate(0,840)">
      <path
         class="Chi"
         sodipodi:nodetypes="ccssssscsccccccsccccccscscc"
         id="path2898"
         d="m 36.65711,1003.9848 2.60539,-1.0366 c 0,0 1.30806,-2.95893 4.125,-3.24998 2.36324,-0.24418 3.54447,0.85208 4.3125,2.31248 0.6105,1.1609 0.89167,2.5973 0.4375,4.5625 -0.44724,1.9353 -1.5,3.25 -0.8125,3.75 0.6875,0.5 2.75,0.5625 3.3125,0.125 0.5625,-0.4375 2.5,-2.875 2.5,-2.875 0,0 2.11108,2.2074 2.8125,4.75 1,3.625 -1.9375,6.375 -1.9375,6.375 l 0.1875,1.8125 0.6875,1 -2.25,2.3125 0.1875,-1.875 -0.875,-2.25 c 0,0 -1.375,0.75 -2.8125,0.625 -1.87313,-0.1629 -3.9375,-1.0625 -3.9375,-1.0625 l -2.4375,1.0625 -0.9375,1.3125 -2.375,-2.5 2.375,0 2.25,-1.375 c 0,0 -0.0625,-1.4008 -0.0625,-2.75 0,-1.5625 -1.75,-4.375 -1.75,-4.375 0,0 -1.5,-2.1875 -2,-2.9375 -0.66235,-0.9935 -0.8125,-2.8125 -0.8125,-2.8125 l -2.79289,-0.9009 z"
         style="fill:#000000;stroke:#808000;stroke-width:1;stroke-linejoin:round" />
    </g>
    <g
       id="g3071"
       transform="translate(0,560)">
      <path
         class="Chi"
         sodipodi:nodetypes="cscscccccccccccsssssccsscc"
         id="path2897"
         d="m 64.96889,1010.7121 c 0,0 1.67938,-0.2652 2.82843,-1.2374 1.14905,-0.9723 1.32582,-3.0052 1.32582,-3.0052 0,0 3.09359,0.7955 3.71231,3.0052 0.61872,2.2097 -0.88388,6.5407 -0.88388,6.5407 l 1.41421,1.5026 1.14905,1.1491 -1.85615,1.7677 -0.26517,-1.6793 -1.67938,-0.6188 -4.5078,3.5356 -0.0884,2.1213 -2.65165,0.1768 0.88388,-1.0607 0.0884,-1.591 c 0,0 -2.03293,-0.4419 -3.53553,-2.2097 -1.50261,-1.7678 -1.76777,-3.9775 -1.32583,-6.0104 0.44194,-2.0329 1.32583,-4.8614 0.17678,-6.8943 -1.14905,-2.0329 -1.55762,-4.3015 -10e-6,-6.0988 1.14905,-1.32582 3.71231,-1.76776 5.3917,-0.97227 0.55952,0.26503 3.32791,0.27046 3.32791,0.27046 0,0 -1.32124,1.71801 -1.16281,2.22631 0.31687,1.0165 -0.0581,2.3552 -0.57411,3.1601 -0.73736,1.1502 -1.85616,1.3258 -1.85616,2.2981 0,0.9723 0,3.0936 -0.0884,3.182 l 0.17679,0.4419 z"
         style="fill:#000000;stroke:#808000;stroke-width:1;stroke-linejoin:round" />
    </g>
    <g
       id="g3067"
       transform="translate(0,280)">
      <path
         style="fill:#000000;stroke:#808000;stroke-width:1;stroke-linejoin:round"
         sodipodi:nodetypes="csssscscssscccsccccccccccszcssc"
         class="Chi"
         id="path2986"
         d="m 77.16648,988.34985 c 0,0 0.70711,-1.59099 -0.53033,-2.65165 -1.4518,-1.2444 -4.41942,-1.14905 -5.3033,-3.18198 -0.88389,-2.03293 -0.36359,-5.00085 1.59099,-6.27557 2.03293,-1.32582 5.56847,-0.70711 6.54074,0.70711 0.97228,1.41421 1.85615,7.15945 1.85615,7.15945 0,0 2.31749,-2.24388 4.24265,-2.38648 2.38648,-0.17678 4.59619,3.35876 4.59619,3.35876 0,0 -3.09359,-0.53033 -4.68458,0.44194 -1.59099,0.97227 -2.2981,2.29809 -2.03294,3.44714 0.26517,1.14905 1.32583,2.2981 2.47488,1.85616 1.14905,-0.44194 2.91681,-3.18198 2.91681,-3.18198 l 0.70711,2.20971 -2.2981,2.29809 c 0,0 -0.17679,1.5026 0.61872,2.38649 0.79549,0.88388 3.09359,1.23744 3.09359,1.23744 l -1.5026,4.15425 -1.06066,-2.03293 -1.67938,-0.88388 -4.86136,1.06065 -2.03293,1.94453 -0.35355,2.3865 -3.18198,-2.56326 1.94454,-0.53033 1.41421,-1.94454 c 0,0 0.26753,-1.67422 -1.41421,-3.18198 -2.56326,-2.2981 -4.15425,-2.12133 -4.15425,-2.12133 l -6.0988,-0.7071 c 0,0 1.33248,-3.26978 4.24265,-3.00521 1.94454,0.17678 1.68135,0.9932 2.82842,1.06067 1.5026,0.0884 2.03293,-0.97228 2.12132,-1.06067 z" />
      <path
         style="fill:#000000;stroke:#808000;stroke-width:1;stroke-linejoin:round"
         sodipodi:nodetypes="cccc"
         class="Chi"
         id="path2988"
         d="m 93.51833,1006.5579 -3.00521,-3.5356 m 4.68458,-2.3865 3.62393,4.2427" />
    </g>
    <path
       style="fill:#000000;stroke:#808000;stroke-width:1;stroke-linejoin:round"
       d="m 109.42823,1041.5596 0.70711,-7.071 6.54073,2.1213 -3.53553,-5.6569 5.48008,-1.9445 -6.71752,-3.0052 1.06066,-9.0156 -3.53553,3.8891 -1.59099,-7.0711 -2.65165,7.0711 -5.83363,-4.5962 3.88908,8.3085 -6.0104,3.8891 6.54073,2.1213 -3.35875,7.9549 5.48007,-3.0052 3.53554,6.0104 z"
       id="path2904"
       class="Chi" />
    <path
       style="fill:#000000;stroke:#808000;stroke-width:1;stroke-linejoin:round"
       d="m 306.00391,1037.5822 3.35876,5.8336 1.23744,-8.7504 5.56846,0.2651 -5.03813,-5.8336 3.53553,-10.8718 -5.21491,5.3033 -2.20971,-6.0104 -2.56326,6.0104 -8.22012,-5.8336 5.21492,10.7834 -4.41942,5.1265 4.77297,2.4749 1.76777,4.7729 2.2097,-3.2703 z"
       id="path2911"
       class="Chi"
       transform="translate(0,1400)" />
    <g
       id="g3083"
       transform="translate(0,1680)">
      <path
         style="fill:#000000;stroke:#808000;stroke-width:1;stroke-linejoin:round"
         class="Chi"
         id="path2913"
         d="m 325.27257,1007.5301 3.44715,-2.5632" />
      <path
         style="fill:#000000;stroke:#808000;stroke-width:1;stroke-linejoin:round"
         class="Chi"
         id="path2915"
         d="m 329.33844,1009.2979 3.18198,-2.3865" />
      <path
         style="fill:#000000;stroke:#808000;stroke-width:1;stroke-linejoin:round"
         sodipodi:nodetypes="cscscccccscccccccszcscssssc"
         class="Chi"
         id="path2936"
         d="m 349.45,992.13572 c 0,0 3.125,0.375 4.25,2.625 1.125,2.25 -0.625,5.49998 -0.625,5.49998 0,0 -2.875,-5.37498 -5.625,-3.87498 -2.37397,1.29489 -0.75,4.74998 -0.75,4.74998 l 1.375,2.5 -5.375,0.5 1.5,-1.875 -0.875,-2.37498 c 0,0 -1.625,0.99998 -3.75,0.24998 -2.125,-0.74998 -3.5,-1.62498 -3.5,-1.62498 l -2.125,0.875 -1,2.24998 -1.625,-5.37498 1.75,0.875 1.875,-0.625 -0.125,-6.25 c 0,0 1.62931,1.06286 3.875,1.25 1.5,0.125 2.58477,-1.09267 2,-3 -0.58477,-1.90733 -4.625,-2.875 -4.625,-2.875 0,0 2.23289,-1.94066 4.625,-0.625 2.5,1.375 2.375,2.75 2.375,2.75 0,0 1.25,1.25 2.375,-0.125 1.125,-1.375 -0.64494,-4.78162 0.75,-6.875 1.50208,-2.25416 4.76709,-2.82618 7.5,-1.25 2.31674,1.33616 2.8062,6.93205 0.125,8.25 -3.57092,1.75529 -4.5,4.5 -4.375,4.375 z" />
    </g>
    <path
       style="fill:#000000;stroke:#808000;stroke-width:1;stroke-linejoin:round"
       d="m 358.45,1012.1357 c 0,0 1.5,3.375 2.75,2.75 1.25,-0.625 2.375,-1.5 2.125,-2.5 -0.39528,-1.5811 -2.25,-2.5 -2.5,-4.25 -0.32259,-2.2581 0.0202,-4.6055 2.625,-5.75 1.55658,-0.6839 4.26669,-0.5143 5.125,0.5 1.375,1.625 1.64048,3.5579 1.25,5.25 -0.375,1.625 -2.625,2.75 -2.625,4.375 0,2.125 1.25,2.125 1.375,3.5 0.125,1.375 -0.25,3.125 -0.25,3.125 l 4.125,0.125 -3.125,4.125 -0.75,-2 -2.25,-0.25 -2.625,2 -0.75,1.75 1.25,1.75 -5,0 1.25,-1.875 0,-1.75 -3.125,-3.625 -3,-1.625 4.125,-5.625 z"
       id="path3016"
       class="Chi"
       sodipodi:nodetypes="csssssssscccccccccccccc"
       transform="translate(0,1960)" />
    <path
       style="fill:#000000;stroke:#808000;stroke-width:1;stroke-linejoin:round"
       d="m 385.575,1024.2607 c 0,0 2.10913,-0.4197 3.125,-3.375 1.375,-4 -1,-6 -0.625,-7.25 0.375,-1.25 2.625,-3.75 2.625,-5.625 0,-1.875 -0.875,-4.5 -3.625,-4.875 -2.75,-0.375 -4.8953,0.6343 -5.75,3.25 -1.01613,3.1098 2.875,6.5 2.875,6.5 0,0 -0.25,1.875 -2,1.625 -1.75,-0.25 -3.25,-3.5 -3.25,-3.5 l -3.375,4.5 2.75,3.625 -2,1.25 -2.5,0.625 3.25,3.75 0.25,-2.5 2.625,-0.375 2.875,2 0.5,2.125 -0.625,1.5 4.5,0.375 -1.75,-1.75 0.125,-1.875 z"
       id="path3018"
       class="Chi"
       sodipodi:nodetypes="cssssscscccccccccccccc"
       transform="translate(0,2240)" />
    <path
       style="fill:#000000;stroke:#808000;stroke-width:1;stroke-linejoin:round"
       d="m 399.67097,1028.8857 3.58081,2.0291 -0.30178,-2.1541 1.125,-2 c 0,0 1.71339,0.2639 2.875,-0.5 0.3125,-0.3125 1.54389,1.63 1.54389,1.63 0,0 0.33927,1.5249 0.33927,1.5249 0,0 2.72576,-1.5245 2.72576,-1.5245 0,0 -1.77937,-0.7898 -1.77937,-0.7898 0,0 -1.28268,-1.9812 -1.28268,-1.9812 0,0 0.70313,-1.9844 0.70313,-1.9844 0,0 1.28661,-0.067 2.53661,-1.1919 1.25,-1.125 1.06564,-3.4773 1.06564,-3.4773 0,0 -1.72725,1.0442 -3.10225,0.7942 -1.375,-0.25 -2.77649,-0.5003 -2.75,-1.625 0.0442,-1.8763 1.99493,-3.4713 2.58709,-5.0303 0.68436,-1.8018 0.87928,-4.2952 -0.65403,-6.5871 -1.15298,-1.7234 -4.9987,-1.8232 -6.55806,-0.5076 -0.78347,0.661 -1.39363,1.5121 -1.7841,2.3973 -0.85814,0.3321 -1.96743,0.8424 -1.96743,0.8424 0,0 0.81305,0.7426 1.54572,1.2742 0.26192,2.1157 3.15403,3.6313 3.58081,6.1111 0.23703,1.3773 -0.125,2.375 -0.125,2.375 -1.47616,-0.014 -3.41319,-2.7579 -4.67678,-1.1237 l 0.92678,2.6237 c -2.58996,-0.6424 -2.44392,1.4496 -0.25,2.875 1.125,0.75 2.48614,2.6629 2.48614,2.6629 l -0.86114,2.2121 -1.52903,1.125 z"
       id="path3005"
       sodipodi:nodetypes="cccccccccccscssssscccsccccccc"
       class="Chi"
       transform="translate(0,2520)" />
    <g
       id="g3021"
       transform="translate(64,2800)">
      <path
         class="Chi"
         sodipodi:nodetypes="csccsccsscsssssssssscsc"
         id="path3013"
         d="m 247.825,861.51072 c 0,0 4.75,5.375 1.5,8.625 -3.25,3.25 -9.625,-2 -9.625,-2 l -3.625,0 c 0,0 -3.875,4.125 -6.625,2.625 -2.75,-1.5 -0.375,-7.625 -0.375,-7.625 l 2.625,1.375 c 0,0 2.375,-2.125 2.25,-3.5 -0.125,-1.375 -0.64364,-3.21915 -2.75,-3.5 -1.875,-0.25 -5.625,0 -5.625,0 0,0 3.125,-3.75 4.875,-3.75 2.99164,0 3.37503,2.125 4.875,2.125 1.5,0 2.75,-1.25 2,-2.375 -0.75,-1.125 -1.75,-3.875 -0.625,-6 1.33369,-2.51918 2.98223,-2.875 4.75,-2.875 2.125,0 3.95407,1.02373 4.875,2.875 0.9423,1.89422 -0.25,5 -1.5,5.875 -1.10292,0.77205 -3.375,2.75 -2.625,3.625 0.75,0.875 1.5,1 2.375,0.375 0.875,-0.625 2.25,-2.75 3.875,-2.75 3,0 4.875,4.125 4.875,4.125 0,0 -0.84558,0.375 -3.25,0.375 -2.125,0 -2.125,2.375 -2.25,2.375 z"
         style="fill:#000000;stroke:#808000;stroke-width:1;stroke-linejoin:round" />
      <path
         d="m 236.075,868.13572 c 0,0 -3.875,4.125 -6.625,2.625 -2.75,-1.5 -0.375,-7.625 -0.375,-7.625 l 2.625,1.375 4.375,3.625 z"
         id="path3019"
         sodipodi:nodetypes="csccc"
         class="Egg"
         style="fill:#800000;stroke:#804040;stroke-width:1;stroke-linejoin:round" />
      <path
         d="m 247.825,861.51072 c 0,0 4.75,5.375 1.5,8.625 -3.25,3.25 -9.625,-2 -9.625,-2 3.84511,-3.29877 4.99712,-4.14937 8.125,-6.625 z"
         id="path3017"
         sodipodi:nodetypes="cscc"
         class="Egg"
         style="fill:#800000;stroke:#804040;stroke-width:1;stroke-linejoin:round" />
    </g>
    <use
       x="0"
       y="0"
       xlink:href="#g3021"
       id="use3046"
       transform="translate(-32,280)"
       width="430"
       height="285" />
    <use
       x="0"
       y="0"
       xlink:href="#g3021"
       id="use3048"
       transform="translate(-64,560)"
       width="430"
       height="285" />
  </g>
</svg>
