<?xml version="1.0" encoding="UTF-8" standalone="no"?>
<!-- Created with Inkscape (http://www.inkscape.org/) -->

<svg
   xmlns:dc="http://purl.org/dc/elements/1.1/"
   xmlns:cc="http://creativecommons.org/ns#"
   xmlns:rdf="http://www.w3.org/1999/02/22-rdf-syntax-ns#"
   xmlns:svg="http://www.w3.org/2000/svg"
   xmlns="http://www.w3.org/2000/svg"
   xmlns:sodipodi="http://sodipodi.sourceforge.net/DTD/sodipodi-0.dtd"
   xmlns:inkscape="http://www.inkscape.org/namespaces/inkscape"
   width="430"
   height="285"
   id="svg2"
   version="1.1"
   inkscape:version="0.47 r22583"
   sodipodi:docname="nu_p_egs.svg"
   inkscape:export-filename="C:\Documents and Settings\Игорь\Рабочий стол\eggs.png"
   inkscape:export-xdpi="67.5"
   inkscape:export-ydpi="67.5">
  <defs
     id="defs4">
    <inkscape:perspective
       sodipodi:type="inkscape:persp3d"
       inkscape:vp_x="0 : 526.18109 : 1"
       inkscape:vp_y="0 : 1000 : 0"
       inkscape:vp_z="744.09448 : 526.18109 : 1"
       inkscape:persp3d-origin="372.04724 : 350.78739 : 1"
       id="perspective10" />
    <inkscape:perspective
       id="perspective2824"
       inkscape:persp3d-origin="0.5 : 0.33333333 : 1"
       inkscape:vp_z="1 : 0.5 : 1"
       inkscape:vp_y="0 : 1000 : 0"
       inkscape:vp_x="0 : 0.5 : 1"
       sodipodi:type="inkscape:persp3d" />
    <inkscape:perspective
       id="perspective2838"
       inkscape:persp3d-origin="0.5 : 0.33333333 : 1"
       inkscape:vp_z="1 : 0.5 : 1"
       inkscape:vp_y="0 : 1000 : 0"
       inkscape:vp_x="0 : 0.5 : 1"
       sodipodi:type="inkscape:persp3d" />
    <inkscape:perspective
       id="perspective2852"
       inkscape:persp3d-origin="0.5 : 0.33333333 : 1"
       inkscape:vp_z="1 : 0.5 : 1"
       inkscape:vp_y="0 : 1000 : 0"
       inkscape:vp_x="0 : 0.5 : 1"
       sodipodi:type="inkscape:persp3d" />
    <inkscape:perspective
       id="perspective2866"
       inkscape:persp3d-origin="0.5 : 0.33333333 : 1"
       inkscape:vp_z="1 : 0.5 : 1"
       inkscape:vp_y="0 : 1000 : 0"
       inkscape:vp_x="0 : 0.5 : 1"
       sodipodi:type="inkscape:persp3d" />
  </defs>
  <sodipodi:namedview
     id="base"
     pagecolor="#ffffff"
     bordercolor="#666666"
     borderopacity="1.0"
     inkscape:pageopacity="0.0"
     inkscape:pageshadow="2"
     inkscape:zoom="1"
     inkscape:cx="134.78777"
     inkscape:cy="51.64846"
     inkscape:document-units="px"
     inkscape:current-layer="layer1"
     showgrid="false"
     inkscape:window-width="1680"
     inkscape:window-height="1001"
     inkscape:window-x="-4"
     inkscape:window-y="-4"
     inkscape:window-maximized="1" />
  <style
     type="text/css"
     id="style4">      .Egg { fill:#d08080; stroke:#000000; stroke-width:1;stroke-linejoin:round }</style>
  <metadata
     id="metadata7">
    <rdf:RDF>
      <cc:Work
         rdf:about="">
        <dc:format>image/svg+xml</dc:format>
        <dc:type
           rdf:resource="http://purl.org/dc/dcmitype/StillImage" />
        <dc:title></dc:title>
      </cc:Work>
    </rdf:RDF>
  </metadata>
  <g
     inkscape:label="Layer 1"
     inkscape:groupmode="layer"
     id="layer1"
     transform="translate(0,-767.36218)">
    <rect
       style="fill:#ffffff;fill-opacity:1;fill-rule:nonzero;stroke:none"
       id="rect_fon"
       width="420"
       height="6160"
       x="2.5"
       y="2.5"
       transform="translate(0,767.36218)"
       ry="0"
       inkscape:export-xdpi="90"
       inkscape:export-ydpi="90" />
    <path
       class="Egg"
       sodipodi:nodetypes="czzzz"
       id="path_eg_lu_1"
       d="m 45.34669,855.45758 c 1.5026,1.41421 0.27296,5.5701 -1.85616,8.66206 -2.12912,3.09195 -6.75903,4.73145 -9.54594,1.94454 -2.7869,-2.78691 -0.79568,-7.53735 2.47487,-9.45756 3.27056,-1.9202 7.42463,-2.56325 8.92723,-1.14904 z"
       style="fill:#d08080;stroke:#000000;stroke-width:1;stroke-linejoin:round" />
    <g
       id="g3038"
       transform="translate(0,280)">
      <path
         class="Egg"
         sodipodi:nodetypes="czzzz"
         id="path_eg_lu_2"
         d="m 53.8214,877.12851 c 2.20971,0.17678 5.30494,-4.32323 5.30331,-7.95496 -0.002,-3.63172 -1.63821,-7.11228 -5.03814,-7.07106 -3.40002,0.0412 -5.32765,3.71212 -5.30331,6.89429 0.025,3.27054 2.82844,7.95496 5.03814,8.13173 z"
         style="fill:#d08080;stroke:#000000;stroke-width:1;stroke-linejoin:round" />
    </g>
    <g
       id="g3041"
       transform="translate(0,560)">
      <path
         class="Egg"
         sodipodi:nodetypes="czzzz"
         id="path_eg_lu_3"
         d="m 63.07206,876.22884 c -1.5026,1.41421 -0.27296,5.5701 1.85616,8.66206 2.12912,3.09195 6.75903,4.73145 9.54594,1.94454 2.7869,-2.78691 0.79568,-7.53735 -2.47487,-9.45756 -3.27056,-1.9202 -7.42463,-2.56325 -8.92723,-1.14904 z"
         style="fill:#d08080;stroke:#000000;stroke-width:1;stroke-linejoin:round" />
    </g>
    <g
       id="g3044"
       transform="translate(0,840)">
      <path
         class="Egg"
         sodipodi:nodetypes="czzzz"
         id="path_eg_lu_4"
         d="m 90.42475,884.71412 c 1.5026,1.41421 0.27296,5.5701 -1.85616,8.66206 -2.12912,3.09195 -6.75903,4.73145 -9.54594,1.94454 -2.7869,-2.78691 -0.79568,-7.53735 2.47487,-9.45756 3.27056,-1.9202 7.42463,-2.56325 8.92723,-1.14904 z"
         style="fill:#d08080;stroke:#000000;stroke-width:1;stroke-linejoin:round" />
    </g>
    <g
       id="g3047"
       transform="translate(0,1120)">
      <path
         d="m 103.85977,908.09323 c 1.5026,-1.41421 0.27296,-5.5701 -1.85616,-8.66206 -2.12912,-3.09195 -6.75903,-4.73145 -9.54594,-1.94454 -2.7869,2.78691 -0.79568,7.53735 2.47487,9.45756 3.27056,1.9202 7.42463,2.56325 8.92723,1.14904 z"
         id="path_eg_lu_5"
         sodipodi:nodetypes="czzzz"
         class="Egg"
         style="fill:#d08080;stroke:#000000;stroke-width:1;stroke-linejoin:round" />
    </g>
    <g
       id="g3050"
       transform="translate(0,1400)">
      <path
         class="Egg"
         sodipodi:nodetypes="czzzz"
         id="path_eg_ld_1"
         d="m 43.6673,934.60974 c 1.5026,-1.41421 0.27296,-5.5701 -1.85616,-8.66206 -2.12912,-3.09195 -6.75903,-4.73145 -9.54594,-1.94454 -2.7869,2.78691 -0.79568,7.53735 2.47487,9.45756 3.27056,1.9202 7.42463,2.56325 8.92723,1.14904 z"
         style="fill:#d08080;stroke:#000000;stroke-width:1;stroke-linejoin:round" />
    </g>
    <g
       id="g3053"
       transform="translate(0,1680)">
      <path
         d="m 48.04603,940.17821 c -1.5026,-1.41421 -0.27296,-5.5701 1.85616,-8.66206 2.12912,-3.09195 6.75903,-4.73145 9.54594,-1.94454 2.7869,2.78691 0.79568,7.53735 -2.47487,9.45756 -3.27056,1.9202 -7.42463,2.56325 -8.92723,1.14904 z"
         id="path_eg_ld_2"
         sodipodi:nodetypes="czzzz"
         class="Egg"
         style="fill:#d08080;stroke:#000000;stroke-width:1;stroke-linejoin:round" />
    </g>
    <g
       id="g3056"
       transform="translate(0,1960)">
      <path
         d="m 75.07635,946.57533 c 0.17678,-2.20971 -4.32323,-5.30494 -7.95496,-5.30331 -3.63172,0.002 -7.11228,1.63821 -7.07106,5.03814 0.0412,3.40002 3.71212,5.32765 6.89429,5.30331 3.27054,-0.025 7.95496,-2.82844 8.13173,-5.03814 z"
         id="path_eg_ld_3"
         sodipodi:nodetypes="czzzz"
         class="Egg"
         style="fill:#d08080;stroke:#000000;stroke-width:1;stroke-linejoin:round" />
    </g>
    <g
       id="g3059"
       transform="translate(0,2240)">
      <path
         d="m 78.54003,951.53571 c -1.5026,1.41421 -0.27296,5.5701 1.85616,8.66206 2.12912,3.09195 6.75903,4.73145 9.54594,1.94454 2.7869,-2.78691 0.79568,-7.53735 -2.47487,-9.45756 -3.27056,-1.9202 -7.42463,-2.56325 -8.92723,-1.14904 z"
         id="path_eg_ld_4"
         sodipodi:nodetypes="czzzz"
         class="Egg"
         style="fill:#d08080;stroke:#000000;stroke-width:1;stroke-linejoin:round" />
    </g>
    <g
       id="g3062"
       transform="translate(0,2520)">
      <path
         class="Egg"
         sodipodi:nodetypes="czzzz"
         id="path_eg_ld_5"
         d="m 108.8407,966.72787 c 0.17678,-2.20971 -4.32323,-5.30494 -7.95496,-5.30331 -3.63172,0.002 -7.11228,1.63821 -7.07106,5.03814 0.0412,3.40002 3.71212,5.32765 6.89429,5.30331 3.27054,-0.025 7.95496,-2.82844 8.13173,-5.03814 z"
         style="fill:#d08080;stroke:#000000;stroke-width:1;stroke-linejoin:round" />
    </g>
    <g
       id="g_eg_l_del"
       transform="translate(0,5600)">
      <path
         d="m 134.8407,1024.7279 c 0.17678,-2.2097 -5.23117,-5.3046 -7.95496,-5.3033 -2.72379,10e-4 0.21364,2.4822 0.21364,2.4822 0,0 0.84703,3.0862 0.84703,3.0862 0,0 -1.97722,1.6725 -1.97722,1.6725 0,0 -1.69103,3.1191 0.73978,3.1005 2.43081,-0.019 7.95496,-2.8284 8.13173,-5.0381 z"
         id="path2900"
         sodipodi:nodetypes="czccczz"
         class="Egg"
         style="fill:#d08080;stroke:#000000;stroke-width:1;stroke-linejoin:round" />
      <path
         class="Egg"
         sodipodi:nodetypes="cczzzcc"
         id="path2902"
         d="m 90.46285,1019.6948 c 0,0 -2.42295,-2.4609 -2.42295,-2.4609 0,0 -0.51596,-2.2874 -3.04412,-1.2738 -2.52816,1.0136 -5.99397,4.1642 -4.69209,7.3052 1.30189,3.1412 6.14212,3.2735 8.37146,2.3612 2.22934,-0.9124 0.0925,-3.8956 0.0925,-3.8956 0,0 1.69522,-2.0361 1.69522,-2.0361 z"
         style="fill:#d08080;stroke:#000000;stroke-width:1;stroke-linejoin:round" />
    </g>
    <g
       id="g3065"
       transform="translate(0,2800)">
      <path
         d="m 393.86194,856.34146 c 1.5026,1.41421 0.27296,5.5701 -1.85616,8.66206 -2.12912,3.09195 -6.75903,4.73145 -9.54594,1.94454 -2.7869,-2.78691 -0.79568,-7.53735 2.47487,-9.45756 3.27056,-1.9202 7.42463,-2.56325 8.92723,-1.14904 z"
         id="path_eg_ru_1"
         sodipodi:nodetypes="czzzz"
         class="Egg"
         style="fill:#d08080;stroke:#000000;stroke-width:1;stroke-linejoin:round" />
    </g>
    <g
       id="g3068"
       transform="translate(0,3080)">
      <path
         d="m 372.57878,862.54911 c -2.20971,-0.17678 -5.30494,4.32323 -5.30331,7.95496 0.002,3.63172 1.63821,7.11228 5.03814,7.07106 3.40002,-0.0412 5.32765,-3.71212 5.30331,-6.89429 -0.025,-3.27054 -2.82844,-7.95496 -5.03814,-8.13173 z"
         id="path_eg_ru_2"
         sodipodi:nodetypes="czzzz"
         class="Egg"
         style="fill:#d08080;stroke:#000000;stroke-width:1;stroke-linejoin:round" />
    </g>
    <g
       id="g3071"
       transform="translate(0,3360)">
      <path
         class="Egg"
         sodipodi:nodetypes="czzzz"
         id="path_eg_ru_3"
         d="m 350.51096,874.54946 c -1.5026,1.41421 -0.27296,5.5701 1.85616,8.66206 2.12912,3.09195 6.75903,4.73145 9.54594,1.94454 2.7869,-2.78691 0.79568,-7.53735 -2.47487,-9.45756 -3.27056,-1.9202 -7.42463,-2.56325 -8.92723,-1.14904 z"
         style="fill:#d08080;stroke:#000000;stroke-width:1;stroke-linejoin:round" />
    </g>
    <g
       id="g3074"
       transform="translate(0,3640)">
      <path
         class="Egg"
         sodipodi:nodetypes="czzzz"
         id="path_eg_ru_4"
         d="m 350.08171,892.37773 c 0.17678,-2.20971 -4.32323,-5.30494 -7.95496,-5.30331 -3.63172,0.002 -7.11228,1.63821 -7.07106,5.03814 0.0412,3.40002 3.71212,5.32765 6.89429,5.30331 3.27054,-0.025 7.95496,-2.82844 8.13173,-5.03814 z"
         style="fill:#d08080;stroke:#000000;stroke-width:1;stroke-linejoin:round" />
    </g>
    <g
       id="g3077"
       transform="translate(0,3920)">
      <path
         d="m 326.17511,912.8374 c 2.20971,0.17678 5.30494,-4.32323 5.30331,-7.95496 -0.002,-3.63172 -1.63821,-7.11228 -5.03814,-7.07106 -3.40002,0.0412 -5.32765,3.71212 -5.30331,6.89429 0.025,3.27054 2.82844,7.95496 5.03814,8.13173 z"
         id="path_eg_ru_5"
         sodipodi:nodetypes="czzzz"
         class="Egg"
         style="fill:#d08080;stroke:#000000;stroke-width:1;stroke-linejoin:round" />
    </g>
    <g
       id="g3080"
       transform="translate(0,4200)">
      <path
         d="m 395.14237,928.99645 c 0.17678,-2.20971 -4.32323,-5.30494 -7.95496,-5.30331 -3.63172,0.002 -7.11228,1.63821 -7.07106,5.03814 0.0412,3.40002 3.71212,5.32765 6.89429,5.30331 3.27054,-0.025 7.95496,-2.82844 8.13173,-5.03814 z"
         id="path_eg_rd_1"
         sodipodi:nodetypes="czzzz"
         class="Egg"
         style="fill:#d08080;stroke:#000000;stroke-width:1;stroke-linejoin:round" />
    </g>
    <g
       id="g3083"
       transform="translate(0,4480)">
      <path
         class="Egg"
         sodipodi:nodetypes="czzzz"
         id="path_eg_rd_2"
         d="m 369.73317,946.18575 c 2.20971,0.17678 5.30494,-4.32323 5.30331,-7.95496 -0.002,-3.63172 -1.63821,-7.11228 -5.03814,-7.07106 -3.40002,0.0412 -5.32765,3.71212 -5.30331,6.89429 0.025,3.27054 2.82844,7.95496 5.03814,8.13173 z"
         style="fill:#d08080;stroke:#000000;stroke-width:1;stroke-linejoin:round" />
    </g>
    <g
       id="g3086"
       transform="translate(0,4760)">
      <path
         class="Egg"
         sodipodi:nodetypes="czzzz"
         id="path_eg_rd_3"
         d="m 361.86535,953.43644 c 1.5026,-1.41421 0.27296,-5.5701 -1.85616,-8.66206 -2.12912,-3.09195 -6.75903,-4.73145 -9.54594,-1.94454 -2.7869,2.78691 -0.79568,7.53735 2.47487,9.45756 3.27056,1.9202 7.42463,2.56325 8.92723,1.14904 z"
         style="fill:#d08080;stroke:#000000;stroke-width:1;stroke-linejoin:round" />
    </g>
    <g
       id="g3089"
       transform="translate(0,5040)">
      <path
         class="Egg"
         sodipodi:nodetypes="czzzz"
         id="path_eg_rd_4"
         d="m 334.51266,958.87193 c -0.17678,2.20971 4.32323,5.30494 7.95496,5.30331 3.63172,-0.002 7.11228,-1.63821 7.07106,-5.03814 -0.0412,-3.40002 -3.71212,-5.32765 -6.89429,-5.30331 -3.27054,0.025 -7.95496,2.82844 -8.13173,5.03814 z"
         style="fill:#d08080;stroke:#000000;stroke-width:1;stroke-linejoin:round" />
    </g>
    <g
       id="g3092"
       transform="translate(0,5320)">
      <path
         d="m 319.75181,962.84942 c -1.5026,1.41421 -0.27296,5.5701 1.85616,8.66206 2.12912,3.09195 6.75903,4.73145 9.54594,1.94454 2.7869,-2.78691 0.79568,-7.53735 -2.47487,-9.45756 -3.27056,-1.9202 -7.42463,-2.56325 -8.92723,-1.14904 z"
         id="path_eg_rd_5"
         sodipodi:nodetypes="czzzz"
         class="Egg"
         style="fill:#d08080;stroke:#000000;stroke-width:1;stroke-linejoin:round" />
    </g>
    <g
       id="g_eg_r_del"
       transform="translate(0,5880)">
      <path
         class="Egg"
         sodipodi:nodetypes="csczzssz"
         id="path3020"
         d="m 279.28994,1030.8517 c 0.13618,1.1526 1.16917,1.6521 2.69385,2.3598 1.52468,0.7077 2.55769,1.2072 5.37159,1.3042 -3.43609,-3.153 -0.0499,-1.6153 -0.38069,-3.6385 -0.33075,-2.0233 0.39,-3.2258 -1.32294,-3.1404 -1.71294,0.086 0.97524,-4.3548 -2.93291,-1.8833 -0.68427,0.4328 -1.13327,0.9514 -1.7099,1.5418 -1.15326,1.1806 -1.85518,2.3037 -1.719,3.4564 z"
         style="fill:#d08080;stroke:#000000;stroke-width:1;stroke-linejoin:round" />
      <path
         d="m 330.3588,1025.5024 c -0.394,1.5443 -1.70519,0.1712 -2.54809,1.4801 0.5321,1.1839 -0.63244,2.2671 0.21459,2.4181 0.84703,0.1509 1.65324,0.058 2.59467,-0.043 1.88286,-0.2031 3.22483,-0.3704 4.26074,-2.3305 1.03591,-1.9601 0.55546,-3.6015 -0.50149,-5.1341 -0.52847,-0.7663 -1.01705,-1.3737 -1.68376,-1.9167 -1.55961,-1.2702 -0.44412,1.0093 -2.09237,1.6179 -1.27325,1.1086 1.09461,0.8976 0.256,2.7834 l -0.50029,1.125 z"
         id="path3022"
         sodipodi:nodetypes="ccsszssccc"
         class="Egg"
         style="fill:#d08080;stroke:#000000;stroke-width:1;stroke-linejoin:round" />
    </g>
  </g>
</svg>
