/* XPM */
static char * jumpnbump_xpm[] = {
"32 32 65 1",
" 	c None",
".	c #261814",
"+	c #B3B3B2",
"@	c #EC7818",
"#	c #747373",
"$	c #B83A18",
"%	c #6D6D6B",
"&	c #C8C1BB",
"*	c #6B3203",
"=	c #DB8434",
"-	c #E28A32",
";	c #DCCEC6",
">	c #CA7C30",
",	c #A05618",
"'	c #2A262A",
")	c #999998",
"!	c #F59239",
"~	c #9B4E10",
"{	c #EFE8E4",
"]	c #FDB055",
"^	c #AB530B",
"/	c #3A363A",
"(	c #8F8E8D",
"_	c #CE6915",
":	c #6A4E3A",
"<	c #BEB8B2",
"[	c #EF9A47",
"}	c #F4F1F0",
"|	c #C0691C",
"1	c #661834",
"2	c #C8A68C",
"3	c #434143",
"4	c #894209",
"5	c #C2610F",
"6	c #F79E3F",
"7	c #848482",
"8	c #504C4C",
"9	c #5E2E06",
"0	c #823E06",
"a	c #F6C29E",
"b	c #EAB68A",
"c	c #967A60",
"d	c #D6A67A",
"e	c #8B6241",
"f	c #B66016",
"g	c #FDA542",
"h	c #FCFCFD",
"i	c #846A54",
"j	c #E6A86C",
"k	c #ABA7A5",
"l	c #BA590C",
"m	c #F8DCC2",
"n	c #AE9276",
"o	c #864C1E",
"p	c #585757",
"q	c #E0DDDB",
"r	c #733403",
"s	c #5E3A1E",
"t	c #7B7B7B",
"u	c #FEAA48",
"v	c #F68627",
"w	c #F97B13",
"x	c #746D6A",
"y	c #DAB69E",
"z	c #B45A0F",
"                                ",
"                                ",
"                     ))         ",
"                 x  (7#         ",
"       )k       p8  (##         ",
"       k)&    ((p3  (%)         ",
"       }k<<  kt(p8 7t(          ",
"       qq+h b+(+p%)7()          ",
"       )}{&6y;& 8#t7(           ",
"   vuuu[q}}bq{;]ppt7(|:         ",
"   >ugu]kqh{}{&[~3t((tsvwv      ",
"   ,=]]{hhhhh{-f8p7)px#@vvvvv   ",
"    ,]]}hhhhhhjo'8t(tp7@vvvvv   ",
"    ~>j{&{{}hhms.8%t7%cf|w!!    ",
" ~__w@@nt})}hhm4./p%%#$*05!     ",
"  ^@www@=a<hhh;,..//8:$=66g6    ",
"   ~_ww@w@6{hqdl119o=!uggggg    ",
"    *0_wwwwv[d_l~|6guuggggggg   ",
"    *9*~z_l~~~|6uuuugggugggggg  ",
"    ******9**45guu]uugugugg66!  ",
"    *********4_-]uuuuguuu[>c    ",
"    ***9*****~_^-]]]u6=zfi%     ",
"    ***r**9**l_^^[!=|^^^^x%%    ",
"    9********l5z^||^^^^^,##x%   ",
"      ******r5_l^^^^^^^ex%%x%%  ",
"       ***r*055fz^^,^e%x####t#  ",
"        ****0_5l^^,exx%%#%%%    ",
"          **4555ex%%%%%         ",
"           *~l   %x%##          ",
"                                ",
"                                ",
"                                "};
