/* XPM */
static char * jumpnbump_xpm[] = {
"64 64 65 1",
" 	c None",
".	c #171010",
"+	c #B2B2B2",
"@	c #E61E1A",
"#	c #6E6C6B",
"$	c #C20606",
"%	c #D0C6C4",
"&	c #FA7A12",
"*	c #411A05",
"=	c #D06D19",
"-	c #DA8636",
";	c #5B5B5B",
">	c #979696",
",	c #F18A2D",
"'	c #D9D6D4",
")	c #7D0A5E",
"!	c #BD752F",
"~	c #E8DED9",
"{	c #BABABA",
"]	c #8B8A88",
"^	c #F28E39",
"/	c #724E32",
"(	c #5A2A02",
"_	c #CA6410",
":	c #E7E3DF",
"<	c #FEB256",
"[	c #AB5309",
"}	c #D69256",
"|	c #EEEAEA",
"1	c #563216",
"2	c #828282",
"3	c #C26210",
"4	c #6A3202",
"5	c #875F3D",
"6	c #D5B5A0",
"7	c #832907",
"8	c #D9711E",
"9	c #EF9E49",
"0	c #F2F2F2",
"a	c #302C2F",
"b	c #7A7A7A",
"c	c #C6AA92",
"d	c #434043",
"e	c #FECA96",
"f	c #BA5A0A",
"g	c #A64911",
"h	c #FB8321",
"i	c #E5A673",
"j	c #AD621E",
"k	c #505150",
"l	c #7E6552",
"m	c #A9A6A3",
"n	c #F5B683",
"o	c #843F05",
"p	c #FAA23A",
"q	c #9E5A26",
"r	c #FAD6BA",
"s	c #92765A",
"t	c #974C0A",
"u	c #FCFCFD",
"v	c #F07616",
"w	c #FEA847",
"x	c #727272",
"y	c #F5993F",
"z	c #222026",
"                                                                ",
"                                                                ",
"                                                                ",
"                                                                ",
"                                                                ",
"                                           >>>                  ",
"                                          >>2b                  ",
"                                  #x     ]2b#x                  ",
"                                 k;k    2]2x#                   ",
"              2+m                ;dd    ]>b#b                   ",
"              ]mm>>              ;ka    >>#;>                   ",
"               %>++0         ]] kkkd    22xx                    ",
"               :+>m|>       mx] ;k;a   2xx2                     ",
"               0:bb':      m2#> k;;d  ]2b2>                     ",
"               |u+m+u     {m2b+ ;;#k  222>>                     ",
"               %0''m0   n6++m>  ;;#b> b]>>>                     ",
"               m000%~mpyi6%%%+  ;k#2]]x]>>                      ",
"               >:uu:%cww6%':'%   d#bxb]]>]                      ",
"            www!'u000|<i':0:%'n  a;2b2]2]]                      ",
"       ,wwwwww<}m|0uu|e6'00''%pnc.dxxxb]]]!j/                   ",
"      !<<pwwww<ws{{uuu:'|0|:'6wy,.z#x2]>>>]k.4-h                ",
"      j-wwww<w<e6%%uuu|:000:%iy-81zkb]>>2b]2dj&h&&,             ",
"       q-w<w<<e|uuuuu0uuuu0'p,_j/;;;b]>>#z;>]dv,,hhhhhhh        ",
"        t9<<<nruuuuuuuuuuuuri8f5ddk;x]]>]dd]c;8hhh,h,h^hh       ",
"        o-<<w<:uuuuuuuuuuuuue-[/aad;x2]>>;ax>#8&,,hhhh^h,       ",
"        4!ww<nruuuuuuuuuuuuur-q4zzd;x2]>>#dx>x8h,,&hh,^h        ",
"         t-ww6:u0u0uuuuuuuuu09j*..d;#b22>bkb>b8^hh,^,hhy        ",
"          t8,c'0b+{u0{:uuuuuuej..zdk;#xx22xb]jooot=&yy          ",
"      f8&v=v&-cmz%:u'k:uuuuuur=*.zdd;;###xsxf@41((4_^^          ",
"   t[vvv&&&&&v-#.|0u'k0uuuuu0r=*.aaakk;;##x5g$4otf=^yp          ",
"     [&&&&&&&&&f5~|0'buuuuuu0%=4*..zdkkk;kdk)7t8hpypppp         ",
"      3&&&&&&&&&v&&nr+uuuuuu|}=o***.zaaadd/q3vpwwpppwwy         ",
"       t=&&&&&&&&&&v^ru0uu|:'}_ft*.)..z1q8h^wwwpwwppppww        ",
"         j8&&&&&&&&&&^n||0:'683g*)))(j8,^py<wwwpppwppppw        ",
"          of8&&&&&&&&h&pi{%c-_=4)((q,ppww<wwwppwwpwwwwppp       ",
"         44(o=&&&&&&&&&&&^}-==vf!^wpwwwwwwwwpwwpppwpwpwppp      ",
"         44444q_=vv&v=_=_=jf__,wpw<wwww<pwwwwpwwwppwwpppwww     ",
"         44444444[[3gt(4444g_f9w<wwwwwwwpwwwwwwwwwwwpwwpppp     ",
"         4444444444(*444444t_f9w<ww<<wwwwwwp<wwwwwwwppwppp^     ",
"        444444444444(447444g_f9<wwwww<w<p<wwwpwwpwwwwwy,        ",
"        4444474447444444444[__-w<<<w<ww<pwwwwwwwwwwwy-!!        ",
"        744444444(444444474[8_fyww<wwwwwwwwwwww<wwy!ssxx        ",
"        444444444474444444o3__[f-<<ww<<w<ww<w,=_3!jx##          ",
"        444444444444444444o38=f[[p<ww<w<<wy-=j[[[[q###          ",
"        447(74444444474444g___f[[fwwwwwwy8f[[[[[[[lx##          ",
"        4444444444444(4444g_==fqft=<98ff[[[[[[[[[[xxx##         ",
"        4444447(7(47444474t___f[[t=9-8[[[[[[[[[g[[xxx###        ",
"           444444444444444g=__3[f[[[[[[[[[[[[[[[[5xxbxx##       ",
"            4444444444444of_=_3[[[[[j[[[[[[[[[[ql##x#xxx##      ",
"             444444444444o___33[[[[[[[[[[[[[[qlxbxx########     ",
"              44444474444o3____[j[[[[[q[[[qql#xxxxxxxxxxxxx     ",
"                444444444t3f3_ff[[[[[[[g[55####xxxxx#x##]       ",
"                 44444474t3__33[[[[[[[qq5#x######x#xx;x         ",
"                   444444t__33ff[[[qqll#xx######b               ",
"                    44444[_33j33q55l######x###                  ",
"                     44(4[f3f3   #####x##x;##                   ",
"                       4offf      #######bb                     ",
"                                    #x                          ",
"                                                                ",
"                                                                ",
"                                                                ",
"                                                                ",
"                                                                ",
"                                                                "};
