/* XPM */
static char * jumpnbump_xpm[] = {
"128 128 65 1",
" 	c None",
".	c #06070A",
"+	c #B6B6B6",
"@	c #F60202",
"#	c #727272",
"$	c #B60202",
"%	c #5A5C5D",
"&	c #FC8622",
"*	c #3A1602",
"=	c #C6C6C6",
"-	c #A6221A",
";	c #8E8E8E",
">	c #D6D6D6",
",	c #FB8E24",
"'	c #4A2A1A",
")	c #E6E6E6",
"!	c #CE7222",
"~	c #505252",
"{	c #A15A1F",
"]	c #F79B37",
"^	c #FEB666",
"/	c #AE5A0A",
"(	c #D66C16",
"_	c #DE6A18",
":	c #EFEEEE",
"<	c #7A0202",
"[	c #FEA640",
"}	c #664833",
"|	c #CCA085",
"1	c #2A2A32",
"2	c #895F38",
"3	c #3C3A3F",
"4	c #EAAE7C",
"5	c #A8805B",
"6	c #9E9E9E",
"7	c #FEC68E",
"8	c #BB5E0F",
"9	c #EE3A3A",
"0	c #AF5207",
"a	c #FEAE42",
"b	c #5A2A02",
"c	c #F8F6F9",
"d	c #636262",
"e	c #CB6312",
"f	c #E67215",
"g	c #8E4202",
"h	c #1D1C20",
"i	c #6A3202",
"j	c #7A685D",
"k	c #A4500C",
"l	c #F5781A",
"m	c #7A7A7A",
"n	c #F6CEA6",
"o	c #4A4242",
"p	c #FEDEBF",
"q	c #FDFEFD",
"r	c #D67A3A",
"s	c #FDA64D",
"t	c #7A3A02",
"u	c #B64242",
"v	c #FE7A12",
"w	c #6A6A6A",
"x	c #DE7A2A",
"y	c #150D0C",
"z	c #FEAE4C",
"                                                                                                                                ",
"                                                                                                                                ",
"                                                                                                                                ",
"                                                                                                                                ",
"                                                                                                                                ",
"                                                                                                                                ",
"                                                                                                                                ",
"                                                                                                                                ",
"                                                                                                                                ",
"                                                                                                                                ",
"                                                                                                                                ",
"                                                                                                                                ",
"                                                                                                                                ",
"                                                                                                                                ",
"                                                                                                                                ",
"                                                                                                                                ",
"                                                                                                                                ",
"                                                                                                                                ",
"                                                                                                                                ",
"                                                                                                                                ",
"                                                                                     6;;66                                      ",
"                                                                                     6;;66                                      ",
"                                                                                    6;;;##                                      ",
"                                                                     mm           6;;;####                                      ",
"                                                                     ##m          mm;#dwmm                                      ",
"                                                                     ##m          mm;mw#mm                                      ",
"                                                                    %%%~         m;;;#~%                                        ",
"                                    mm#=66                          ~~~3         ;66#dmm                                        ",
"                                    ;;m+6666                        ~~~3        #6;;%w66                                        ",
"                                    ;;m+;666                   +   ~~~~3        #;;;%w66                                        ",
"                                    ;;m+66;6                   +   ~~~~3        #6;;~w66                                        ",
"                                    666+++::66               66d6  ~%~~o       m;6~%d6                                          ",
"                                      6>;;==qq6             +##~;  ~%~%3w      #6m~~;                                           ",
"                                      6:++mm::6            +;ddw6  ~~dd1~    ;;m6#mm6                                           ",
"                                      6)++mm::6            +;ddw6  ~~dd1~    ;;m6wmm6                                           ",
"                                      6c::##==q6         ==;mddm+  ~%ww33   ;;;;;w666                                           ",
"                                      ;)qq++66q6         ++6mmm+=  %%##%o   mmm6;m66;                                           ",
"                                      6=qq))66:6    7744=+++666+   %%###m66 mm#6;;66                                            ",
"                                      6=qq))66)6    7744=+++666+   %%###m66 mmm6m;66                                            ",
"                                       6qqcc==)q66[]]]||===>=++=   %om#m;;;;mmm6;;6;                                            ",
"                                      4;::qq))>q66z[4z==>)))===>   33wwmmmmd;;;6;;;;                                            ",
"                                      4;::qq))>q66a[44==>)))===>    3w#mmmmd;;;6;;;;                                            ",
"                                      4;::qq))>q66s[44==>)))===>    3wwmmmmd;;;6;;;;                                            ",
"                                  za[[]5))cccc:cqq^[==>>)cc>=>>n^   1%%mmmm#;;;m;m55                                            ",
"                         xszz[[[[[[[aa[|++ccqqcqqqn4==))c))>>==^]77|.oo#mmm##mm;;m55r{}2                                        ",
"                       e8zzaz[aa[s[sss[]jj==qqqqqqp=))::c)))>44s[[s,y11w###m;;;66666m1y.ii&&,                                   ",
"                       8ezzaas[a[sa[^sz]#j==qqqqqqp=))::c)))>44ss[s,.11d###m;;;66666m1.yii&&&                                   ",
"                       22]z[[z[[aas[^^77r|++ccqqqq:>))ccq::>=^4s[,,lb..ow##m;666;;666#yhxx&&&lvv,                               ",
"                         /zzzzzz[[z^zsn:ppccqqqcqqq:ccqqc))=^ss]&!!!*hh~w##;66666hw#+633tt,&&&&&&&&,,,                          ",
"                         txsszszsz^z77pcqqqqqqqqqqqqqqqqc))n]fffe88}}%ddw##;666661.y66mm''&&&&&&&&&&&&&&&]                      ",
"                          ta[zzz^^^7ppcqqqqqqqqqqqqqqqqqcqq4r_((822~~~~%w##m;m;6+w..d+66~}ff&&v&v&&&v&&v&&vlv                   ",
"                          t[[zza^^^7ppcqqqqqqqqcqqqqqqqqcqq4!((!822}~~~%d##m;;;6+w..%+66~}lf&&&&&v&&&&&&&&vvv                   ",
"                          'ee^aaazs^:cqqqqqqqqqqqqqqqqqqqqqc^!!e0}t11oo%d##m;;;;6611166;ddflv&&,&&&v&&&&,&vs]                   ",
"                          '!!^zzzss^::qqqqqqqqqqqqqcqqqqqqqc^!!ekt}11oo%d##m;;;66611h6662j_l&&,,&&&&&&,,]&x                     ",
"                           bb,zszzs^::qqqqqqqqqqqqqqqqqqcqqqn!!e{''yh33%dwwm;;;;;6%dh666jjxx&&,&&v&&&&&&&&                      ",
"                           bb]zzzzz^::qqqqqqqqcqqqqqqqqqqqqqn!!ek''yy33%dwwm;m;;;6ddy666#jxxv&&,&&,,x&,&&&                      ",
"                             gzzs^s=))qqcc::qqqqccqqqqqqqccqq]]e{**yy33~%dd#mmm;;;mm3;;;mmrr],&&&,]]&,&&]                       ",
"                             *//lfr=::cq6666qqqqqqcqqqqqqqqqc44eg...h33o~%%wmm#m#;;;;;;;mm''g_&&,&&,vvss                        ",
"                             ikkffx+>>))hh66qqq:;;=qqqqqcqqqq77!g.y.13oo~~%w####mm;;;m55uubb**bb{8eess                          ",
"                             ik0ffr+>>))hy66qqq:;;=qqqqqcqqqq77!gy..1ooo~%%d####m#;;;;;5uubby*bbkeeess                          ",
"                      g00_fllvvvvlvr++);..::qqq;..>qqqqqqqqqqnnx0*y.1333o%%%ddww##w#m#99@@tttibb*b00&x                          ",
"                  kgkl&vvvvlvlvv&lvlrr|~yyccqqq~yhcqqqqqqqqqqnnx8**11*h13oo~%%%ddwwd%2--$$bbgkeef,]]]]zz                        ",
"                     t8vvvvvvvvvvvvvv&l822ppccc.ddqqqqqqqqqc:44!eii*yyyh133o~~~%~~oo~o<<tt00x&[[[sss[[]]                        ",
"                     t8vvvvvvvvvv&lvlll8{{ppcccyddqqqqqqqqqq:44!8ii*yhyy133o~~~%~~oo~~<<tt88x,[[[[[[[[]]                        ",
"                       0/lvvl&lvll&lvvvvllllssp.66qqqqcqqqqqprreegg****y.yh11113o3~}2/__,][[[[[[[[[[[[[[]                       ",
"                       00lv&lvvllvvv&vlvlvllssp.66qqqqccqqqqprre8gg****..hh11113o3}o2{__],[[[[[[[[[[[[[[,                       ",
"                         t8ll&vv&vlvvvvvvvlllfl{nnqcqqqqq::)=rree88k*yy.....hhh}{e!fv][[a[[[[[[[[[[[[[[[[[                      ",
"                           {{_lvvvlv&lvlvvvlvvlv&&^:cccc:>>>|!feekg*.....y*t!x!l,]s[sz[[[[[[s][[][[[[[[[[]z                     ",
"                           {{(vlvvvvll&vvvllvvlv&&^ccccc:>>>|r!eekk*.....*ytf!fl,][[[z[[[[[[[s[[[[[][[[[[]z                     ",
"                             ikklf&v&lvvvlvvlvvlvvl,44===>>|!ee__ib..**gevv][sszz[zz[[[[s][[[[[[][[[[[[[[[,                     ",
"                             ibi**/&&&vvvl&vllvvvvllvv&l4|4re_(e_gg{l]][saazss[a[z[[s[s]zs[]s[[[[[[[[][[[[[]]                   ",
"                           iiiiiiiiiff&,&&lv&vlvllv&lll&l(_((fff&[[aszzasaas[aasa[sz[z[[[[s[[[[[[[[[[[[[[[[[[[                  ",
"                           iiiiiiiiiff&&&&vlvvvvv&v&lllll__f_ffl&[[asazzsaasaaasa[zz[z[[[[[[[]s[[][[[[[[[[[[[[                  ",
"                           iiiiiiiii**i8&&lv&&&&vlvf00ttbbb0e!fazssazzzs[ssaaa[sasaaszs][[azs[[[[s[[s][[[[[[[[                  ",
"                           iiiiiiiiibiiiii((vvfe{kbiiiiiibbkekk]zzzzzasaz[[z[[[a[[zs[[zzs[sz[as]z[[]zs[s[[[[[[[                 ",
"                           iiiiiiiiiiiiiiiiibb*iiiiiiiiiiii/_kk!zzzsszzzsaszzzz[z[aaaszs[[aaszss[sza[][[][][[],                 ",
"                           iiiiiiiiiiiiiiiiibb*iiiiiiiiiiii8_kkezzzssazzszazszs[z[aaz[zz[[aasass[saa[s[[s[][[]]                 ",
"                           iiiiiiiiiiiiiiiiibi*iiiiiiiiiiii/_kk!zzzzszzzzzzzazz]z[aaz[zzs]a[sas][saa[[[[[[]]]                   ",
"                          iiiiiiiiiiiiiiiiiiiiiiiiiiiiiiitt8f//0sszzzzzzszzzzzz[sassas[assaaz]zas[[ass][&!                      ",
"                          iiiiiiiiiiiiiiiiiiiiiiiiiiiiiiitte(eek!^^szzzsz[szazzzzs[[saaz[[zz[za]za[sx,!5d#                      ",
"                          iiiiiiiiiiiiiiiiiiiiiiiiiiiiiiitte(eek!^aaazzzzs]szzzzasaasazz[[zz[z[[sa[[,r58dw                      ",
"                          iiib-iiiiiiiiiiiiiiiiiiiiiiiiiitt_fee/k]]szzzzzzzszzazzz[[asaas]aazz[[]r5m#www#wd                     ",
"                          iiiiiibiiiiiiiiiiiiiiiiiiiiiiiigke__(/k//zszzzszzzss]szzssz[zszz[[,!88k2dd#mwww                       ",
"                          iiiiiib-iiiiiiiiiiiiiiiiiiiiiiikg(e((8kkk!^szzzsszszzzazzszz[[xx08kk00kwm#ww                          ",
"                          iiiiiiiibiiiiiiiiiiiiiiiiiiiiii0k_(((e0k0k]z^[zzzzzzzszszz,!/8k/k00000{w##ww                          ",
"                          iiiiiiiiiiib-iiiib-iiib-iiiiiiik0_(((8000g]^^szazzszzzzzzz]!80kk000000{w##ww                          ",
"                          iiiiiiiiiiiiibiiiiibiiiiibiiiii08(e((e0//k/[[zsszzzzz],r880k00000000002#m#wwmm                        ",
"                          iiiiiiiiiiiiiiiiiiiiiiiiiiiiiiie8(e((e0//0k88s^]]x8//k0k00000000000000######w#w                       ",
"                          iiiiiiiiiiiiiiiiiiiiiiiiii-biii88(e((e///0k8ezz]]r08/00/000/000k000000j##m##www;                      ",
"                          iiiiiib-iiiiiiiiiiiiiiiiiiiiiii8e_e((e0//0ge8sz]]x/8/0kkk0k0k0000k0000######w#w;                      ",
"                             iiiiiibi-biiiiiiiiiiiiiiiiit!!(e((e/k/0/kk{e{0k000000000000k0000k{/w#w######w#                     ",
"                              iiiiiiiiiiiib-iiiiiiiiiiiit8e(ee(e/k0/{k0kkkk/kkk00/0k000k/0000022#w#########ww                   ",
"                                  iiiiiiiiiibiiiiibiiiiikeeeeeee8//k/00/k//00000k0000k0000k0{2jj#############w                  ",
"                                  iiiiiiiiib-iiiiiiiiiiigeeeeeee8//k/00/k//00k00000000000000{2jj#w############                  ",
"                                   iiiiiiiiiiibiiiiiiiiik__!eeee8kk//kk/0/0//kk00k0k/k00{{2jw#m######w#ww#wwwww                 ",
"                                    b-iiiiiiiii-iiiiiiii0e(eeeeeekk/k00/k0k0kkk000000{22jj##################ww#                 ",
"                                      iiiiiiiiibiiiiiiii/eeeeee8e00k/kk0k00k/k00/k{{jw##wwww############www;;                   ",
"                                      iiiiiiiiiiiiiiiiii8ee8ee(8e00//kk0kk0k00k000{{jw#mwwww##m#########w#w;;                   ",
"                                        iiiiiiiiiiiiiiii0eeee88ee000/kk/k0/k000k2jww#w##w#######ww#####w#                       ",
"                                          iiiiiiiiiiiiii!eee8!8(888kk/00000k2j2j##ww#www###www#w#mw#dw                          ",
"                                           iiiiiii-biiiieeee8eee888kk0k000/k2j2###ww#ww###wwwwww#m                              ",
"                                           iiiibiiiiiiii!eee8eeee88kk000k0k{222j##wwmwww##w#wwwwwm                              ",
"                                              iiiiiiibtte88!888/80000kk{222#www#ww##ww##wwdd#;                                  ",
"                                                iiiibbgk88e88e880!e{jjjw#ww##wwwmwww#wdd##                                      ",
"                                                  tbbbkg!88/0//x    wwww#www##mww##wdm                                          ",
"                                                   tbbkk088!         wwww##wwww#dw;;                                            ",
"                                                   }bbk/088!         wwww##w#ww#dw;;                                            ",
"                                                      88               ww#wwddd#                                                ",
"                                                                        www#                                                    ",
"                                                                                                                                ",
"                                                                                                                                ",
"                                                                                                                                ",
"                                                                                                                                ",
"                                                                                                                                ",
"                                                                                                                                ",
"                                                                                                                                ",
"                                                                                                                                ",
"                                                                                                                                ",
"                                                                                                                                ",
"                                                                                                                                ",
"                                                                                                                                ",
"                                                                                                                                ",
"                                                                                                                                ",
"                                                                                                                                ",
"                                                                                                                                ",
"                                                                                                                                ",
"                                                                                                                                ",
"                                                                                                                                "};
