<?xml version="1.0" encoding="UTF-8" standalone="no"?>
<!-- Created with Inkscape (http://www.inkscape.org/) -->

<svg
   xmlns:dc="http://purl.org/dc/elements/1.1/"
   xmlns:cc="http://creativecommons.org/ns#"
   xmlns:rdf="http://www.w3.org/1999/02/22-rdf-syntax-ns#"
   xmlns:svg="http://www.w3.org/2000/svg"
   xmlns="http://www.w3.org/2000/svg"
   xmlns:sodipodi="http://sodipodi.sourceforge.net/DTD/sodipodi-0.dtd"
   xmlns:inkscape="http://www.inkscape.org/namespaces/inkscape"
   width="420"
   height="280"
   id="svg2"
   version="1.1"
   inkscape:version="0.47 r22583"
   sodipodi:docname="kv_z_decor.svg"
   inkscape:export-filename="C:\kv_decor.png"
   inkscape:export-xdpi="67.5"
   inkscape:export-ydpi="67.5">
  <defs
     id="defs4">
    <inkscape:perspective
       sodipodi:type="inkscape:persp3d"
       inkscape:vp_x="0 : 526.18109 : 1"
       inkscape:vp_y="0 : 1000 : 0"
       inkscape:vp_z="744.09448 : 526.18109 : 1"
       inkscape:persp3d-origin="372.04724 : 350.78739 : 1"
       id="perspective10" />
    <inkscape:perspective
       id="perspective2824"
       inkscape:persp3d-origin="0.5 : 0.33333333 : 1"
       inkscape:vp_z="1 : 0.5 : 1"
       inkscape:vp_y="0 : 1000 : 0"
       inkscape:vp_x="0 : 0.5 : 1"
       sodipodi:type="inkscape:persp3d" />
    <inkscape:perspective
       id="perspective2838"
       inkscape:persp3d-origin="0.5 : 0.33333333 : 1"
       inkscape:vp_z="1 : 0.5 : 1"
       inkscape:vp_y="0 : 1000 : 0"
       inkscape:vp_x="0 : 0.5 : 1"
       sodipodi:type="inkscape:persp3d" />
    <inkscape:perspective
       id="perspective2852"
       inkscape:persp3d-origin="0.5 : 0.33333333 : 1"
       inkscape:vp_z="1 : 0.5 : 1"
       inkscape:vp_y="0 : 1000 : 0"
       inkscape:vp_x="0 : 0.5 : 1"
       sodipodi:type="inkscape:persp3d" />
    <inkscape:perspective
       id="perspective2866"
       inkscape:persp3d-origin="0.5 : 0.33333333 : 1"
       inkscape:vp_z="1 : 0.5 : 1"
       inkscape:vp_y="0 : 1000 : 0"
       inkscape:vp_x="0 : 0.5 : 1"
       sodipodi:type="inkscape:persp3d" />
    <inkscape:perspective
       id="perspective3080"
       inkscape:persp3d-origin="0.5 : 0.33333333 : 1"
       inkscape:vp_z="1 : 0.5 : 1"
       inkscape:vp_y="0 : 1000 : 0"
       inkscape:vp_x="0 : 0.5 : 1"
       sodipodi:type="inkscape:persp3d" />
  </defs>
  <sodipodi:namedview
     id="base"
     pagecolor="#ffffff"
     bordercolor="#666666"
     borderopacity="1.0"
     inkscape:pageopacity="0.0"
     inkscape:pageshadow="2"
     inkscape:zoom="1.1333333"
     inkscape:cx="367.05883"
     inkscape:cy="47.212311"
     inkscape:document-units="px"
     inkscape:current-layer="layer1"
     showgrid="false"
     inkscape:window-width="1280"
     inkscape:window-height="728"
     inkscape:window-x="-4"
     inkscape:window-y="-4"
     inkscape:window-maximized="1" />
  <style
     type="text/css"
     id="style4">  .Dira { fill:#ffffff; stroke:#808080; stroke-width:1;stroke-linejoin:round }
  .Dec0 { fill:#000000; stroke:#808080; stroke-width:1;stroke-linejoin:round }
  .Dec1 { fill:#000000; stroke:#808080; stroke-width:1;stroke-linejoin:round }
  .Dec2 { fill:#000000; stroke:#808080; stroke-width:1;stroke-linejoin:round }
  .LineD { fill:none;stroke:#ffffff;stroke-width:5.3;stroke-linecap:round;stroke-linejoin:miter;stroke-opacity:1;stroke-miterlimit:4;stroke-dasharray:none }</style>
  <metadata
     id="metadata7">
    <rdf:RDF>
      <cc:Work
         rdf:about="">
        <dc:format>image/svg+xml</dc:format>
        <dc:type
           rdf:resource="http://purl.org/dc/dcmitype/StillImage" />
        <dc:title></dc:title>
      </cc:Work>
    </rdf:RDF>
  </metadata>
  <g
     inkscape:label="Layer 1"
     inkscape:groupmode="layer"
     id="layer1"
     transform="translate(0,-772.36218)">
    <rect
       style="fill:#ffffff;fill-opacity:1;fill-rule:nonzero;stroke:none"
       id="rect_fon"
       width="420"
       height="840"
       x="0"
       y="772.36218"
       ry="0"
       inkscape:export-xdpi="90"
       inkscape:export-ydpi="90" />
    <path
       d="m 0,1024.0622 10.960155,-0.8839 c 0,0 0,-12.5511 -0.707107,-14.4957 -0.7071064,-1.9445 -3.3587569,-21.56675 -3.3587569,-27.57716 0,-6.01041 0,-6.36396 0,-6.36396 0,0 -0.8838835,-24.92551 0.7071068,-27.40039 1.5909903,-2.47487 6.7175141,-2.29809 11.8440381,0.35356 5.126525,2.65165 16.08668,9.01561 19.79899,11.49048 3.712311,2.47488 10.606602,4.94975 13.258253,5.12653 2.65165,0.17677 7.424621,-1.41422 7.424621,-1.41422 l -3.358757,-2.82843 c 0,0 -4.949748,0.70711 -8.485282,-1.23743 -3.535534,-1.94455 -10.076271,-6.71752 -12.374369,-7.42462 -2.298097,-0.70711 -9.192388,-3.71231 -9.722718,-5.65686 -0.53033,-1.94454 0,-3.88908 0,-3.88908 0,0 -2.65165,-1.76777 -3.535534,-1.23744 -0.883883,0.53033 -3.18198,1.06066 -3.18198,1.06066 L 8.6620581,932.66863 c 0,0 -1.4840876,-14.68878 -1.767767,-17.14734 -0.5303301,-4.5962 -2.2741257,-11.2523 -1.7677669,-15.55635 0.7071067,-6.01041 4.9497478,-13.25825 4.4194173,-16.26345 -0.5085264,-2.88165 -3.5355339,-9.36917 -1.2374368,-14.31892 2.2980973,-4.94975 7.4246213,-6.71751 7.4246213,-6.71751 0,0 7.601398,2.82842 10.606602,7.95495 3.005203,5.12652 6.363961,13.43503 6.363961,13.43503 0,0 10.076271,13.96535 12.551145,15.55635 2.474874,1.59099 14.849242,12.90469 14.849242,12.90469 l 2.298097,-2.29809 c 0,0 -11.490485,-11.66727 -15.202795,-14.67247 -3.712311,-3.0052 -11.136932,-15.02602 -13.258252,-20.15254 -2.121321,-5.12653 -2.121321,-9.54594 -9.192389,-13.96536 C 17.67767,857.0082 8.8388348,851.88168 8.6620581,848.6997 c -0.1767767,-3.18198 1.5909899,-10.60661 6.3639609,-12.37437 4.772971,-1.76777 10.076272,-3.71231 13.788582,-2.65165 4.949748,1.41421 14.018085,1.51811 17.324117,1.06066 3.306031,-0.45744 6.465781,1.59099 7.778174,3.18198 1.107886,1.34307 0.53033,10.96015 3.535534,13.96536 3.005204,3.0052 12.374369,7.77817 14.142136,7.95495 1.767767,0.17678 6.010407,0.88388 6.010407,0 0,-0.88388 1.06066,-2.65165 1.06066,-2.65165 0,0 -5.656854,1.06066 -12.020815,-3.71231 -6.363961,-4.77297 -7.071068,-10.6066 -7.247844,-15.02602 -0.176777,-4.41942 -4.772971,-7.42462 -4.772971,-7.42462 0,0 2.474874,-5.3033 3.005204,-7.42462 0.53033,-2.12132 1.237437,-7.77818 1.237437,-7.77818 l -6.717515,-2.82843 c 0,0 -3.889087,10.42983 -7.954951,12.72793 -4.065864,2.29809 -11.844039,2.12132 -19.091883,1.59099 -7.247845,-0.53033 -12.551146,3.88908 -14.495689,2.82842 -1.9445439,-1.06066 -3.1819808,-16.97056 -2.474874,-18.56155 0.7071068,-1.59099 2.12132,-9.19239 2.12132,-9.19239 0,0 -3.1819802,-2.12132 -4.7729704,-2.12132 -1.5909903,0 -6.01040769,1.06066 -6.01040769,1.06066 L 0,1024.0622 z"
       id="path2971"
       sodipodi:nodetypes="ccsscssssccssscsccsssscscsccsssssszsssscsscsccsssscscc"
       class="Dec0"
       style="fill:#000000;stroke:#808080;stroke-width:1;stroke-linejoin:round" />
    <path
       d="m 421.5,793.11216 c 0,0 -3.25,-1.25 -5.75,-1 -2.5,0.25 -3.625,0.375 -3.625,0.375 l -0.25,11.125 c 0,0 -4.875,2 -10.375,1.25 -5.5,-0.75 -13.5,-7.5 -13.5,-7.5 l -4.25,4.5 c 0,0 6.75,7.5 11.75,9.5 5,2 9.75,1.5 13.75,5.25 4,3.75 4.75,5.5 4.75,12.25 0,6.75 1,13.75 -0.75,16.5 -1.75,2.75 -8.996,7.96425 -13.25,12.75 -4,4.5 -7.58596,11.4649 -10,17.5 -3.25,8.125 -12.5,15.5 -12.5,15.5 l -0.75,6.875 c 0,0 4.28031,-3.96326 5.5,-5 2.5,-2.125 6.22801,-5.83122 8.75,-8.875 3.625,-4.375 7.5,-13 9.5,-15.75 2.76269,-3.79869 8.125,-2.75 10.25,-1.75 3.68235,1.73287 3,8.25 4,12.5 1,4.25 2.625,7.375 1.75,10.5 -1.12996,4.03555 -1.75,16.5 -1.75,20.75 0,4.25 2.25,9.5 1.75,14 -0.5,4.5 -3.5,9.75 -6.5,13.75 -3,4 -5.75,12 -10.75,15.75 -5,3.75 -12,8.00002 -16.25,8.75002 -4.25,0.75 -11.5,5.75 -15,6 -3.5,0.25 -9,-0.75 -15.5,-0.25 -6.5,0.5 -10.5,2.5 -10.5,2.5 l 2,1.5 c 0,0 9.625,-1.125 14.75,-1.25 6.82164,-0.1664 8.25,2 13.25,0.5 5,-1.5 14.72916,-3.7261 17.5,-5.25 2.5,-1.375 13.5,-8.75002 15.5,-10.00002 2,-1.25 5.125,-3.125 6.375,-2.375 1.25,0.75 1.625,15.11722 1.625,19.12502 0,4.625 1.25,22.75 1.25,22.75 0,0 -0.7527,12.91402 -0.75,17.50002 0.002,3.6181 -5.5,24 -5.5,24 0,0 13.5,0 13.5,0 l 0,-244.25004 z"
       id="path2951"
       sodipodi:nodetypes="csccsccssssssccsssssssssssssccsssssscsccc"
       class="Dec0"
       style="fill:#000000;stroke:#808080;stroke-width:1;stroke-linejoin:round" />
    <path
       d="m 367.80394,900.73718 c 0,0 -1.75,2.125 -4.5,2.625 -2.75,0.5 -4.875,-0.125 -7,0.625 -2.00385,0.70724 -4.625,1.875 -4.5,2.625 0.125,0.75 2.875,1.125 4.625,1.125 1.75,0 7.375,-0.25 9.5,-0.875 2.125,-0.625 4.25,-2.25 4.25,-2.25 l -2.375,-3.875 z"
       id="path2953"
       class="Dec0"
       sodipodi:nodetypes="cssssscc"
       style="fill:#000000;stroke:#808080;stroke-width:1;stroke-linejoin:round" />
    <g
       id="g_patna_l"
       transform="translate(0,280)">
      <path
         style="fill:#000000;stroke:#505050;stroke-width:1;stroke-linejoin:round"
         class="Dec2"
         sodipodi:nodetypes="cssssssc"
         id="path2934"
         d="m 15.125,831.76113 c 0,0 -5.4536581,2.05805 -6.5,1.5 -1.875,-1 -2.0110929,-3.56286 -2.75,-7.75 -0.75,-4.25 -1,-8.875 -2.375,-8.75 -1.375,0.125 -0.9086625,5.21248 -0.125,7.25 1.875,4.875 0.875,8.75 1.5,10.5 0.5656179,1.58373 4.625,1.75 7,0.75 2.375,-1 5,-1.875 3.25,-3.5 z" />
      <path
         d="m 41.338914,833.26218 c 0,0 3.358757,-0.44195 5.833631,-0.7955 2.474873,-0.35355 5.126524,-1.85615 4.949747,-2.82843 -0.176776,-0.97227 -0.883883,-3.0052 -3.093592,-2.65165 -2.209709,0.35356 -1.325825,2.20971 -2.298097,2.91682 -0.972272,0.70711 -3.358757,0.70711 -4.772971,1.41421 -1.414213,0.70711 -2.12132,1.23744 -0.618718,1.94455 z"
         id="path2928"
         sodipodi:nodetypes="csssssc"
         class="Dec2"
         style="fill:#000000;stroke:#505050;stroke-width:1;stroke-linejoin:round" />
      <path
         d="m 54.975,835.58718 c 0,0 2.25,1.75 2.5,4.625 0.25,2.875 0.625,6.75 -0.25,6.75 -0.875,0 -1.875,-2.25 -1.875,-4.75 0,-2.5 -1.25,-3.625 -1.25,-4.625 0,-1 0.75,-2 0.875,-2 z"
         id="path2932"
         class="Dec2"
         style="fill:#000000;stroke:#505050;stroke-width:1;stroke-linejoin:round" />
      <path
         d="m 6.0128837,841.60586 c 0,0 -5.125,7.25 -5.375,11.625 -0.25,4.375 0.75,6.375 2.625,8.375 1.875,2 3.875,4.5 4.5,1.875 0.625,-2.625 0.125,-8.25 -1,-9.75 -1.125,-1.5 -2.125,-4.375 -1.25,-6.625 0.875,-2.25 2,-3.75 0.5,-5.5 z"
         id="path2938"
         sodipodi:nodetypes="csssssc"
         class="Dec2"
         style="fill:#000000;stroke:#505050;stroke-width:1;stroke-linejoin:round" />
      <path
         d="m 14.406326,863.26598 c 0,0 1.25,-2.25 3.375,-1.625 2.125,0.625 4.875,2.375 4.125,3 -0.75,0.625 -2.625,0.25 -4.25,-0.375 -1.625,-0.625 -3.375,-0.75 -3.25,-1 z"
         id="path2940"
         class="Dec2"
         style="fill:#000000;stroke:#505050;stroke-width:1;stroke-linejoin:round" />
      <path
         d="m 42.7375,897.46218 c 0,0 -8.625,-10.125 -9.75,-12.125 -1.125,-2 -2.25,-7.875 -1.375,-8.125 0.875,-0.25 3.25,2.875 3.25,4.5 0,1.625 5.002347,8.30726 6,9.875 1.75,2.75 1.875,5.875 1.875,5.875 z"
         id="path2942"
         sodipodi:nodetypes="cssssc"
         class="Dec2"
         style="fill:#000000;stroke:#505050;stroke-width:1;stroke-linejoin:round" />
      <path
         d="m 55.030369,901.42608 4.25,5.0625 c 0,0 -0.0625,2.25 -0.5625,2.0625 -0.5,-0.1875 -4.25,-3.8125 -4.3125,-4.4375 -0.0625,-0.625 0.4375,-2.625 0.625,-2.6875 z"
         id="path2944"
         class="Dec2"
         style="fill:#000000;stroke:#505050;stroke-width:1;stroke-linejoin:round" />
      <path
         d="m 0,876.50783 c 0,0 2.35,-3 2.975,-2 0.625,1 0.25,8.25 0.5,11 0.25,2.75 1.625,7.375 0.75,9.25 -0.875,1.875 -4.125,5.375 -4,8 0.125,2.625 2.375,3.75 2.5,7 0.125,3.25 -3.125,9.875 -3.125,15.5 0,5.625 1.125,9.75 2.125,11.5 1,1.75 4.625,6 3.875,7.375 -0.75,1.375 -6.1,-2 -6.1,-2 l 0.5,-65.625 z"
         id="path2946"
         sodipodi:nodetypes="csssssssscc"
         class="Dec2"
         style="fill:#000000;stroke:#505050;stroke-width:1;stroke-linejoin:round" />
      <path
         d="m 19.869502,941.74755 c 0,0 -9.9878831,-9.45756 -10.7833783,-9.104 -0.7954951,0.35355 -1.2374368,2.91681 0.6187185,4.41941 1.8561558,1.50261 4.0658638,3.97748 5.0381358,3.97748 0.972272,0 2.707635,0.12409 3.093592,0.44194 1.502603,1.23744 1.944544,0.44194 2.032932,0.26517 z"
         id="path2926"
         sodipodi:nodetypes="cssssc"
         class="Dec2"
         style="fill:#000000;stroke:#505050;stroke-width:1;stroke-linejoin:round" />
      <path
         d="m 40.923805,957.09637 c 0,0 6.70321,4.14227 6.187184,4.77297 -0.795495,0.97227 -2.65165,-0.70711 -4.065864,-1.67938 -1.604034,-1.10278 -3.889087,-2.47487 -2.12132,-3.09359 z"
         id="path2930"
         sodipodi:nodetypes="cssc"
         class="Dec2"
         style="fill:#000000;stroke:#505050;stroke-width:1;stroke-linejoin:round" />
      <path
         d="m -0.775,967.16218 c 0,0 1.875,7 1.875,7.75 0,0.75 -2,2.25 -2,2.25 l 0.125,-10 z"
         id="path2948"
         class="Dec2"
         style="fill:#000000;stroke:#505050;stroke-width:1;stroke-linejoin:round" />
      <path
         d="m 11.777139,1022.6122 c 0,0 0.5,-3.625 0.25,-5.5 -0.25,-1.875 -1.5,-4.625 -1.5,-4.625 0,0 -2.2052699,1.984 -2.1249997,3.75 0.125,2.75 3.2499997,6.75 3.3749997,6.375 z"
         id="path2936"
         sodipodi:nodetypes="cscsc"
         class="Dec2"
         style="fill:#000000;stroke:#505050;stroke-width:1;stroke-linejoin:round" />
    </g>
    <g
       id="g_patna_r"
       transform="translate(0,280)">
      <path
         style="fill:#000000;stroke:#505050;stroke-width:1;stroke-linejoin:round"
         class="Dec2"
         id="path2939"
         d="m 396.95713,805.92806 c 0,0 7.86656,2.74004 7.86656,3.8007 0,1.06066 -3.0052,1.41421 -4.77297,1.14904 -1.76776,-0.26516 -2.74004,-1.23743 -3.09359,-2.29809 -0.35355,-1.06066 0,-2.56326 0,-2.65165 z" />
      <path
         d="m 415.8782,807.08782 c 0,0 2.47487,1.5026 2.56326,5.56846 0.0884,4.06587 -1.23744,6.8059 -2.03293,6.8059 -0.7955,0 -1.67938,-2.74003 -1.76777,-5.39169 -0.0884,-2.65165 -1.76777,-4.06586 -1.23744,-5.12652 0.53033,-1.06066 2.38649,-2.03293 2.47488,-1.85615 z"
         id="path2941"
         class="Dec2"
         style="fill:#000000;stroke:#505050;stroke-width:1;stroke-linejoin:round" />
      <path
         d="m 416.04395,841.86218 c 0,0 3.18198,-4.59619 2.65165,-9.89949 -0.53033,-5.30331 -1.5026,-5.48008 -2.82842,-5.56847 -1.32583,-0.0884 -2.12133,3.0052 -1.94455,4.77297 0.17678,1.76777 -0.53033,3.8007 0.35356,5.48008 0.88388,1.67938 1.85615,5.21491 1.76776,5.21491 z"
         id="path2937"
         sodipodi:nodetypes="cssssc"
         class="Dec2"
         style="fill:#000000;stroke:#505050;stroke-width:1;stroke-linejoin:round" />
      <path
         d="m 413.74586,852.82016 c 0,0 4.33103,5.03813 4.41941,7.24784 0.0884,2.20971 -0.97227,5.74524 -1.94454,5.48008 -0.97227,-0.26517 -3.44715,-0.88388 -3.53553,-2.20971 -0.0884,-1.32582 0.97227,-3.53553 0.7071,-4.77297 -0.26516,-1.23744 0.17678,-5.48008 0.35356,-5.74524 z"
         id="path2935"
         class="Dec2"
         style="fill:#000000;stroke:#505050;stroke-width:1;stroke-linejoin:round" />
      <path
         d="m 392.26748,877.26103 c 1.06066,0.0884 2.74005,-4.94974 3.18199,-6.27557 0.32596,-0.97788 2.03293,-3.27037 3.0052,-3.97747 0.50546,-0.36761 2.42968,-0.38139 1.23744,-3.44715 -0.61872,-1.59099 1.14905,-2.56326 -0.44194,-2.47487 -1.59099,0.0884 -3.27037,3.53553 -3.71231,5.21491 -0.44195,1.67938 -2.823,7.5008 -3.18198,8.3085 -1.06066,2.38649 -0.0884,2.65165 -0.0884,2.65165 z"
         id="path2933"
         sodipodi:nodetypes="cssssssc"
         class="Dec2"
         style="fill:#000000;stroke:#505050;stroke-width:1;stroke-linejoin:round" />
      <path
         d="m 378.8,890.21369 3.44714,-3.8007 c 0,0 1.67938,0.35357 1.76777,1.06067 0.0884,0.7071 -1.67938,2.56325 -2.47487,2.82842 -0.7955,0.26516 -2.2981,0.17678 -2.74004,-0.0884 l 0,1e-5 z"
         id="path2931"
         sodipodi:nodetypes="ccsscc"
         class="Dec2"
         style="fill:#000000;stroke:#505050;stroke-width:1;stroke-linejoin:round" />
      <path
         d="m 354.2605,906.85507 c 0,0 2.2981,-1.41421 4.33103,-1.5026 2.03293,-0.0884 4.68458,0.35355 4.68458,0.97227 0,0.61872 -1.59099,0.97227 -3.53553,0.70711 -1.94455,-0.26517 -3.53554,0.53033 -3.97748,0.53033 -0.44194,0 -1.5026,-0.53033 -1.5026,-0.70711 z"
         id="path2929"
         class="Dec2"
         style="fill:#000000;stroke:#505050;stroke-width:1;stroke-linejoin:round" />
      <path
         d="m 420.51592,938.27892 c 0,0 -1.09469,0.26542 -1.53663,0.97253 -0.44194,0.7071 -0.17678,4.15425 -0.53033,4.94974 -0.35355,0.7955 -3.53553,5.56847 -3.44715,6.54074 0.0884,0.97227 1.50261,1.5026 2.20971,0.7955 0.70711,-0.70711 3.3044,-4.68459 3.3044,-4.68459 l 0,-8.57392 z"
         id="path2947"
         sodipodi:nodetypes="csssscc"
         class="Dec2"
         style="fill:#000000;stroke:#505050;stroke-width:1;stroke-linejoin:round" />
      <path
         d="m 403.72865,951.95302 c 0,0 1.76777,-1.76777 2.38649,-1.06066 0.61872,0.7071 0.0884,2.12132 -0.97227,2.82842 -1.06066,0.70711 -1.85616,1.59099 -2.56327,0.97228 -0.7071,-0.61872 0.88389,-2.74004 1.14905,-2.74004 z"
         id="path2945"
         class="Dec2"
         style="fill:#000000;stroke:#505050;stroke-width:1;stroke-linejoin:round" />
      <path
         d="m 373.264,966.98711 c 0,0 3.53554,-0.61872 4.50781,-1.06066 0.97227,-0.44195 3.53553,-1.32583 3.88909,-0.70711 0.35355,0.61872 -0.81806,1.304 -1.591,1.76777 -0.88388,0.53033 -4.32848,1.0165 -5.48007,0.97227 -0.88258,-0.0339 -1.32583,-0.7955 -1.32583,-0.97227 z"
         id="path2943"
         sodipodi:nodetypes="cssssc"
         class="Dec2"
         style="fill:#000000;stroke:#505050;stroke-width:1;stroke-linejoin:round" />
      <path
         d="m 420.91561,956.92435 c 0,0 -2.38648,1.76777 -3.88908,3.18198 -1.50261,1.41422 -5.12653,5.74525 -5.12653,5.74525 l 3.88909,-3.71231 c 0,0 -0.97227,5.65685 -0.97227,8.48527 0,2.82843 0,7.33624 0.97227,8.92723 0.97227,1.59099 3.18198,6.01041 3.18198,6.01041 l 0,-9.19239 c 0,0 -1.14905,-0.44194 -0.88388,-4.77297 0.26516,-4.33103 3.18198,-7.07107 3.18198,-7.07107 l -0.35356,-7.6014 z"
         id="path2949"
         sodipodi:nodetypes="csccssccscc"
         class="Dec2"
         style="fill:#000000;stroke:#505050;stroke-width:1;stroke-linejoin:round" />
    </g>
    <g
       id="g_list_l"
       transform="translate(0,560)">
      <path
         class="Dec1"
         sodipodi:nodetypes="csscsssc"
         id="path2893"
         d="m 16.623913,840.98718 c 0,0 1.625,-3.125 5.5,-3 3.875,0.125 5.125,3.875 5.125,6.75 0,2.875 0.25,7.625 0.25,7.625 0,0 -9.25,-0.25 -12.125,-1.5 -2.875,-1.25 -5.299947,-4.47568 -5.125,-6.75 0.125,-1.625 1.375,-3.125 2.875,-3.5 1.581139,-0.39528 3.5,0.5 3.5,0.375 z"
         style="fill:#000000;stroke:#808080;stroke-width:1;stroke-linejoin:round" />
      <path
         d="m 62.225397,866.66218 c 0,0 0.176777,-3.18198 -0.441942,-5.03814 -0.618718,-1.85615 -2.563262,-3.71231 -1.502602,-5.65685 0.728186,-1.33501 2.563262,-0.70711 3.535534,0.0884 0.972272,0.79549 1.767767,2.20971 1.767767,2.20971 0,0 2.65165,-0.26517 3.800699,0.97227 1.149049,1.23744 0.795495,4.06586 -1.59099,5.21491 -2.386486,1.14905 -5.745243,1.94455 -5.568466,2.20971 z"
         id="path2890"
         sodipodi:nodetypes="cssscssc"
         class="Dec1"
         style="fill:#000000;stroke:#808080;stroke-width:1;stroke-linejoin:round" />
      <path
         d="m 80.610173,861.59442 c 0,0 2.298097,-6.36396 7.247845,-6.36396 4.949747,0 7.954951,4.24264 8.485281,7.07106 0.53033,2.82843 0.353553,10.07627 0.353553,10.07627 0,0 -8.308504,1.41422 -13.611805,0.17678 -5.303301,-1.23743 -7.247845,-3.53553 -7.247845,-6.18718 0,-2.65165 4.772971,-4.77297 4.772971,-4.77297 z"
         id="path2885"
         sodipodi:nodetypes="csscssc"
         class="Dec1"
         style="fill:#000000;stroke:#808080;stroke-width:1;stroke-linejoin:round" />
      <path
         d="m 42.77996,876.62755 c 0,0 -5.922019,-0.88388 -7.159456,0.53033 -1.237437,1.41422 -0.883883,3.27037 0.795495,5.03814 1.679379,1.76777 3.448708,3.23036 5.480078,1.76777 2.209708,-1.59099 0.883883,-7.15946 0.883883,-7.33624 z"
         id="path2892"
         sodipodi:nodetypes="csssc"
         class="Dec1"
         style="fill:#000000;stroke:#808080;stroke-width:1;stroke-linejoin:round" />
      <path
         d="m 34.625,910.06218 c 0,0 0.516431,-3.22874 -1.625,-6 -2.125,-2.75 -2.593076,-5.683 -0.875,-8 1.037014,-1.39852 2.757319,-2.25646 4.375,-1.375 1.405097,0.76562 1.75,2.625 1.75,2.625 0,0 3.685664,0.70252 4.75,2.125 0.972363,1.29955 1.406784,4.0555 0.25,6 -1.099528,1.84825 -2.90733,2.25647 -4.75,2.625 -1.875,0.375 -4.25,1.875 -3.875,2 z"
         id="path2891"
         sodipodi:nodetypes="cssscsssc"
         class="Dec1"
         style="fill:#000000;stroke:#808080;stroke-width:1;stroke-linejoin:round" />
      <path
         d="m 49.375,916.24218 c 0,0 0.25,-3.625 2,-6 1.75,-2.375 2.625,-5.375 1.5,-7.875 -1.125,-2.5 -3.125,-3.375 -4.5,-2.5 -1.375,0.875 -2.375,1.5 -2.375,1.5 0,0 0.875,2.375 0.875,3.875 0,1.5 -2.125,5.25 -2.125,5.25 l 4.625,5.75 z"
         id="path2895"
         class="Dec1"
         style="fill:#000000;stroke:#808080;stroke-width:1;stroke-linejoin:round" />
      <path
         d="m 62.755727,909.69796 c 0,0 0.90349,-7.48712 6.363961,-7.42462 3.335253,0.0382 6.167577,2.96415 7.581791,4.55514 1.414214,1.59099 3.908694,5.87468 3.908694,5.87468 0,0 -3.18198,-0.17678 -5.126524,1.06066 -1.944544,1.23744 -4.772971,4.59619 -8.838835,4.77297 -4.065864,0.17678 -6.633568,-0.96783 -7.071068,-3.35876 -0.5091,-2.78223 3.005204,-5.3033 3.181981,-5.48007 z"
         id="path2887"
         class="Dec1"
         sodipodi:nodetypes="csscsssc"
         style="fill:#000000;stroke:#808080;stroke-width:1;stroke-linejoin:round" />
      <path
         d="m 29.875,932.88402 c 0,0 -0.375,3.125 0.375,4.625 0.853302,1.7066 2.375,4.625 1.125,6 -1.25,1.375 -3.375,1.25 -4.625,0.5 -1.25,-0.75 -2.5,-2.25 -2.5,-2.25 0,0 -2.25,-0.375 -3.375,-1.625 -1.125,-1.25 -1.125,-3.625 1,-4.75 2.125,-1.125 8,-2.375 8,-2.5 z"
         id="path2901"
         sodipodi:nodetypes="cssscssc"
         class="Dec1"
         style="fill:#000000;stroke:#808080;stroke-width:1;stroke-linejoin:round" />
      <path
         d="m 14.25,952.21218 c 0,0 2.125,-2 4.25,-1.875 2.125,0.125 5,1.75 5,5.25 0,3.5 -1.375,5.625 -1.375,6.25 0,0.625 -0.125,3.625 -0.125,3.625 0,0 -3.375,-2.5 -6.5,-3.375 -3.125,-0.875 -6.125,-1.625 -7.125,-5 -1,-3.375 0.75,-4.25 2,-4.875 1.25,-0.625 3.75,-0.125 3.875,0 z"
         id="path2897"
         class="Dec1"
         style="fill:#000000;stroke:#808080;stroke-width:1;stroke-linejoin:round" />
      <path
         d="m 72.713196,961.25827 c 0,0 -2.375,-1 -4.375,-3.125 -2,-2.125 -3.625,-3.375 -5.75,-2.75 -2.125,0.625 -2.862051,2.19833 -2.5,3.375 0.5,1.625 2.625,3.625 2.625,3.625 0,0 -0.25,3.125 1.375,4.25 1.625,1.125 3,1 4.125,0.25 1.125,-0.75 1,-2.875 1.875,-3.875 0.527061,-0.60236 2.625,-1.75 2.625,-1.75 z"
         id="path2903"
         sodipodi:nodetypes="cssscsssc"
         class="Dec1"
         style="fill:#000000;stroke:#808080;stroke-width:1;stroke-linejoin:round" />
      <path
         d="m 74.869876,966.46218 c 0,0 2.625,-4.25 5.5,-4.375 2.875,-0.125 5.875,1.875 5.875,5 0,3.125 -0.875,4.875 -0.875,6 0,1.125 0.125,2.875 0.125,2.875 0,0 -2.75,-1.25 -4.625,-1.125 -1.999464,0.1333 -5.093657,1.70317 -8.25,0.125 -2,-1 -2.625,-4.125 -1.375,-5.75 1.25,-1.625 3.5,-2.75 3.625,-2.75 z"
         id="path2905"
         sodipodi:nodetypes="cssscsssc"
         class="Dec1"
         style="fill:#000000;stroke:#808080;stroke-width:1;stroke-linejoin:round"
         inkscape:export-filename="I:\Kolibri\svn\programs\games\nu_pogodi\trunk\kv_decor.png"
         inkscape:export-xdpi="67.5"
         inkscape:export-ydpi="67.5" />
      <path
         d="m 9.5,994.28709 c 0,0 5.656854,-0.53033 8.396893,0.35355 2.740039,0.88388 11.402097,0.70711 11.402097,0.70711 0,0 -3.71231,-2.82843 -3.270369,-3.88909 0.441942,-1.06066 4.331029,-1.76777 4.331029,-1.76777 0,0 -1.414214,-1.32583 -2.563262,-1.41421 -1.348098,-0.10369 -2.740039,1.23743 -2.740039,1.23743 l 0,-4.06586 c 0,0 -1.59099,3.27037 -2.740038,3.27037 -1.149049,0 -3.358758,-5.39169 -3.358758,-5.39169 0,0 0.265165,3.8007 -0.883883,4.41942 -1.149049,0.61872 -4.861359,-1.5026 -4.861359,-1.5026 0,0 2.65165,3.18198 1.767767,3.62392 -0.883884,0.44194 -4.419418,-0.35356 -4.419418,-0.35356 0,0 2.121321,1.50261 2.121321,2.38649 0,0.88388 -3.181981,2.38649 -3.181981,2.38649 z"
         id="path2924"
         class="Dec1"
         sodipodi:nodetypes="cscscsccscscscsc"
         style="fill:#000000;stroke:#808080;stroke-width:1;stroke-linejoin:round" />
      <path
         d="m 11.1,1000.3898 c 0,0 2.477343,3.6635 6.452349,3.8891 3.114991,0.1768 3.809484,-0.3535 5.833631,-0.088 0.863149,0.1131 2.916816,1.2375 2.916816,1.2375 0,0 -2.386486,-2.033 -2.386486,-2.9169 0,-0.8838 0.53033,-2.82839 0.53033,-2.82839 0,0 -1.06066,0.44199 -2.386485,0.44199 -0.814899,0 -2.386485,-0.88393 -2.386485,-0.88393 0,0 -0.618719,1.23743 -1.414214,1.06063 -0.795495,-0.1767 -2.563262,-1.76773 -2.563262,-1.76773 0,0 0.353553,1.41421 -0.53033,1.76773 -0.883884,0.3536 -3.889087,0.1768 -4.065864,0.088 z"
         id="path2968"
         sodipodi:nodetypes="csscscscscsc"
         class="Dec1"
         style="fill:#000000;stroke:#808080;stroke-width:1;stroke-linejoin:round" />
      <path
         d="m 30.375,1001.7826 c 0,0 5.625,0.5 7.625,2 2,1.5 5.375,2.875 11.5,2.375 6.125,-0.5 9.25,-1.375 10.875,-1.375 1.625,0 4.125,0.5 4.125,0.5 0,0 -2.5,-1.125 -2.625,-2.25 -0.125,-1.125 2.375,-2.5 2.375,-2.5 0,0 -2.5,1.25 -3.875,0.75 -1.375,-0.5 -1.75,-4.25001 -1.75,-4.25001 0,0 -0.5,2.375 -1.625,2.375 -1.125,0 -2.625,-4.875 -2.625,-4.875 0,0 -1,3.625 -2,3.5 -1,-0.125 -2.625,-3.875 -2.625,-3.875 0,0 -1,4.375 -3,4.25 -2,-0.125 -4.5,-3.875 -5.5,-4 -1,-0.125 -2.25,-0.25 -2.25,-0.25 0,0 2.375,3 1,3.25 -1.375,0.25 -5.625,-2.625 -5.625,-2.625 0,0 1.25,3.125 0.25,4.5 -1,1.37501 -4,2.62501 -4.25,2.50001 z"
         id="path2899"
         sodipodi:nodetypes="cssscscscscscsscscsc"
         class="Dec1"
         style="fill:#000000;stroke:#808080;stroke-width:1;stroke-linejoin:round" />
      <path
         d="m 0,1004.7622 c 0,0 0.63249044,2.0252 1.755,2.1 1.875,0.125 3.125,-3.875 3.125,-3.875 0,0 0.4120887,4.0664 1.625,4.875 2.25,1.5 7.75,1 7.75,1 0,0 -2.75,3.125 -4.125,4.125 -1.375,1 -4.5909925,1.8732 -4.5,3.875 0.125,2.75 4.25,3.875 4.875,5 0.625,1.125 1.5,3.125 1.5,3.125 l 2.75,-2.125 c 0,0 2.002329,2.7189 3.875,2.875 3,0.25 2.5,-4.125 2.5,-4.125 0,0 2.625,2.375 3.125,3.625 0.5,1.25 0.378444,3.3337 2.125,3.5 2.625,0.25 5.625,-2.875 5.625,-2.875 0,0 0.403391,1.9219 -0.125,3.375 -0.5,1.375 -2.5,2.75 -2.5,2.75 0,0 0.5,0.875 1.375,1.5 0.875,0.625 2.625,1 2.625,1 0,0 -1.875,0.75 -4.125,1.5 -2.25,0.75 -4.75,1.375 -4.75,1.375 l -24.505,0 0,-16.125 c 0,0 2.005,-0.875 2.13,-2.875 0.125,-2 -2.13,-2 -2.13,-2 l 0,-11.6 z"
         id="path2964"
         sodipodi:nodetypes="cscscsssccscsscscscscccscc"
         class="Dec1"
         style="fill:#000000;stroke:#808080;stroke-width:1;stroke-linejoin:round" />
      <path
         d="m 43.625,1037.3622 -3.875,-2.775 c 0,0 3.125,0.5 3.75,-0.75 0.625,-1.25 -1.25,-4.125 -1.25,-4.125 0,0 1.75,1.25 2.125,0.5 0.375,-0.75 -1,-3.25 -1,-3.25 0,0 4.625,1 5.25,0.25 0.625,-0.75 0.625,-4.125 0.625,-4.125 0,0 3.375,4.375 4.875,4.25 1.5,-0.125 2.5,-4.375 2.5,-4.375 0,0 3,3.25 4.875,3.25 1.875,0 3.5,-2.25 3.5,-2.25 0,0 2.125,2.75 3,3.5 0.875,0.75 4.5,2.375 4.5,2.375 0,0 -1.75,0.75 -1.125,1.75 0.625,1 3.125,2.125 3.125,2.125 l -5.625,3.65 -25.25,0 z"
         id="path2966"
         class="Dec1"
         sodipodi:nodetypes="ccscscscscscscsccc"
         style="fill:#000000;stroke:#808080;stroke-width:1;stroke-linejoin:round" />
    </g>
    <g
       id="g_list_r"
       transform="translate(0,560)">
      <path
         class="Dec1"
         sodipodi:nodetypes="cssscsssc"
         id="path2896"
         d="m 376.53436,830.53891 c 0,0 5.44607,3.24094 11.84404,2.65165 6.71751,-0.61872 9.36917,-6.62912 9.36917,-9.8111 0,-3.18199 -1.76778,-5.39169 -3.27038,-6.36397 -1.408,-0.91106 -5.03813,-1.85615 -5.03813,-1.85615 0,0 -1.86848,-3.29551 -5.65686,-4.68458 -2.65164,-0.97228 -7.07107,1.14905 -9.01561,4.15425 -1.46275,2.26061 -1.23743,5.74524 -0.53033,9.19239 0.67865,3.30842 2.47488,6.89429 2.2981,6.71751 z"
         style="fill:#000000;stroke:#808080;stroke-width:1;stroke-linejoin:round" />
      <path
         d="m 404.64785,882.56047 c 0,0 2.74004,-3.18198 5.12652,-4.94974 2.38649,-1.76777 2.74004,-4.94975 1.5026,-7.68979 -1.23743,-2.74004 -5.83363,-2.2981 -5.83363,-2.2981 0,0 -2.91682,-0.79549 -4.5078,-0.0884 -1.92667,0.8563 -3.53554,2.82843 -3.53554,4.94975 0,2.12132 0.44194,3.44715 2.65165,5.12653 2.20971,1.67937 4.5962,5.03813 4.5962,4.94974 z"
         id="path2910"
         sodipodi:nodetypes="csscsssc"
         class="Dec1"
         style="fill:#000000;stroke:#808080;stroke-width:1;stroke-linejoin:round" />
      <path
         d="m 374.25572,909.96116 c 0,0 -7.80396,-7.60139 -8.39689,-11.66726 -0.61871,-4.24264 3.7871,-8.31137 6.45235,-8.66206 3.35876,-0.44194 8.39689,3.44715 8.39689,3.44715 0,0 -3.80069,1.94454 -4.15425,3.35875 -0.35355,1.41422 0.61872,4.06587 0,6.01041 -0.61872,1.94455 -2.12132,7.6014 -2.2981,7.51301 z"
         id="path2914"
         sodipodi:nodetypes="csscssc"
         class="Dec1"
         style="fill:#000000;stroke:#808080;stroke-width:1;stroke-linejoin:round" />
      <path
         d="m 380.4728,909.52661 c 0,0 7.2676,-3.26702 7.15945,-6.18718 -0.0884,-2.38649 -1.23743,-3.18198 -2.29809,-3.44715 -0.8575,-0.21438 -2.74004,0 -2.74004,0 0,0 -1.41421,-1.14904 -2.74004,-0.88388 -1.24095,0.24819 -2.98894,2.00025 -2.12132,4.33103 0.7898,2.12172 2.82843,6.18718 2.74004,6.18718 z"
         id="path2912"
         sodipodi:nodetypes="csscssc"
         class="Dec1"
         style="fill:#000000;stroke:#808080;stroke-width:1;stroke-linejoin:round" />
      <path
         d="m 352.93022,929.16218 c 0,0 9.8995,-9.28077 9.81111,-12.81631 -0.0884,-3.53553 -2.74004,-6.27557 -5.48008,-6.45235 -2.74004,-0.17677 -5.74524,1.14905 -5.74524,1.14905 0,0 -2.38649,-2.47487 -5.39169,-2.20971 -3.0052,0.26517 -5.83363,3.8007 -5.92202,7.07107 -0.0884,3.27037 2.38649,6.27557 4.77297,7.77818 2.38649,1.5026 7.77818,5.39168 7.95495,5.48007 z"
         id="path2908"
         class="Dec1"
         style="fill:#000000;stroke:#808080;stroke-width:1;stroke-linejoin:round" />
      <path
         d="m 357.08658,965.21484 c 0,0 3.18198,2.03293 5.48007,1.94454 2.2981,-0.0884 4.33103,-3.09359 3.35876,-5.92202 -0.97227,-2.82842 -1.5026,-3.71231 -2.74004,-5.3033 -1.58209,-2.03411 -4.77297,-4.86136 -4.77297,-4.86136 0,0 -6.01041,6.62913 -6.89429,8.48528 -0.88388,1.85616 -0.7955,3.97748 1.14905,5.30331 1.94454,1.32582 4.5078,0.53033 4.41942,0.35355 z"
         id="path2898"
         sodipodi:nodetypes="cssscssc"
         class="Dec1"
         style="fill:#000000;stroke:#808080;stroke-width:1;stroke-linejoin:round" />
      <path
         d="m 395.17787,965.41484 c 0,0 2.38649,-2.38649 5.39169,-2.12132 3.00521,0.26516 5.56847,2.38648 5.65686,6.0104 0.0884,3.62393 -8.3969,13.25826 -8.3969,13.25826 0,0 -10.51821,-7.68979 -11.31371,-10.16466 -0.79549,-2.47488 -0.53033,-4.77298 1.50261,-6.0988 2.03293,-1.32583 7.15945,-0.88388 7.15945,-0.88388 z"
         id="path2904"
         class="Dec1"
         style="fill:#000000;stroke:#808080;stroke-width:1;stroke-linejoin:round" />
      <path
         d="m 329.99937,986.15176 c 0,0 -3.01045,-7.31775 -3.27037,-10.78338 -0.26516,-3.53553 1.31041,-8.21131 3.8007,-9.63433 1.85616,-1.06066 4.86136,-0.70711 5.83363,0.53033 0.97228,1.23744 2.56327,4.06586 2.56327,4.06586 0,0 3.62392,2.47488 4.15425,5.3033 0.53033,2.82843 -1.41719,6.13044 -3.62392,6.8943 -2.29811,0.79549 -5.21492,0.26516 -6.71752,0.97227 -1.5026,0.7071 -2.82843,2.82842 -2.74004,2.65165 z"
         id="path2906"
         sodipodi:nodetypes="cssscsssc"
         class="Dec1"
         style="fill:#000000;stroke:#808080;stroke-width:1;stroke-linejoin:round" />
      <path
         d="m 367.80159,1006.8735 c 0,0 5.3033,1.591 13.25825,1.2374 7.95495,-0.3535 12.19759,-2.4749 13.78858,-2.5632 1.59099,-0.088 5.12652,-0.088 5.12652,-0.088 0,0 -5.12652,-2.1214 -5.12652,-3.2704 0,-1.1491 2.20971,-3.97749 2.20971,-3.97749 0,0 -1.85616,1.59099 -3.44715,1.59099 -1.59099,0 -3.09359,-3.62392 -3.09359,-3.62392 0,0 -0.35355,2.82843 -2.12132,2.82843 -1.76777,0 -5.65685,-1.94455 -5.65685,-1.94455 0,0 2.38648,2.56327 2.03293,3.53554 -0.35356,0.9723 -2.03293,1.4142 -3.35876,1.0607 -1.32582,-0.3536 -3.97747,-3.09363 -3.97747,-3.09363 0,0 0.61871,3.09363 -0.53033,3.88913 -1.14905,0.7954 -7.6014,-2.74009 -7.6014,-2.74009 0,0 2.56326,2.65169 2.29809,3.88909 -0.26516,1.2374 -3.88908,3.3588 -3.80069,3.2704 z"
         id="path2902"
         class="Dec1"
         style="fill:#000000;stroke:#808080;stroke-width:1;stroke-linejoin:round" />
      <path
         d="m 362.55584,1008.9587 c 0,0 -0.97227,-1.9446 -2.12132,-2.6517 -1.14905,-0.7071 -2.20971,-1.591 -2.20971,-1.591 0,0 0.44195,-0.9722 1.85616,-1.149 1.41421,-0.1768 3.88909,0.1768 3.88909,0.1768 0,0 -2.2981,-2.4749 -4.24264,-2.7401 -1.94455,-0.2652 -4.41942,-0.088 -4.41942,-0.088 0,0 -0.0884,-1.76776 0.97227,-2.29809 1.06066,-0.53033 2.38649,-1.06066 2.38649,-1.06066 0,0 -2.20971,-0.35355 -3.44715,0.0884 -0.6864,0.24515 -2.20971,1.32583 -2.20971,1.32583 l -2.20971,-3.62392 c 0,0 -0.0884,1.59099 -1.14905,1.76776 -1.06066,0.17678 -5.65685,-3.09359 -5.65685,-3.09359 0,0 2.03141,3.98081 1.59099,4.94975 -0.44194,0.97227 -4.94975,0.88388 -4.94975,0.88388 0,0 2.68177,2.20274 2.56326,3.44714 -0.17677,1.8562 -1.14904,2.0329 -2.56326,2.2097 -2.07919,0.2599 -3.53553,2.8284 -3.53553,2.8284 0,0 4.68458,-0.2651 7.15945,0.8839 2.47488,1.1491 7.6014,1.4142 9.104,0.442 1.50261,-0.9723 3.35876,-1.4143 4.77298,-1.3259 1.41421,0.088 4.33102,0.7071 4.41941,0.6188 l 0,0 0,-4e-4 z"
         id="path2900"
         sodipodi:nodetypes="cscscscscsccscscsscsssccc"
         class="Dec1"
         style="fill:#000000;stroke:#808080;stroke-width:1;stroke-linejoin:round" />
      <path
         d="m 421.5,1001.2372 c 0,0 -0.325,1.875 -1.95,1.125 -1.625,-0.75 -1.875,-2.87502 -1.875,-2.87502 0,0 -0.96922,1.12502 -2,1.12502 -1.875,0 -1.75,-3.12502 -1.75,-3.12502 0,0 -0.61321,2.54842 -1.375,3.00002 -0.76179,0.4516 -1.875,-0.375 -1.875,-0.375 0,0 0.22141,4.0735 0.125,5.375 -0.25,3.375 -4.125,5 -4.5,6.875 -0.375,1.875 -0.75,3.5 -0.375,5.75 0.375,2.25 2.5,4.25 2.5,4.25 0,0 -0.25,1.375 -1.75,1.375 -0.875,0 -3.125,-0.5 -3.125,-0.5 0,0 1.26853,1.5626 -0.75,2.625 -2.375,1.25 -5.5,-0.5 -5.5,-0.5 0,0 1.12918,2.0413 -2.375,2.375 -2.625,0.25 -3.375,-2.5 -3.375,-2.5 0,0 1,1.25 -2.125,1.625 -3.125,0.375 -3.5,-0.875 -3.5,-0.875 0,0 0.77566,1.5792 -1.125,2.25 -2.125,0.75 -4.375,-0.75 -4.375,-0.75 0,0 -4.20235,4.4651 -5.25,4.875 -2.875,1.125 -5.875,-0.5 -5.875,-0.5 l 2.625,5.5 38,0 c 0,0 0.52594,-2.6388 2.25,-2.625 1.72406,0.014 1.625,2.625 1.625,2.625 l 7.7,0 0,-8.7 c 0,0 -3.10572,-1.5587 -3.7625,-3.862 -0.68981,-2.4191 3.7625,-2.4688 3.7625,-2.4688 l 0,-21.0942 z"
         id="path2950"
         sodipodi:nodetypes="cscsczcssscscscscscscsccczccczcc"
         class="Dec1"
         style="fill:#000000;stroke:#808080;stroke-width:1;stroke-linejoin:round" />
      <path
         d="m 362.1,1036.4622 c 0,0 -2.47257,-0.1668 -2.91451,-1.3168 -0.47982,-1.2486 0.88388,-1.6794 1.14905,-2.7401 0.23581,-0.9433 -0.44195,-1.8561 -0.44195,-1.8561 0,0 -0.92394,1.3842 -1.59099,0.8839 -1.06066,-0.7956 -0.61871,-3.0936 -0.61871,-3.0936 0,0 -1.85301,1.6791 -3.44716,1.6794 -2.2097,4e-4 -4.24263,-3.182 -4.24263,-3.182 0,0 -0.0884,2.298 -1.14905,2.5632 -1.06066,0.2652 -3.88909,-1.8561 -3.88909,-1.8561 0,0 0.7955,2.4748 -0.0884,3.7123 -0.88388,1.2374 -5.12652,0.3535 -5.12652,0.3535 0,0 1.23744,1.591 0.44194,2.7401 -0.99607,1.4388 -3.18198,1.8561 -3.18198,1.8561 l 1.59099,1.1562 24.50901,0 -1,-0.9 z"
         id="path2969"
         sodipodi:nodetypes="csscscscscscscccc"
         class="Dec1"
         style="fill:#000000;stroke:#808080;stroke-width:1;stroke-linejoin:round" />
    </g>
    <g
       id="g3758"
       transform="translate(0,560)">
      <path
         class="Dec1"
         sodipodi:nodetypes="csssssscsssssssssssssssssccssssscsssscscscsscsscscssscccc"
         id="path3756"
         d="m 0,801.34898 c 0,0 3.3587572,-1.59099 6.1871843,-1.06066 2.8284272,0.53033 19.0918827,11.49048 21.5667567,11.49048 2.474874,0 4.242641,-1.23743 5.656854,-0.35355 1.414214,0.88388 5.303301,4.59619 7.778175,4.77297 2.474874,0.17678 5.303301,0.88388 6.717514,0 1.414214,-0.88388 5.833631,-2.65165 6.894292,-2.2981 1.06066,0.35356 5.3033,2.47488 5.3033,2.47488 0,0 4.242641,-6.54074 4.772971,-8.30851 0.53033,-1.76777 -0.353553,-7.77817 1.59099,-9.36916 1.944544,-1.59099 10.783379,-7.24785 13.611806,-8.13173 2.828427,-0.88388 10.900605,-7.38668 12.904699,-7.6014 4.949747,-0.53033 7.778178,4.59619 9.015608,4.41942 1.23744,-0.17678 8.48528,4.06586 11.31371,7.24784 2.82843,3.18198 12.55115,11.31371 15.2028,10.78338 2.65165,-0.53033 8.3085,-1.41421 10.07627,-2.65165 1.76777,-1.23744 0.70711,-5.83363 1.41421,-7.42462 0.70711,-1.59099 4.94975,-5.12652 5.83363,-5.65685 0.88389,-0.53034 2.65165,0.35355 2.65165,1.23743 0,1.591 -4.41941,4.77297 -4.06586,6.54074 0.53033,2.65165 6.89429,3.88909 15.2028,2.2981 8.3085,-1.59099 21.03642,-5.83363 23.15774,-7.6014 2.12132,-1.76777 4.24264,-4.94975 4.24264,-5.83363 0,-0.88389 0.53033,-3.53554 3.35876,-3.53554 2.82843,0 11.31371,4.24264 13.08148,4.24264 1.76776,0 7.42462,-1.41421 10.07627,-1.23743 5.13296,0.31358 9.52868,3.18394 14.67246,4.06586 4.94975,0.35356 9.19239,-0.88388 12.1976,-3.18198 1.39012,-1.06304 4.59619,-3.53553 5.83363,-3.53553 1.23743,0 9.19238,5.3033 11.84404,6.36396 2.65165,1.06066 7.60139,3.53553 13.6118,2.2981 6.01041,-1.23744 11.13693,-3.88909 15.9099,-1.76777 4.77297,2.12132 8.13173,2.65165 8.13173,2.65165 0,0 -1.59099,-4.06587 0.17678,-4.41942 1.76777,-0.35355 6.01041,3.53554 8.66206,4.06587 2.65165,0.53033 6.89429,-5.30331 10.42982,-6.54074 3.53554,-1.23744 7.21614,-1.6627 14.67247,0.53033 6.01041,1.76776 7.24784,-0.88389 7.24784,-0.88389 0,0 5.3033,3.35876 7.42462,3.35876 2.12132,0 5.83363,0.17678 5.83363,0.17678 0,0 3.18198,5.12652 5.83363,6.36396 2.65166,1.23744 8.13173,2.2981 8.13173,2.2981 0,0 -3.0052,3.18198 -3.35875,5.12652 -0.35356,1.94454 0.35355,11.13693 -0.70711,13.43503 -1.06066,2.2981 -2.47488,6.36396 -2.47488,6.36396 0,0 9.36917,-0.70711 12.02082,-3.35876 2.65165,-2.65165 6.89429,-7.24784 7.6014,-10.25305 0.7071,-3.0052 0.7071,-6.71751 0.7071,-6.71751 0,0 4.45987,0.28904 7.6014,-2.2981 3.00521,-2.47487 3.53554,-4.59619 3.53554,-4.59619 0,0 6.71751,1.94454 9.36916,1.41421 2.65165,-0.53033 6.71752,-4.94974 8.83884,-4.94974 2.12132,0 9.01561,0.17677 10.25304,0.35355 1.23744,0.17678 4.45345,1.06066 4.45345,1.06066 l 0,-19.85507 -422,0 0,27.9868 z"
         style="fill:#000000;stroke:#808080;stroke-width:1;stroke-linejoin:round" />
      <path
         d="m 19.8,780.0301 c 0,0 5.391689,5.03813 9.722718,6.09879 4.331029,1.06066 9.104,1.50261 12.020815,2.20972 2.916816,0.7071 6.52416,2.29984 11.136932,2.2097 7.160272,-0.13991 13.258252,-5.21491 16.175068,-5.3033 2.916815,-0.0884 5.429723,0.54675 7.336233,-0.35355 3.181981,-1.5026 9.545941,-6.98268 16.263456,-7.15946 6.717514,-0.17678 11.578878,2.47488 13.435028,3.97748 1.85616,1.5026 7.33255,4.38815 9.36917,5.03814 4.15425,1.32582 9.98788,-0.7955 9.98788,-0.7955"
         id="path3748"
         sodipodi:nodetypes="cssssssssc"
         class="LineD"
         style="fill:none;stroke:#ffffff;stroke-width:5.30000019;stroke-linecap:round;stroke-linejoin:miter;stroke-miterlimit:4;stroke-opacity:1;stroke-dasharray:none" />
      <path
         d="m 159.1,785.65171 c 0,0 1.67937,0.7071 3.09359,0.26516 1.41421,-0.44194 11.71513,-5.23619 13.25825,-5.92202 2.38649,-1.06066 7.07107,-0.17678 7.07107,-0.17678"
         id="path3752"
         sodipodi:nodetypes="cssc"
         class="LineD"
         style="fill:none;stroke:#ffffff;stroke-width:5.30000019;stroke-linecap:round;stroke-linejoin:miter;stroke-miterlimit:4;stroke-opacity:1;stroke-dasharray:none" />
      <path
         d="m 208.41972,782.7111 c 0,0 5.65686,-2.20971 8.66206,-1.94454 3.00521,0.26516 6.45123,2.08054 8.92722,2.03293 4.5962,-0.0884 9.10401,-1.67938 9.10401,-1.67938"
         id="path3754"
         sodipodi:nodetypes="cssc"
         class="LineD"
         style="fill:none;stroke:#ffffff;stroke-width:5.30000019;stroke-linecap:round;stroke-linejoin:miter;stroke-miterlimit:4;stroke-opacity:1;stroke-dasharray:none" />
      <path
         d="m 259.4,781.31749 c 0,0 4.24264,2.91681 6.62913,3.53553 2.38648,0.61872 7.86656,-0.44194 9.8111,-0.0884 1.94455,0.35355 10.16466,1.14905 11.57888,0.97227 1.41421,-0.17677 5.48007,-2.12132 9.19239,-2.12132 3.71231,0 10.6066,-0.53033 12.02081,-1.14905 1.41421,-0.61871 5.48008,-3.09359 5.48008,-3.09359"
         id="path3750"
         class="LineD"
         style="fill:none;stroke:#ffffff;stroke-width:5.30000019;stroke-linecap:round;stroke-linejoin:miter;stroke-miterlimit:4;stroke-opacity:1;stroke-dasharray:none" />
      <path
         d="m 344.45,780.51532 c 0,0 11.22418,2.71157 13.08148,2.65165 2.74003,-0.0884 6.08267,-1.03086 8.39689,-0.61872 2.71019,0.48266 18.82739,5.88574 22.45064,5.65686 3.44142,-0.2174 9.10277,-5.09061 11.75565,-5.12653 2.82779,-0.0383 6.89429,1.94455 6.89429,1.94455"
         id="path2974"
         sodipodi:nodetypes="cssssc"
         class="LineD"
         style="fill:none;stroke:#ffffff;stroke-width:5.30000019;stroke-linecap:round;stroke-linejoin:miter;stroke-miterlimit:4;stroke-opacity:1;stroke-dasharray:none" />
    </g>
    <g
       id="g2913"
       transform="translate(0,560)">
      <path
         class="Dec1"
         sodipodi:nodetypes="cssssssssssscscscsscscscscscscscscscscscscscscscscscscscscscsc"
         id="path2911"
         d="m 132.375,1028.8633 c 0,0 2.625,5.125 7.875,5.375 5.25,0.25 12.75,-2.75 16.625,-2.875 3.875,-0.125 5.125,2.375 11.75,2.375 6.625,0 13.625,0.375 18.375,-2.75 4.75,-3.125 8.625,-4.375 13.75,-3.25 5.125,1.125 8.375,1.125 12,0 3.625,-1.125 8.125,-1 12,1.625 3.875,2.625 11.125,1.25 13.5,1.5 2.375,0.25 3.125,1.875 8.25,2.875 2.5625,0.5 6.58891,1.303 11.67187,1.1562 2.39651,-0.069 6.95313,-1.4062 9.07813,-2.7812 3.85311,-2.4932 10,-4.5 10,-4.5 0,0 -2.125,-0.125 -3.25,-1.25 -1.125,-1.125 -1.125,-4.625 -1.125,-4.625 0,0 -1.125,3.875 -2.625,4.625 -1.5,0.75 -5,-1.375 -5,-1.375 0,0 -1.5,5.5 -4.375,6.625 -2.875,1.125 -4.875,0.75 -6,-0.125 -1.125,-0.875 -0.875,-3.125 -0.875,-3.125 0,0 -2.625,1 -3.625,0 -1,-1 -1.625,-5.375 -1.625,-5.375 0,0 -2.125,1.125 -4.375,-1.25 -2.25,-2.375 -2.25,-7.375 -2.25,-7.375 0,0 -1.82724,2.5541 -3.5,2.25 -2.75,-0.5 -2.625,-5.375 -2.625,-5.375 0,0 -1.78289,4.9752 -4.375,4.125 -3.39487,-1.1136 -2.5,-6.125 -2.5,-6.125 0,0 -0.75,3.5 -2.125,3.25 -1.375,-0.25 -3,-3.25 -3,-3.25 0,0 0,4.25 -1.25,5.25 -1.25,1 -4.25,-2 -4.25,-2 0,0 -0.25,2.25 -1.375,2.25 -1.125,0 -3.25,-2.125 -3.25,-2.125 0,0 0.36622,2.5508 -1.5,3.125 -1.625,0.5 -4.875,-1.75 -4.875,-1.75 0,0 -0.875,0.875 -2.25,0 -1.375,-0.875 -2.75,-2.375 -2.75,-2.375 0,0 0.5,1.5 -1.75,1.5 -2.25,0 -4.625,-4.875 -4.625,-4.875 0,0 -0.75,2.5 -1.125,3.5 -0.375,1 -2.125,0.5 -2.125,0.5 0,0 1,4.5 -0.125,5.625 -1.52069,1.5207 -4.125,-1.125 -4.125,-1.125 0,0 -1.25,1.375 -2.25,1.25 -1,-0.125 -2.375,-1.375 -2.375,-1.375 0,0 -0.82447,1.2334 -2.125,1.125 -3,-0.25 -6.625,-5.625 -6.625,-5.625 0,0 -0.125,1.875 -1.625,1.875 -1.5,0 -3.25,-3.25 -3.25,-3.25 0,0 -0.97961,1.5775 -2.375,1.5 -2.25,-0.125 -3.875,-5.25 -3.875,-5.25 0,0 -2.65612,5.2847 -4.25,5.625 -2.18236,0.4659 -4.625,-2.75 -4.625,-2.75 0,0 -2.25,1 -3.75,1.375 -1.5,0.375 -5.25,-0.375 -5.25,-0.375 0,0 2.35083,1.23 2.625,2.875 0.375,2.25 -8.5,4.75 -8.5,4.75 0,0 4.5,0.073 4.5,1.75 0,2.875 -9.625,4.375 -9.625,4.375 0,0 2.68589,1.5449 2.5,3.125 -0.25,2.125 -5.125,1.375 -5.375,1.125 z"
         style="fill:#000000;stroke:#808080;stroke-width:1;stroke-linejoin:round" />
      <path
         d="m 231.375,1021.0851 c 0,0 2.625,-2.75 0.375,-4.25 -2.25,-1.5 -4,1.125 -4,1.125 0,0 -1.125,-2.25 -2.875,-1.375 -1.52069,0.7604 -1.25,3.125 -1.25,3.125 0,0 -1.33006,-0.4498 -1.75,1.125 -0.5,1.875 2.5,3 2.5,3 0,0 -0.625,2.75 0.875,3.625 1.5,0.875 3.5,-1.375 3.5,-1.375 0,0 3.20468,0.7201 4.125,-0.625 1.625,-2.375 -1.375,-4.375 -1.5,-4.375 z"
         id="path2907"
         sodipodi:nodetypes="cscscscscsc"
         class="Dira"
         style="fill:#ffffff;stroke:#808080;stroke-width:1;stroke-linejoin:round" />
      <path
         d="m 161.25,1015.6148 c 0,0 1.75,-1.625 3.375,-1 1.625,0.625 1,3.125 1,3.125 0,0 2.30328,0.1311 2.5,2 0.25,2.375 -2.875,2.75 -2.875,2.75 0,0 0.15972,2.2531 -1.5,3 -2.5,1.125 -3.25,-1.875 -3.25,-1.875 0,0 -3.125,0.5 -3.5,-1.625 -0.375,-2.125 2,-2.375 2,-2.375 0,0 -1.375,-1.625 -0.5,-3 0.875,-1.375 2.875,-0.75 2.75,-1 z"
         id="path2909"
         sodipodi:nodetypes="cscscscscsc"
         class="Dira"
         style="fill:#ffffff;stroke:#808080;stroke-width:1;stroke-linejoin:round" />
      <path
         d="m 182,984.25879 c 0,0 2.25,3.375 4.625,3.375 2.375,0 2.75,-1.25 6.5,-0.875 3.75,0.375 6.87259,1.42664 9,1.5 3.625,0.125 7.875,-3.25 7.875,-3.25 0,0 -2.75,1.25 -3.75,0.5 -1,-0.75 -0.625,-5.125 -0.625,-5.125 0,0 -1.25,2.125 -2.375,2 -1.125,-0.125 -2.125,-3.5 -2.125,-3.5 0,0 -1.375,3.25 -2.75,3.25 -1.375,0 -6.875,-4.5 -6.875,-4.5 0,0 1.375,4 -0.25,4.75 -1.625,0.75 -5.625,-2.875 -5.625,-2.875 0,0 1.5,3.75 0.125,4.375 -1.375,0.625 -3.375,0.375 -3.75,0.375 z"
         id="path2888"
         sodipodi:nodetypes="cssscscscscscsc"
         class="Dec1"
         style="fill:#000000;stroke:#808080;stroke-width:1;stroke-linejoin:round" />
    </g>
    <path
       d="m 388,1027.7622 -365.5,0 0,9.6 349.5,0 16,-9.6 z"
       id="path2889"
       class="Dec0"
       style="fill:#000000;stroke:#808080;stroke-width:1;stroke-linejoin:round" />
  </g>
</svg>
