<?xml version="1.0" encoding="UTF-8" standalone="no"?>
<!-- Created with Inkscape (http://www.inkscape.org/) -->

<svg
   xmlns:dc="http://purl.org/dc/elements/1.1/"
   xmlns:cc="http://creativecommons.org/ns#"
   xmlns:rdf="http://www.w3.org/1999/02/22-rdf-syntax-ns#"
   xmlns:svg="http://www.w3.org/2000/svg"
   xmlns="http://www.w3.org/2000/svg"
   xmlns:sodipodi="http://sodipodi.sourceforge.net/DTD/sodipodi-0.dtd"
   xmlns:inkscape="http://www.inkscape.org/namespaces/inkscape"
   width="420"
   height="280"
   id="svg2"
   version="1.1"
   inkscape:version="0.47 r22583"
   sodipodi:docname="kv_z_lost.svg"
   inkscape:export-filename="C:\kv_lost.png"
   inkscape:export-xdpi="67.5"
   inkscape:export-ydpi="67.5">
  <defs
     id="defs4">
    <marker
       inkscape:stockid="DotS"
       orient="auto"
       refY="0.0"
       refX="0.0"
       id="DotS"
       style="overflow:visible">
      <path
         id="path3834"
         d="M -2.5,-1.0 C -2.5,1.7600000 -4.7400000,4.0 -7.5,4.0 C -10.260000,4.0 -12.5,1.7600000 -12.5,-1.0 C -12.5,-3.7600000 -10.260000,-6.0 -7.5,-6.0 C -4.7400000,-6.0 -2.5,-3.7600000 -2.5,-1.0 z "
         style="fill-rule:evenodd;stroke:#000000;stroke-width:1.0pt;marker-start:none;marker-end:none"
         transform="scale(0.2) translate(7.4, 1)" />
    </marker>
    <marker
       inkscape:stockid="DotM"
       orient="auto"
       refY="0.0"
       refX="0.0"
       id="DotM"
       style="overflow:visible">
      <path
         id="path3831"
         d="M -2.5,-1.0 C -2.5,1.7600000 -4.7400000,4.0 -7.5,4.0 C -10.260000,4.0 -12.5,1.7600000 -12.5,-1.0 C -12.5,-3.7600000 -10.260000,-6.0 -7.5,-6.0 C -4.7400000,-6.0 -2.5,-3.7600000 -2.5,-1.0 z "
         style="fill-rule:evenodd;stroke:#000000;stroke-width:1.0pt;marker-start:none;marker-end:none"
         transform="scale(0.4) translate(7.4, 1)" />
    </marker>
    <marker
       inkscape:stockid="DotL"
       orient="auto"
       refY="0.0"
       refX="0.0"
       id="DotL"
       style="overflow:visible">
      <path
         id="path3828"
         d="M -2.5,-1.0 C -2.5,1.7600000 -4.7400000,4.0 -7.5,4.0 C -10.260000,4.0 -12.5,1.7600000 -12.5,-1.0 C -12.5,-3.7600000 -10.260000,-6.0 -7.5,-6.0 C -4.7400000,-6.0 -2.5,-3.7600000 -2.5,-1.0 z "
         style="fill-rule:evenodd;stroke:#000000;stroke-width:1.0pt;marker-start:none;marker-end:none"
         transform="scale(0.8) translate(7.4, 1)" />
    </marker>
    <marker
       inkscape:stockid="Arrow1Lstart"
       orient="auto"
       refY="0.0"
       refX="0.0"
       id="Arrow1Lstart"
       style="overflow:visible">
      <path
         id="path3766"
         d="M 0.0,0.0 L 5.0,-5.0 L -12.5,0.0 L 5.0,5.0 L 0.0,0.0 z "
         style="fill-rule:evenodd;stroke:#000000;stroke-width:1.0pt;marker-start:none"
         transform="scale(0.8) translate(12.5,0)" />
    </marker>
    <inkscape:perspective
       sodipodi:type="inkscape:persp3d"
       inkscape:vp_x="0 : 526.18109 : 1"
       inkscape:vp_y="0 : 1000 : 0"
       inkscape:vp_z="744.09448 : 526.18109 : 1"
       inkscape:persp3d-origin="372.04724 : 350.78739 : 1"
       id="perspective10" />
    <inkscape:perspective
       id="perspective2824"
       inkscape:persp3d-origin="0.5 : 0.33333333 : 1"
       inkscape:vp_z="1 : 0.5 : 1"
       inkscape:vp_y="0 : 1000 : 0"
       inkscape:vp_x="0 : 0.5 : 1"
       sodipodi:type="inkscape:persp3d" />
    <inkscape:perspective
       id="perspective2838"
       inkscape:persp3d-origin="0.5 : 0.33333333 : 1"
       inkscape:vp_z="1 : 0.5 : 1"
       inkscape:vp_y="0 : 1000 : 0"
       inkscape:vp_x="0 : 0.5 : 1"
       sodipodi:type="inkscape:persp3d" />
    <inkscape:perspective
       id="perspective2852"
       inkscape:persp3d-origin="0.5 : 0.33333333 : 1"
       inkscape:vp_z="1 : 0.5 : 1"
       inkscape:vp_y="0 : 1000 : 0"
       inkscape:vp_x="0 : 0.5 : 1"
       sodipodi:type="inkscape:persp3d" />
    <inkscape:perspective
       id="perspective2866"
       inkscape:persp3d-origin="0.5 : 0.33333333 : 1"
       inkscape:vp_z="1 : 0.5 : 1"
       inkscape:vp_y="0 : 1000 : 0"
       inkscape:vp_x="0 : 0.5 : 1"
       sodipodi:type="inkscape:persp3d" />
    <inkscape:perspective
       id="perspective3080"
       inkscape:persp3d-origin="0.5 : 0.33333333 : 1"
       inkscape:vp_z="1 : 0.5 : 1"
       inkscape:vp_y="0 : 1000 : 0"
       inkscape:vp_x="0 : 0.5 : 1"
       sodipodi:type="inkscape:persp3d" />
  </defs>
  <sodipodi:namedview
     id="base"
     pagecolor="#ffffff"
     bordercolor="#666666"
     borderopacity="1.0"
     inkscape:pageopacity="0.0"
     inkscape:pageshadow="2"
     inkscape:zoom="0.13076923"
     inkscape:cx="210"
     inkscape:cy="-1540"
     inkscape:document-units="px"
     inkscape:current-layer="layer1"
     showgrid="false"
     inkscape:window-width="1280"
     inkscape:window-height="728"
     inkscape:window-x="-4"
     inkscape:window-y="-4"
     inkscape:window-maximized="1" />
  <style
     type="text/css"
     id="style4">  .Zaba { fill:#000000; stroke:#202020; stroke-width:1;stroke-linejoin:round }
  .Dira { fill:#ffffff; stroke:#808080; stroke-width:1;stroke-linejoin:round }
  .Dec1 { fill:#000000; stroke:#808080; stroke-width:1;stroke-linejoin:round }
  .LineD { fill:none;stroke:#ffffff;stroke-width:5.3;stroke-linecap:round;stroke-linejoin:miter;stroke-opacity:1;stroke-miterlimit:4;stroke-dasharray:none }
  .Bab { fill:#d0d0d0;stroke:#000000;stroke-width:1;stroke-linejoin:round;fill-opacity:1;stroke-opacity:1 }
  .Gusen { fill:none;stroke:#000000;stroke-width:4;stroke-linecap:round;stroke-linejoin:miter;stroke-opacity:1;stroke-miterlimit:4;stroke-dasharray:none;marker-end:url(#DotS) }
  .GusL { fill:none;stroke:#ffffff;stroke-width:1.8;stroke-linecap:butt;stroke-linejoin:miter;stroke-opacity:1;stroke-miterlimit:4;stroke-dasharray:none }</style>
  <metadata
     id="metadata7">
    <rdf:RDF>
      <cc:Work
         rdf:about="">
        <dc:format>image/svg+xml</dc:format>
        <dc:type
           rdf:resource="http://purl.org/dc/dcmitype/StillImage" />
        <dc:title></dc:title>
      </cc:Work>
    </rdf:RDF>
  </metadata>
  <g
     inkscape:label="Layer 1"
     inkscape:groupmode="layer"
     id="layer1"
     transform="translate(0,-772.36218)">
    <rect
       style="fill:#ffffff;fill-opacity:1;fill-rule:nonzero;stroke:none"
       id="rect_fon"
       width="420"
       height="3640"
       x="0"
       y="772.36218"
       ry="0"
       inkscape:export-xdpi="90"
       inkscape:export-ydpi="90" />
    <g
       id="g3031">
      <path
         class="Bab"
         sodipodi:nodetypes="cscsc"
         id="path3027"
         d="m 92.005,973.11218 c 0,0 -0.125,4.125 0.875,7 1,2.875 6,5.625 6,5.625 0,0 0.404313,-6.16206 -0.25,-8.125 -1,-3 -6.25,-4.375 -6.625,-4.5 z"
         style="fill:#d0d0d0;fill-opacity:1;stroke:#000000;stroke-width:1;stroke-linejoin:round;stroke-opacity:1" />
      <path
         d="m 102.79388,983.48718 c 0,0 0.83758,-4.11226 -0.125,-7 -1.125,-3.375 -6.250002,-6.25 -6.250002,-6.25 0,0 -0.872883,4.79455 -0.518878,7.75 0.354005,2.95545 1.326758,5.31743 3.518878,7.375 l 3.375002,-1.875 z"
         id="path3025"
         sodipodi:nodetypes="csczcc"
         class="Bab"
         style="fill:#d0d0d0;fill-opacity:1;stroke:#000000;stroke-width:1;stroke-linejoin:round;stroke-opacity:1" />
      <path
         d="m 95.7,989.16218 c 0,0 -1.849555,1.5165 -1.365178,2.5 0.60959,1.23773 3,0.0207 4.75,-2.35433 1.749998,-2.375 4.124998,-2.375 5.249998,-3.375 1.125,-1 0.5013,-2.80048 -1.09467,-2.75 -0.75481,0.0239 -1.43123,1.00926 -2.21806,1.67748 -0.78684,0.66822 -2.187268,1.19752 -2.187268,1.19752 -2.439064,0.71916 -2.664971,1 -3,3.14645 L 95.7,989.2 z"
         id="path3029"
         sodipodi:nodetypes="csssscccc"
         class="Zaba"
         style="fill:#000000;stroke:#202020;stroke-width:1;stroke-linejoin:round" />
      <path
         class="Bab"
         sodipodi:nodetypes="csccsc"
         id="path3036"
         d="m 92.834822,984.43285 c 0,0 0.272748,1.81694 0.875,2.875 0.8918,1.56675 1.955806,1.89645 1.955806,1.89645 1.032463,-1.32486 2.08351,-2.23753 3.169194,-3.14645 0,0 -1.242394,-0.71451 -2.375,-1.125 -1.22694,-0.44468 -4,-0.375 -3.625,-0.5 z"
         style="fill:#d0d0d0;fill-opacity:1;stroke:#000000;stroke-width:1;stroke-linejoin:round;stroke-opacity:1" />
    </g>
    <g
       id="g3021"
       transform="translate(0,280)">
      <path
         style="fill:none;stroke:#000000;stroke-width:4;stroke-linecap:round;stroke-linejoin:miter;stroke-miterlimit:4;stroke-opacity:1;stroke-dasharray:none;marker-end:url(#DotS)"
         class="Gusen"
         sodipodi:nodetypes="csssc"
         id="path3019"
         d="m 92.95965,1018.5622 c 0,0 -0.707107,-3.0052 -3.181981,-3.5355 -2.474873,-0.5303 -10.606601,0.3536 -10.606601,-0.7071 0,-1.0607 1.59099,-6.5407 0.53033,-7.7782 C 78.06637,1004.6338 72.1,1001.5917 72.1,1001.5917" />
      <path
         d="m 85.588583,1008.6878 0,12.3744 m -12.197592,-9.3692 14.318912,-2.4748 M 71.8,1007.804 c 0,0 3.889088,-1.2375 4.949748,-3.182 1.553971,-2.8489 1.237436,-6.54079 1.237436,-6.54079"
         id="path3017"
         sodipodi:nodetypes="cccccsc"
         class="GusL"
         style="fill:none;stroke:#ffffff;stroke-width:1.79999995;stroke-linecap:butt;stroke-linejoin:miter;stroke-miterlimit:4;stroke-opacity:1;stroke-dasharray:none" />
    </g>
    <g
       id="g3042"
       transform="translate(0,560)">
      <path
         style="fill:none;stroke:#000000;stroke-width:4;stroke-linecap:round;stroke-linejoin:miter;stroke-miterlimit:4;stroke-opacity:1;stroke-dasharray:none;marker-end:url(#DotS)"
         class="Gusen"
         sodipodi:nodetypes="csssc"
         id="path3040"
         d="m 77.384776,994.56218 c 0,0 -2.298097,-1.59099 -2.740038,-2.74004 -0.441942,-1.14905 -0.358632,-7.3321 -1.149049,-8.3085 -1.502602,-1.85616 -6.540738,1.67938 -8.662058,1.41421 C 63.748772,984.79224 59,978.29872 59,978.29872" />
      <path
         d="m 64.724622,979.19752 c 0,0 -0.707107,2.12132 -2.474874,3.35876 C 60.481981,983.79371 57.3,984.32404 57.3,984.32404 m 22.804194,4.77297 -10.871767,0.26517 2.828427,-11.13693"
         id="path3038"
         class="GusL"
         style="fill:none;stroke:#ffffff;stroke-width:1.79999995;stroke-linecap:butt;stroke-linejoin:miter;stroke-miterlimit:4;stroke-opacity:1;stroke-dasharray:none"
         sodipodi:nodetypes="cscccc" />
    </g>
    <g
       id="g3050"
       transform="translate(0,840)">
      <path
         style="fill:none;stroke:#000000;stroke-width:4;stroke-linecap:round;stroke-linejoin:miter;stroke-miterlimit:4;stroke-opacity:1;stroke-dasharray:none;marker-end:url(#DotS)"
         class="Gusen"
         sodipodi:nodetypes="csssc"
         id="path3048"
         d="m 56.658951,988.96218 c 0,0 -2.764414,-3.54763 -4.065864,-3.80069 -3.18198,-0.61872 -6.406703,4.58186 -10.076272,1.14904 -2.740038,-2.56326 -1.767767,-5.92202 -2.032932,-7.68978 C 40.218718,976.85298 39.6,973.05228 39.6,973.05228" />
      <path
         d="m 35.5,977.3736 c 0,0 2.317891,1.3786 4.861359,1.06067 2.828427,-0.35356 4.331029,-2.47488 4.331029,-2.47488 m 6.629126,15.20279 1.06066,-13.70019 -13.700194,12.9047"
         id="path3046"
         sodipodi:nodetypes="cscccc"
         class="GusL"
         style="fill:none;stroke:#ffffff;stroke-width:1.79999995;stroke-linecap:butt;stroke-linejoin:miter;stroke-miterlimit:4;stroke-opacity:1;stroke-dasharray:none" />
    </g>
    <g
       id="g4236"
       transform="translate(0,1120)">
      <path
         style="fill:none;stroke:#000000;stroke-width:4;stroke-linecap:round;stroke-linejoin:miter;stroke-miterlimit:4;stroke-opacity:1;stroke-dasharray:none;marker-end:url(#DotS)"
         class="Gusen"
         sodipodi:nodetypes="csssc"
         id="path4234"
         d="m 32.539029,980.82024 c 0,0 -1.274575,-0.91285 -1.767767,-1.59099 -0.707107,-0.97228 -2.12132,-5.12652 -4.949747,-5.39169 -1.850147,-0.17345 -7.18026,4.33885 -8.57367,4.59619 -1.94421,0.35906 -6.98268,-2.91681 -6.98268,-2.91681" />
      <path
         d="m 15.826524,972.56979 c 0.0034,1.41085 0.269781,3.08373 -0.707106,5.39168 C 14.056677,980.47226 10.7,981.76218 10.7,981.76218 m 21.124815,-9.89949 -6.894291,9.28077 -6.540738,-9.8111"
         id="path4232"
         sodipodi:nodetypes="cscccc"
         class="GusL"
         style="fill:none;stroke:#ffffff;stroke-width:1.79999995;stroke-linecap:butt;stroke-linejoin:miter;stroke-miterlimit:4;stroke-opacity:1;stroke-dasharray:none" />
    </g>
    <g
       id="g2963"
       transform="translate(0,1400)">
      <path
         sodipodi:nodetypes="csscc"
         class="Bab"
         id="path2957"
         d="m 307.53776,986.36218 c 0,0 -1.75,-9 0.75,-11.625 2.14133,-2.2484 4.75,-1.25 5.5,-0.5 0.75,0.75 1,3.375 1,3.375 l -7.25,8.75 z"
         style="fill:#d0d0d0;fill-opacity:1;stroke:#000000;stroke-width:1;stroke-linejoin:round;stroke-opacity:1" />
      <path
         d="m 307.8666,987.74271 c 0,0 -1.125,-2.375 -2.625,-2.375 -1.25623,0 -1.75,1.125 -1.25,2 0.5,0.875 4.125,1.25 4.125,1.25 l 2.125,3.125 c 0,0 0.024,1.89901 0.5,2.375 0.875,0.875 2,0.625 2.125,-0.25 0.16771,-1.17394 -2.625,-2.75 -2.625,-2.75 l -2.375,-3.375 z"
         id="path2961"
         sodipodi:nodetypes="cssccsscc"
         class="Zaba"
         style="fill:#000000;stroke:#202020;stroke-width:1;stroke-linejoin:round" />
      <path
         d="m 308.12036,986.49081 c 0,0 -0.25,-4.5 3.625,-7.5 3.875,-3 6.98597,-0.73724 7,1.5 0.019,3.02329 -4.875,7 -4.875,7 0,0 3.75,1.375 3.375,3.125 -0.375,1.75 -1.5,1.875 -2.75,2 -1.25,0.125 -3.5,-1.625 -4,-2.125 -0.5,-0.5 -2.625,-3.625 -2.375,-4 z"
         id="path2959"
         sodipodi:nodetypes="csscsssc"
         class="Bab"
         style="fill:#d0d0d0;fill-opacity:1;stroke:#000000;stroke-width:1;stroke-linejoin:round;stroke-opacity:1" />
    </g>
    <g
       id="g4781"
       transform="translate(0,1680)">
      <path
         style="fill:none;stroke:#000000;stroke-width:4;stroke-linecap:round;stroke-linejoin:miter;stroke-miterlimit:4;stroke-opacity:1;stroke-dasharray:none;marker-end:url(#DotS)"
         class="Gusen"
         sodipodi:nodetypes="csssc"
         id="path2987"
         d="m 307.06,1020.7192 c 0,0 1.5026,-4.2427 3.97748,-3.7124 2.47487,0.5304 5.21582,3.0356 7.07106,3.0936 2.82843,0.088 5.56847,-2.1213 6.45235,-5.3917 0.88389,-3.2703 0.53033,-9.8111 0.53033,-9.8111" />
      <path
         d="m 312.80636,1024.3622 -0.17677,-12.6395 m 6.18718,2.4748 9.28078,6.8943 m 1.85616,-12.6395 c 0,0 -2.20971,2.0329 -4.90556,1.9003 -2.70162,-0.1329 -5.61266,-1.9887 -5.61266,-1.9887"
         id="path2989"
         sodipodi:nodetypes="ccccczc"
         class="GusL"
         style="fill:none;stroke:#ffffff;stroke-width:1.79999995;stroke-linecap:butt;stroke-linejoin:miter;stroke-miterlimit:4;stroke-opacity:1;stroke-dasharray:none" />
    </g>
    <g
       id="g4789"
       transform="translate(0,1960)">
      <path
         style="fill:none;stroke:#000000;stroke-width:4;stroke-linecap:round;stroke-linejoin:miter;stroke-miterlimit:4;stroke-opacity:1;stroke-dasharray:none;marker-end:url(#DotS)"
         class="Gusen"
         sodipodi:nodetypes="csssc"
         id="path4785"
         d="m 333.54194,1002.5996 c 0,0 4.86137,2.5632 4.68459,-5.7453 -0.17678,-8.30851 0.44194,-7.33624 4.86136,-6.0988 2.47858,0.694 3.8007,1.14905 4.94975,0.35355 1.14904,-0.79549 4.24264,-6.71751 4.24264,-6.71751" />
      <path
         d="m 353.57126,990.57873 c 0,0 -2.47487,-0.61872 -4.24264,-1.76777 -1.76776,-1.14905 -3.88909,-4.68458 -3.88909,-4.68458 m -7.51301,0.0884 5.21491,10.16466 m -0.17677,5.56847 L 332.8,993.58395"
         id="path4787"
         sodipodi:nodetypes="csccccc"
         class="GusL"
         style="fill:none;stroke:#ffffff;stroke-width:1.79999995;stroke-linecap:butt;stroke-linejoin:miter;stroke-miterlimit:4;stroke-opacity:1;stroke-dasharray:none" />
    </g>
    <g
       id="g4797"
       transform="translate(0,2240)">
      <path
         style="fill:none;stroke:#000000;stroke-width:4;stroke-linecap:round;stroke-linejoin:miter;stroke-miterlimit:4;stroke-opacity:1;stroke-dasharray:none;marker-end:url(#DotS)"
         class="Gusen"
         id="path4795"
         d="m 355.1,993.46218 c 0,0 1.14905,-1.76777 2.12132,-1.76777 0.97228,0 6.54074,1.85616 7.68979,1.32583 1.14905,-0.53033 3.44715,-7.51301 4.41942,-8.04334 0.97227,-0.53033 6.98268,-2.03293 6.98268,-2.03293" />
      <path
         d="m 360.5,995.97041 10e-6,-11.93242 13.6118,9.28077 c 0,0 -2.60282,-6.98332 -2.74004,-9.8111 -0.16285,-3.35598 0.79551,-5.74525 0.79551,-5.74525"
         id="path4793"
         sodipodi:nodetypes="cccsc"
         class="GusL"
         style="fill:none;stroke:#ffffff;stroke-width:1.79999995;stroke-linecap:butt;stroke-linejoin:miter;stroke-miterlimit:4;stroke-opacity:1;stroke-dasharray:none" />
    </g>
    <g
       id="g2988"
       transform="translate(0,2520)">
      <path
         style="fill:none;stroke:#000000;stroke-width:4;stroke-linecap:round;stroke-linejoin:miter;stroke-miterlimit:4;stroke-opacity:1;stroke-dasharray:none;marker-end:url(#DotS)"
         class="Gusen"
         sodipodi:nodetypes="csssc"
         id="path2986"
         d="m 379.2744,993.36218 c 0,0 2.12132,-0.0884 3.09359,-0.79549 0.97227,-0.70711 4.33103,-5.74525 6.01041,-5.74525 2.12132,0 7.2618,4.61507 8.3085,4.86136 1.5026,0.35356 7.33624,-2.38648 7.33624,-2.38648" />
      <path
         d="m 397.97134,985.26438 c 0,0 0.44374,4.54943 1.56889,6.55179 0.97394,1.73326 4.5962,4.15424 4.5962,4.15424 M 383.1,985.54059 l 5.83363,12.28598 3.44715,-15.99829"
         id="path2984"
         sodipodi:nodetypes="cscccc"
         class="GusL"
         style="fill:none;stroke:#ffffff;stroke-width:1.79999995;stroke-linecap:butt;stroke-linejoin:miter;stroke-miterlimit:4;stroke-opacity:1;stroke-dasharray:none" />
    </g>
    <g
       id="g3004"
       transform="translate(0,2800)">
      <path
         class="Dira"
         sodipodi:nodetypes="cssscsc"
         id="path3002"
         d="m 303.87151,852.61496 c 0,0 1.375,1.75 2.625,2 1.25,0.25 1.875,-0.75 3.375,0.75 0.63738,0.63738 0.28472,2.21042 1.25,2.5 2.5,0.75 3.25,3.375 3.25,3.375 0,0 -4.40505,3.91059 -9,0 -5.875,-5 -1.625,-8.625 -1.5,-8.625 z"
         style="fill:#ffffff;stroke:#808080;stroke-width:1;stroke-linejoin:round" />
      <path
         d="m 314.55,860.08718 c 0,0 1.125,5.5 -0.75,9.875 -1.54145,3.59672 -6.25,8.5 -6.25,8.5 0,0 0,-3.5 -2.75,-6.5 -2.75,-3 -6.63241,-4.05158 -8.25,-7.125 -1.25,-2.375 -0.625,-5.5 0.375,-7.25 1,-1.75 1.625,-2.375 1.625,-2.375 l -5.25,-3.625 2.125,-2.75 4.125,4.75 c 0,0 1.29393,-0.68131 2.25,-1 1.5,-0.5 3.375,-0.25 3.375,-0.25 0,0 -2.92539,1.64922 -2.125,3.25 0.875,1.75 1.38639,3.45444 2.5,4.25 1.42759,1.01986 1.875,0.375 3.375,0.875 1.0933,0.36443 2.125,1.625 2.875,1.625 1.375,0 2.875,-2.125 2.75,-2.25 z"
         id="path3000"
         sodipodi:nodetypes="cscsssccccscssssc"
         class="Dec1"
         style="fill:#000000;stroke:#808080;stroke-width:1;stroke-linejoin:round" />
    </g>
    <g
       id="g2996"
       transform="translate(0,3080)">
      <path
         class="Dira"
         sodipodi:nodetypes="csscsc"
         id="path2994"
         d="m 263.25,864.71218 c 0,0 3.25,-0.5 4.375,0.875 1.125,1.375 -0.5,3 1.875,4.125 1.36499,0.64657 4.875,2.25 4.875,2.25 0,0 2.69473,-6.62503 -1.375,-9.75 -7,-5.375 -9.625,2.5 -9.75,2.5 z"
         style="fill:#ffffff;stroke:#808080;stroke-width:1;stroke-linejoin:round" />
      <path
         d="m 264.275,867.73718 c 0,0 -3.875,-3 -3.75,-7.5 0.125,-4.5 1.125,-5.625 1.125,-5.625 l -5.25,-3 2.25,-2.375 4,4.125 c 0,0 1.75,-2 6,-2 4.25,0 11.25,3.75 11.25,11 0,7.25 -5.625,15.75 -5.625,15.75 0,0 -0.375,-1.125 -0.875,-3 -0.45206,-1.69522 -0.625,-3 -0.625,-3 0,0 2.375,-3.625 1.5,-5.875 -0.4375,-1.125 -2.19582,-1.16955 -3.04688,-2.39062 -1.07812,-1.54688 -2.70312,-2.17188 -3.82812,-2.10938 -2.25,0.125 -3.25,1.625 -3.375,2.375 -0.125,0.75 0.25,3.625 0.25,3.625 z"
         id="path2992"
         sodipodi:nodetypes="csccccsscscssssc"
         class="Dec1"
         style="fill:#000000;stroke:#808080;stroke-width:1;stroke-linejoin:round" />
    </g>
    <g
       id="g2983"
       transform="translate(0,3360)">
      <path
         class="Dira"
         id="path2981"
         d="m 239.84195,855.96327 c 0,0 5.3033,1.94455 5.12652,3.53554 -0.17678,1.59099 -1.76777,1.94454 -1.59099,3.53553 0.17678,1.59099 1.94454,3.35876 1.76777,4.77297 -0.17678,1.41421 -2.65165,3.53553 -2.65165,3.53553 0,0 -6.01041,-4.41941 -6.18719,-7.95495 -0.17677,-3.53553 3.35876,-7.07106 3.53554,-7.42462 z"
         style="fill:#ffffff;stroke:#808080;stroke-width:1;stroke-linejoin:round" />
      <path
         d="m 246.42932,857.20071 c 0,0 -3.88908,-4.24264 -6.89429,-5.3033 -3.0052,-1.06066 -7.42462,1.06066 -7.42462,1.06066 l -4.41942,-3.35876 -1.59099,1.23744 4.77297,3.35875 c 0,0 -2.99591,3.77746 -2.65164,7.42463 0.55448,5.8741 7.24784,8.83883 8.83883,11.13693 1.34247,1.93913 2.12132,5.83363 2.12132,5.83363 l 5.3033,-8.13173 c 0,0 -1.94454,-1.06066 -2.82843,-1.76777 -0.88388,-0.7071 -1.59099,-5.12652 -1.59099,-6.71751 0,-1.59099 0.70711,-4.24264 1.59099,-4.59619 0.88389,-0.35356 4.5962,-0.17678 4.77297,-0.17678 z"
         id="path2979"
         sodipodi:nodetypes="csccccssccsssc"
         class="Dec1"
         style="fill:#000000;stroke:#808080;stroke-width:1;stroke-linejoin:round" />
    </g>
  </g>
</svg>
