<?xml version="1.0" encoding="UTF-8" standalone="no"?>
<!-- Created with Inkscape (http://www.inkscape.org/) -->

<svg
   xmlns:dc="http://purl.org/dc/elements/1.1/"
   xmlns:cc="http://creativecommons.org/ns#"
   xmlns:rdf="http://www.w3.org/1999/02/22-rdf-syntax-ns#"
   xmlns:svg="http://www.w3.org/2000/svg"
   xmlns="http://www.w3.org/2000/svg"
   xmlns:sodipodi="http://sodipodi.sourceforge.net/DTD/sodipodi-0.dtd"
   xmlns:inkscape="http://www.inkscape.org/namespaces/inkscape"
   width="430"
   height="285"
   id="svg2"
   version="1.1"
   inkscape:version="0.47 r22583"
   sodipodi:docname="nu_p_curici.svg"
   inkscape:export-filename="C:\Documents and Settings\Игорь\Рабочий стол\curici.png"
   inkscape:export-xdpi="67.5"
   inkscape:export-ydpi="67.5">
  <defs
     id="defs4">
    <inkscape:perspective
       sodipodi:type="inkscape:persp3d"
       inkscape:vp_x="0 : 526.18109 : 1"
       inkscape:vp_y="0 : 1000 : 0"
       inkscape:vp_z="744.09448 : 526.18109 : 1"
       inkscape:persp3d-origin="372.04724 : 350.78739 : 1"
       id="perspective10" />
    <inkscape:perspective
       id="perspective2824"
       inkscape:persp3d-origin="0.5 : 0.33333333 : 1"
       inkscape:vp_z="1 : 0.5 : 1"
       inkscape:vp_y="0 : 1000 : 0"
       inkscape:vp_x="0 : 0.5 : 1"
       sodipodi:type="inkscape:persp3d" />
    <inkscape:perspective
       id="perspective2838"
       inkscape:persp3d-origin="0.5 : 0.33333333 : 1"
       inkscape:vp_z="1 : 0.5 : 1"
       inkscape:vp_y="0 : 1000 : 0"
       inkscape:vp_x="0 : 0.5 : 1"
       sodipodi:type="inkscape:persp3d" />
    <inkscape:perspective
       id="perspective2852"
       inkscape:persp3d-origin="0.5 : 0.33333333 : 1"
       inkscape:vp_z="1 : 0.5 : 1"
       inkscape:vp_y="0 : 1000 : 0"
       inkscape:vp_x="0 : 0.5 : 1"
       sodipodi:type="inkscape:persp3d" />
    <inkscape:perspective
       id="perspective2866"
       inkscape:persp3d-origin="0.5 : 0.33333333 : 1"
       inkscape:vp_z="1 : 0.5 : 1"
       inkscape:vp_y="0 : 1000 : 0"
       inkscape:vp_x="0 : 0.5 : 1"
       sodipodi:type="inkscape:persp3d" />
  </defs>
  <sodipodi:namedview
     id="base"
     pagecolor="#ffffff"
     bordercolor="#666666"
     borderopacity="1.0"
     inkscape:pageopacity="0.0"
     inkscape:pageshadow="2"
     inkscape:zoom="0.89851629"
     inkscape:cx="213.28151"
     inkscape:cy="-138.75001"
     inkscape:document-units="px"
     inkscape:current-layer="layer1"
     showgrid="false"
     inkscape:window-width="1680"
     inkscape:window-height="1001"
     inkscape:window-x="-4"
     inkscape:window-y="-4"
     inkscape:window-maximized="1" />
  <style
     type="text/css"
     id="style4">
    .Tree { fill:#000000; stroke:#008000; stroke-width:1;stroke-linejoin:round }
      .Border { fill:#000000; stroke:#d00000; stroke-width:1;stroke-linejoin:round }
      .Curica { fill:none; stroke:#000000; stroke-width:3;stroke-linejoin:round }
</style>
  <metadata
     id="metadata7">
    <rdf:RDF>
      <cc:Work
         rdf:about="">
        <dc:format>image/svg+xml</dc:format>
        <dc:type
           rdf:resource="http://purl.org/dc/dcmitype/StillImage" />
        <dc:title></dc:title>
      </cc:Work>
    </rdf:RDF>
  </metadata>
  <g
     inkscape:label="Layer 1"
     inkscape:groupmode="layer"
     id="layer1"
     transform="translate(0,-767.36218)">
    <rect
       style="fill:#ffffff;fill-opacity:1;fill-rule:nonzero;stroke:none"
       id="rect_fon"
       width="420"
       height="840"
       x="2.5"
       y="2.5"
       transform="translate(0,767.36218)"
       ry="0"
       inkscape:export-xdpi="90"
       inkscape:export-ydpi="90" />
    <g
       id="g2884">
      <path
         class="Border"
         sodipodi:nodetypes="ccc"
         id="path2937"
         d="m 28.325,791.38572 18.875,0 0,37"
         style="fill:#000000;stroke:#d00000;stroke-width:1;stroke-linejoin:round" />
      <path
         class="Border"
         sodipodi:nodetypes="cccccc"
         id="path2935"
         d="m 1.7,803.38572 17,-20.625 35.5,71.625 4,-5 -39.5,-77.25 -17,20.875"
         style="fill:#000000;stroke:#d00000;stroke-width:1;stroke-linejoin:round" />
    </g>
    <path
       d="m 1.7,864.38572 24,0 59.5,37.16678 0,7.07107 -17.3,-9.8995 0,25.10229 -6.2,-0.17678 0,-28.63782 -36,-22.62604 -24,0"
       id="path2860"
       sodipodi:nodetypes="cccccccccc"
       class="Border"
       style="fill:#000000;stroke:#d00000;stroke-width:1;stroke-linejoin:round" />
    <g
       id="g_perilo_ld">
      <path
         class="Border"
         sodipodi:nodetypes="cccccccccc"
         id="path2862"
         d="m 1.7,929.44508 24,0 59.5,37.16678 0,7.07107 -17.3,-9.8995 0,19.60229 -6.2,0 0,-23.3146 -36,-22.62604 -24,0"
         style="fill:#000000;stroke:#d00000;stroke-width:1;stroke-linejoin:round" />
      <path
         style="fill:#000000;stroke:#d00000;stroke-width:1;stroke-linejoin:round"
         class="Border"
         sodipodi:nodetypes="ccccc"
         id="path2879"
         d="m 2,942.38572 0,15.5 6.2,0 0,-15.5 -6.2,0 z" />
      <path
         class="Border"
         sodipodi:nodetypes="ccccc"
         id="path2881"
         d="m 13,942.38572 0,15.5 6.2,0 0,-15.5 -6.2,0 z"
         style="fill:#000000;stroke:#d00000;stroke-width:1;stroke-linejoin:round" />
      <path
         d="m 25,944.38572 0,13.5 6.2,0 0,-9.5 -6.2,-4 z"
         id="path2883"
         sodipodi:nodetypes="ccccc"
         class="Border"
         style="fill:#000000;stroke:#d00000;stroke-width:1;stroke-linejoin:round" />
      <path
         class="Border"
         sodipodi:nodetypes="ccccc"
         id="path2885"
         d="m 37,952.38572 0,7.5 6.2,0 0,-3.5 -6.2,-4 z"
         style="fill:#000000;stroke:#d00000;stroke-width:1;stroke-linejoin:round" />
      <path
         d="m 49,958.38572 0,5.5 6.2,5 0,-6.5 -6.2,-4 z"
         id="path2887"
         sodipodi:nodetypes="ccccc"
         class="Border"
         style="fill:#000000;stroke:#d00000;stroke-width:1;stroke-linejoin:round" />
    </g>
    <path
       class="Border"
       sodipodi:nodetypes="cccccccccc"
       id="path2866"
       d="m 425.2,864.44508 -24,0 -59.5,37.16678 0,7.07107 23.3,-13.8995 0,23.60229 6.2,0 0,-27.3146 30,-18.62604 24,0"
       style="fill:#000000;stroke:#d00000;stroke-width:1;stroke-linejoin:round" />
    <g
       id="g_perilo_rd">
      <path
         d="m 425.2,932.44508 -24,0 -59.5,37.16678 0,7.07107 23.3,-13.8995 0,23.60229 6.2,0 0,-27.3146 30,-18.62604 24,0"
         id="path2864"
         sodipodi:nodetypes="cccccccccc"
         class="Border"
         style="fill:#000000;stroke:#d00000;stroke-width:1;stroke-linejoin:round" />
      <path
         class="Border"
         sodipodi:nodetypes="ccccc"
         id="path2870"
         d="m 411,943.38572 0,9.5 6.2,0 0,-9.5 -6.2,0 z"
         style="fill:#000000;stroke:#d00000;stroke-width:1;stroke-linejoin:round" />
      <path
         style="fill:#000000;stroke:#d00000;stroke-width:1;stroke-linejoin:round"
         class="Border"
         sodipodi:nodetypes="ccccc"
         id="path2872"
         d="m 399,947.38572 0,9.5 6.2,-4 0,-9.5 -6.2,4 z" />
      <path
         class="Border"
         sodipodi:nodetypes="ccccc"
         id="path2874"
         d="m 388,954.38572 0,9.5 6.2,-4 0,-9.5 -6.2,4 z"
         style="fill:#000000;stroke:#d00000;stroke-width:1;stroke-linejoin:round" />
      <path
         class="Border"
         sodipodi:nodetypes="ccccc"
         id="path2876"
         d="m 377,961.38572 0,9.5 6.2,-4 0,-9.5 -6.2,4 z"
         style="fill:#000000;stroke:#d00000;stroke-width:1;stroke-linejoin:round" />
    </g>
    <path
       d="m 389.97284,901.99443 c 0,0 -2.96101,2.65166 -3.13779,4.41943 -0.17677,1.76777 0.71854,2.72725 1.50261,2.82843 1.37003,0.17678 2.16551,-1.50261 2.16551,-1.50261 l -0.53033,-5.74525 z"
       id="path2868"
       sodipodi:nodetypes="csscc"
       class="Border"
       style="fill:#000000;stroke:#d00000;stroke-width:1;stroke-linejoin:round" />
    <path
       d="m 35.71235,904.11576 c 0,0 2.50025,3.04283 1.5026,5.03813 -0.70711,1.41422 -1.67938,2.38649 -3.27037,2.12133 -1.63808,-0.273 -2.12132,-2.74004 -2.12132,-2.74004 l 3.88909,-4.41942 z"
       id="path2889"
       sodipodi:nodetypes="csscc"
       class="Border"
       style="fill:#000000;stroke:#d00000;stroke-width:1;stroke-linejoin:round" />
    <path
       d="m 34.82846,888.82457 c 0,0 0.94271,-3.86949 3.00521,-3.18198 2.38648,0.7955 1.67937,3.62392 1.67937,3.62392 0,0 1.94455,-0.44194 2.82843,0.70711 0.88389,1.14905 0.44195,3.00521 -0.53032,3.44715 -0.97228,0.44194 -3.35876,0 -3.35876,0 l -3.62393,-4.5962 z"
       id="path2891"
       sodipodi:nodetypes="cscsscc"
       class="Border"
       style="fill:#000000;stroke:#d00000;stroke-width:1;stroke-linejoin:round" />
    <path
       d="m 15.5125,815.94822 c 0,0 -1.125,-3.75 -3.25,-4 -2.125,-0.25 -2.5,2.375 -2.5,2.375 0,0 -2.43167,0.30218 -2.5625,1.9375 -0.125,1.5625 2.8125,2.375 2.8125,2.375 l 5.5,-2.6875 z"
       id="path2882"
       sodipodi:nodetypes="cscscc"
       class="Border"
       style="fill:#000000;stroke:#d00000;stroke-width:1;stroke-linejoin:round" />
    <path
       d="m 29.8875,827.44822 c 0,0 1.5,-1.0625 1.375,-2.5625 -0.125,-1.5 -1.25,-2.4375 -2.75,-2.75 -1.85789,-0.38706 -3.3125,0.125 -3.3125,0.125 l 4.6875,5.1875 z"
       id="path2884"
       sodipodi:nodetypes="csscc"
       class="Border"
       style="fill:#000000;stroke:#d00000;stroke-width:1;stroke-linejoin:round" />
    <path
       d="m 383.43211,842.68586 c 0,0 -0.70711,3.18198 0.35355,4.59619 1.06066,1.41422 2.85635,1.47381 3.8007,1.06066 1.41421,-0.61872 1.23744,-2.65165 1.23744,-2.65165 l -5.39169,-3.0052 z"
       id="path2907"
       sodipodi:nodetypes="csscc"
       class="Border"
       style="fill:#000000;stroke:#d00000;stroke-width:1;stroke-linejoin:round" />
    <path
       d="m 377.7,833.32322 c 0,0 -2.5,-1.0625 -2.75,-2.9375 -0.25,-1.875 -0.0261,-3.07308 0.8125,-4 1.1875,-1.3125 2.5,-0.3125 2.5,-0.3125 0,0 1.9375,-2.5625 3.375,-2.5 1.4375,0.0625 1.3125,2.1875 1.3125,2.8125 0,0.625 -0.1875,2.6875 -0.1875,2.6875 l -5.0625,4.25 z"
       id="path2886"
       sodipodi:nodetypes="csscsscc"
       class="Border"
       style="fill:#000000;stroke:#d00000;stroke-width:1;stroke-linejoin:round" />
    <path
       d="m 393.2,888.63572 c 0,0 -1.9375,-0.9375 -1.5625,-2.375 0.375,-1.4375 2.6875,-2.4375 2.6875,-2.4375 0,0 0.5625,-2.625 2.375,-2.25 1.8125,0.375 2.4375,1.3125 2.375,2.375 -0.0625,1.0625 -1.25,2.5625 -1.25,2.5625 l -4.625,2.125 z"
       id="path2890"
       sodipodi:nodetypes="cscsscc"
       class="Border"
       style="fill:#000000;stroke:#d00000;stroke-width:1;stroke-linejoin:round" />
    <g
       id="g_window">
      <path
         class="Curica"
         sodipodi:nodetypes="ccccccccccccccc"
         id="path3056"
         d="m 28.325,1071.3857 18.875,0 0,8 -15.5,0 15.5,0 0,7 -11.5,0 11.5,0 0,7 -8.5,0 8.5,0 0,7 -5,0 5,0 0,10"
         style="fill:none;stroke:#000000;stroke-width:3;stroke-linejoin:round" />
      <path
         d="m 47.2,1082.8857 7,0 0,29 -7,0"
         id="path3058"
         sodipodi:nodetypes="cccc"
         class="Curica"
         style="fill:none;stroke:#000000;stroke-width:3;stroke-linejoin:round" />
      <path
         class="Curica"
         sodipodi:nodetypes="ccccccc"
         id="path3060"
         d="m 54.2,1082.8857 11,-10 0,24.5 -10,0 10,0 0,24.5 -11,-10"
         style="fill:none;stroke:#000000;stroke-width:3;stroke-linejoin:round" />
    </g>
    <g
       id="g_curica_lu"
       transform="translate(0,280)">
      <path
         sodipodi:type="arc"
         id="path2901"
         sodipodi:cx="15.2"
         sodipodi:cy="822.5"
         sodipodi:rx="0.5"
         sodipodi:ry="0.5"
         d="m 15.7,822.5 c 0,0.27614 -0.223858,0.5 -0.5,0.5 -0.276143,0 -0.5,-0.22386 -0.5,-0.5 0,-0.27614 0.223857,-0.5 0.5,-0.5 0.276142,0 0.5,0.22386 0.5,0.5 z"
         class="Curica"
         style="fill:none;stroke:#000000;stroke-width:3;stroke-linejoin:round" />
      <path
         class="Curica"
         sodipodi:nodetypes="cccsssccccccssscccccssssc"
         id="path2903"
         d="m 3.53901,852.2318 c 0.7071,0.97227 8.13172,1.94454 8.13172,1.94454 l -8.83883,0 c 0,0 2.03293,4.06586 6.18719,5.48008 2.50772,0.85262 6.45745,1.05895 9.89949,-0.0884 2.91681,-0.97227 4.77298,-3.18198 5.65686,-6.09879 0.88388,-2.91682 0.7071,-9.45756 0.7071,-9.45756 m -21.38999,1.85617 c 0.97227,1.23743 9.36917,2.74004 9.36917,2.74004 L 2.92028,847.01689 m 22.09709,16.70538 -10e-6,10e-6 c 0,0 3.53553,-1.67937 7.33623,-5.92201 3.8007,-4.24264 4.77297,-7.68979 4.33103,-12.55115 -0.44195,-4.86136 -3.00521,-10.34144 -7.24785,-15.82151 -4.24264,-5.48008 -9.7486,-10.0245 -9.7486,-10.0245 l 5.15241,-2.08471 -5.39169,1.14905 0.0884,-4.41942 -1.06066,4.33103 c 0,0 -4.06587,-2.03293 -6.62913,-0.35355 -2.88719,1.89161 -3.27257,4.33119 -3.09359,6.71751 0.26517,3.53554 4.15426,7.33624 4.06587,9.81111 -0.0884,2.47487 -1.14101,5.66333 -3.71232,5.83363 -4.17656,0.27661 -7.18718,-3.13648 -7.18718,-3.13648"
         style="fill:none;stroke:#000000;stroke-width:3;stroke-linejoin:round" />
      <path
         sodipodi:nodetypes="czc"
         class="Curica"
         id="path2933"
         d="m 6.95,832.88572 c 0,0 -1.17766,-1.97851 -2.38572,-2.72855 C 3.33599,829.39458 1.5,829.0638 1.5,829.0638"
         style="fill:none;stroke:#000000;stroke-width:3;stroke-linejoin:round" />
    </g>
    <g
       id="g_curica_ld"
       transform="translate(0,280)">
      <path
         class="Curica"
         sodipodi:nodetypes="csccccccsssssc"
         id="path2893"
         d="m 15.73658,929.12966 c 0,0 8.18569,-1.53086 12.1092,-6.27558 3.80071,-4.59619 2.38649,-13.78858 2.38649,-13.78858 l 6.71752,-8.22011 3.35875,3.8007 -2.56327,-5.12652 4.77298,-0.97228 -5.12652,-0.35356 c 0,0 0.37069,-3.52921 -1.06066,-5.65684 -2.12207,-3.15436 -4.24265,-2.91682 -7.24786,-2.65166 -3.21338,0.28354 -10.14892,7.82352 -12.46274,9.63434 -2.03294,1.59099 -4.86136,1.94453 -6.45235,0.44193 -1.61035,-1.52087 -0.0884,-6.54074 -1.76777,-9.54594 -1.67938,-3.0052 -5.56847,-3.97747 -5.56847,-3.97747"
         style="fill:none;stroke:#000000;stroke-width:3;stroke-linejoin:round" />
      <path
         class="Curica"
         sodipodi:nodetypes="cccccccccssc"
         id="path2895"
         d="M 2.2,912.38572 7.51647,915.87141 2.2,911.38572 m 0,-7 6.73069,5.03334 L 2.2,903.38572 3.57661,895.88418 2.2,893.42077 m 14.33209,13.70019 c 0,0 3.18197,3.88909 2.82841,8.30851 -0.35355,4.41941 -4.86135,7.42462 -8.75045,7.86656 C 6.47584,923.76584 2.2,920.38572 2.2,920.38572"
         style="fill:none;stroke:#000000;stroke-width:3;stroke-linejoin:round" />
      <path
         transform="translate(0,738.02354)"
         class="Curica"
         d="m 31.700001,158.5 c 0,0.27614 -0.223858,0.5 -0.5,0.5 -0.276143,0 -0.5,-0.22386 -0.5,-0.5 0,-0.27614 0.223857,-0.5 0.5,-0.5 0.276142,0 0.5,0.22386 0.5,0.5 z"
         sodipodi:ry="0.5"
         sodipodi:rx="0.5"
         sodipodi:cy="158.5"
         sodipodi:cx="31.200001"
         id="path2899"
         sodipodi:type="arc"
         style="fill:none;stroke:#000000;stroke-width:3;stroke-linejoin:round" />
    </g>
    <g
       id="g_curica_ru"
       transform="translate(0,280)">
      <path
         transform="translate(-107.3,738.02354)"
         class="Curica"
         d="m 493.5,97.5 c 0,0.276142 -0.22386,0.5 -0.5,0.5 -0.27614,0 -0.5,-0.223858 -0.5,-0.5 0,-0.276142 0.22386,-0.5 0.5,-0.5 0.27614,0 0.5,0.223858 0.5,0.5 z"
         sodipodi:ry="0.5"
         sodipodi:rx="0.5"
         sodipodi:cy="97.5"
         sodipodi:cx="493"
         id="path2909"
         sodipodi:type="arc"
         style="fill:none;stroke:#000000;stroke-width:3;stroke-linejoin:round" />
      <path
         class="Curica"
         sodipodi:nodetypes="cccsscccccssscccc"
         id="path2905"
         d="m 424.59962,834.32374 -10.31999,5.71047 m -1.06066,22.80419 c 0,0 -6.54073,-0.79549 -10.5182,-3.88909 -3.97748,-3.09359 -9.36917,-11.31371 -14.05375,-14.49569 -4.68458,-3.18198 -7.77818,-4.15425 -7.77818,-4.15425 l -4.5078,4.33103 3.71231,-5.03813 -7.24784,0.17677 6.62912,-1.23743 c 0,0 -1.85616,-3.71231 0.79549,-6.80591 2.88818,-3.36953 6.71752,-2.74004 9.63434,-1.59099 2.91681,1.14905 9.19238,5.39169 17.14734,5.12653 7.95495,-0.26517 9.72271,-3.44715 9.72271,-3.44715 l -0.44194,-7.42462 4.50781,4.33103 4.24264,-5.21491"
         style="fill:none;stroke:#000000;stroke-width:3;stroke-linejoin:round" />
      <path
         d="m 418.5125,850.57322 6.1875,-4.0625 m 0,-6 -8.375,4.875 m -9.9375,5.625 c 0,0 1.65859,4.91033 6.5625,7.125 3.875,1.75 6.6875,1.1875 8.375,0.25 1.9562,-1.08678 3.6875,-5 3.6875,-5"
         id="path2888"
         sodipodi:nodetypes="cccccssc"
         class="Curica"
         style="fill:none;stroke:#000000;stroke-width:3;stroke-linejoin:round" />
    </g>
    <g
       id="g_curica_rd"
       transform="translate(0,280)">
      <path
         transform="translate(-107.3,738.02354)"
         sodipodi:type="arc"
         id="path2892"
         sodipodi:cx="505"
         sodipodi:cy="157.5"
         sodipodi:rx="0.5"
         sodipodi:ry="0.5"
         d="m 505.5,157.5 c 0,0.27614 -0.22386,0.5 -0.5,0.5 -0.27614,0 -0.5,-0.22386 -0.5,-0.5 0,-0.27614 0.22386,-0.5 0.5,-0.5 0.27614,0 0.5,0.22386 0.5,0.5 z"
         class="Curica"
         style="fill:none;stroke:#000000;stroke-width:3;stroke-linejoin:round" />
      <path
         class="Curica"
         sodipodi:nodetypes="cssccccccccsscccccsssssscc"
         id="path2894"
         d="m 424.7,916.76072 c 0,0 -2.90969,4.82469 -7.125,5.75 -2.5625,0.5625 -4.8125,-0.625 -6.6875,-2.4375 -1.875,-1.8125 -4.625,-5.3125 -4.625,-5.3125 m 18.4375,-3.3125 -7.75,2.1875 7.75,-1.0625 m 0,-7.8125 -8.0625,3.3125 8.0625,-0.75 m -13.75,22.5 c 0,0 -7.00752,-3.48693 -12.875,-10.3125 -3.9974,-4.65013 -4.6875,-6.125 -5.5,-9.375 -0.8125,-3.25 -1.625,-11.9375 -1.625,-11.9375 l -4.875,2.5625 4.125,-3.0625 -3.9375,-3.25 4.625,2.6875 c 0,0 0.125,-2 1.5,-4.625 1.375,-2.625 2.6875,-4 5.1875,-4.375 2.5,-0.375 3.8125,0.9375 4.75,2.375 0.9375,1.4375 4.25,8.1875 6.375,9.9375 2.125,1.75 3.9375,2.125 6.6875,0.5625 2.75,-1.5625 7.0625,-5.125 7.25,-6.125 0.1875,-1 -2.375,-6.125 -2.375,-6.125 l 4.4375,5.75"
         style="fill:none;stroke:#000000;stroke-width:3;stroke-linejoin:round" />
    </g>
    <g
       id="g3038"
       transform="translate(0,560)">
      <path
         sodipodi:nodetypes="ccscssssc"
         class="Tree"
         id="path2878"
         d="m 424.44431,770.64935 -55.24273,-0.0884 c 0,0 0.0884,3.44715 -2.74004,5.3033 -2.82842,1.85616 -8.66205,1.94455 -8.66205,1.94455 0,0 7.24784,9.63433 7.60139,11.13693 0.35356,1.5026 3.0936,4.86136 9.28078,3.09359 6.18718,-1.76777 6.98268,-4.15425 10.25305,-3.18198 3.27037,0.97227 6.09879,1.85616 8.48528,0.97227 2.38649,-0.88388 30.93592,-13.25825 30.93592,-13.25825"
         style="fill:#000000;stroke:#008000;stroke-width:1;stroke-linejoin:round" />
      <path
         class="Tree"
         sodipodi:nodetypes="csssscscscssssc"
         id="path2880"
         d="m 424.17914,813.16415 c 0,0 -6.89399,-4.35803 -13.52343,-4.41942 -9.54593,-0.0884 -12.7342,7.03002 -14.85552,7.03002 -2.12132,0 -3.26408,-2.43382 -5.65057,-2.34544 -2.38648,0.0884 -10.96015,5.65686 -13.16986,5.83364 -2.20971,0.17677 -10.51822,-0.26517 -10.51822,-0.26517 0,0 4.68459,-1.14905 6.71752,-2.65165 2.03293,-1.5026 4.06586,-5.65685 4.06586,-5.65685 0,0 -4.15425,2.91681 -6.27557,2.74003 -2.12132,-0.17677 -6.89429,-3.44714 -6.89429,-3.44714 0,0 2.20971,-2.2981 2.2981,-6.8059 0.0884,-4.50781 1.59099,-7.51301 6.98268,-8.92723 5.39168,-1.41421 11.66726,0.7955 17.76605,-0.44194 6.0988,-1.23744 15.99829,-6.45235 19.7106,-8.04334 3.71232,-1.59099 13.7002,-5.03813 13.7002,-5.03813"
         style="fill:#000000;stroke:#008000;stroke-width:1;stroke-linejoin:round" />
      <path
         class="Tree"
         sodipodi:nodetypes="csssssssscsc"
         id="path2825"
         d="m 397.92782,988.79176 c 0,0 -1.94862,-1.23728 -3.8007,0.44194 -6.62913,6.01041 -8.75045,10.34144 -9.8995,10.34144 -1.14905,0 -3.8007,-3.35876 -3.88908,-5.12652 -0.0884,-1.76777 0,-4.06587 -1.85616,-5.83363 -1.85616,-1.76777 -4.09993,-0.58711 -3.44715,-4.24265 0.8839,-4.94975 1.46402,-8.93191 3.35876,-9.36916 2.2981,-0.53033 2.4689,1.9753 4.5962,1.23744 3.51131,-1.2179 5.12652,-4.50781 7.15945,-4.06587 2.03293,0.44194 7.51301,3.88909 7.51301,3.88909 0,0 -0.7071,3.18198 -0.61871,5.39169 0.0884,2.20971 0.79549,7.24784 0.88388,7.33623 z"
         style="fill:#000000;stroke:#008000;stroke-width:1;stroke-linejoin:round" />
      <path
         sodipodi:nodetypes="ccscsccccsscszssssc"
         class="Tree"
         id="path3599"
         d="m 424.26755,959.88877 -7.51301,-5.39169 c 0,0 -2.47488,4.33103 -4.68459,4.33103 -2.20971,0 -4.86136,-1.85615 -4.86136,-1.85615 0,0 -0.79549,4.94974 -3.80069,5.12652 -3.00521,0.17678 -5.56847,-0.26516 -5.56847,-0.26516 l -3.53553,3.27036 1.85615,4.06587 -0.35355,2.47487 c 0,0 3.71231,-0.7071 5.12652,0.26517 1.41422,0.97227 4.33103,3.18198 4.24264,4.41941 -0.0884,1.23744 -4.77297,3.35876 -4.77297,3.35876 0,0 3.27037,2.20971 2.65165,3.8007 -0.61872,1.59099 -2.43535,3.05732 -2.38649,5.12653 0.0489,2.06921 1.85616,3.35875 3.88909,4.33102 3.33951,1.59715 7.86657,1.41422 9.01562,2.74004 1.14904,1.32583 2.47487,1.59099 3.62392,0.7955 1.14905,-0.7955 2.56326,-1.59099 3.44714,-1.59099 0.88389,0 3.35876,2.2981 3.35876,2.2981"
         style="fill:#000000;stroke:#008000;stroke-width:1;stroke-linejoin:round" />
      <path
         sodipodi:nodetypes="csssssscsssssssssssssssssc"
         class="Tree"
         id="path3601"
         d="m 355.14786,1033.4279 c 0,0 2.82842,-2.5633 6.54073,-2.8284 3.71231,-0.2652 3.53554,1.0606 7.51301,1.0606 3.97748,0 2.38649,-3.4471 6.71752,-1.5026 4.33103,1.9446 4.94975,3.7123 7.68978,3.7123 2.74004,0 4.86136,-3.2703 7.68979,-2.8284 2.82843,0.4419 3.8007,3.0052 6.71752,2.0329 2.91681,-0.9722 9.36916,3.0052 9.36916,3.0052 0,0 5.39169,-2.8284 5.65686,-4.5078 0.26516,-1.6793 -0.44195,-4.4194 -2.2981,-4.331 -1.85616,0.088 -3.8007,2.2981 -5.56847,1.8562 -1.76776,-0.442 -3.35876,-3.7124 -5.3033,-3.2704 -1.94454,0.4419 -1.32582,3.0936 -3.8007,2.4749 -2.47487,-0.6188 -1.59099,-5.0382 -3.27037,-3.7124 -1.67938,1.3259 -2.82842,4.3311 -5.56846,4.773 -1.9316,0.3116 -4.86136,-2.4749 -5.83363,-2.4749 -0.97228,0 -1.59099,2.2098 -2.74004,1.6794 -1.14905,-0.5303 -1.14905,-3.9775 -3.18198,-3.9775 -2.03294,0 -4.50781,3.2704 -6.0988,3.2704 -1.59099,0 -1.5026,-2.6516 -3.0052,-2.74 -1.50261,-0.088 -0.26517,2.8284 -3.0936,3.182 -2.82842,0.3535 -4.5078,-3.5356 -5.56846,-3.5356 -1.06066,0 -0.70711,3.8007 -1.67938,3.8007 -0.97227,0 -5.03814,-5.2149 -5.65686,-4.5962 -0.61871,0.6187 0.35356,5.7453 1.41422,6.364 1.06066,0.6187 3.27037,3.0936 3.35876,3.0936 z"
         style="fill:#000000;stroke:#008000;stroke-width:1;stroke-linejoin:round" />
      <path
         class="Tree"
         sodipodi:nodetypes="ccscscscsscsscscscsscscc"
         id="path3603"
         d="m 172.00719,1051.1939 34.47146,-0.1767 c 0,0 0.44194,-1.7678 1.59099,-3.8007 1.14905,-2.033 6.09879,-4.9498 6.09879,-4.9498 0,0 -1.06066,-1.2374 -3.44714,-2.0329 -3.02334,-1.0078 -5.74524,1.0606 -5.74524,1.0606 0,0 0.97227,-1.9445 0.53033,-3.8007 -0.44195,-1.8561 -1.23744,-3.2703 -1.23744,-3.2703 0,0 -1.94454,4.6846 -3.62392,4.6846 -1.67938,0 -3.44715,-0.3536 -3.44715,-2.1214 0,-1.7677 0,-3.889 0,-3.889 0,0 -3.09359,1.5026 -5.39168,2.74 -2.4573,1.3231 -5.03814,1.8561 -5.48009,0.7071 -0.44194,-1.149 -0.61871,-3.3588 -0.61871,-3.3588 0,0 -1.41422,4.3311 -4.33103,4.5078 -2.91682,0.1768 -4.94975,-3.0935 -4.94975,-3.0935 0,0 1.5026,3.3587 -0.7955,3.889 -2.29809,0.5304 -6.62912,-0.088 -6.62912,-0.088 0,0 0.17677,2.033 0.61871,3.0052 0.44195,0.9723 2.20971,1.9446 0.26517,2.2981 -1.94454,0.3536 -7.77817,0.442 -7.77817,0.442 0,0 1.59099,2.74 4.06586,4.4194 2.47488,1.6794 5.83363,3.0052 5.83363,2.8284 l 0,0 z"
         style="fill:#000000;stroke:#008000;stroke-width:1;stroke-linejoin:round" />
      <path
         class="Tree"
         sodipodi:nodetypes="ccssssscsscsssssssssc"
         id="path3605"
         d="m 2.47833,998.16091 0,3e-5 c 0,0 4.86136,-4.41943 9.104,-3.8891 4.24264,0.53033 9.45756,4.24264 14.31892,4.50781 4.86136,0.26516 10.25304,-3.8007 13.52341,-3.35876 3.27037,0.44194 7.37563,1.93523 8.92723,0.61872 2.91682,-2.47488 1.23743,-3.18198 2.12132,-4.94975 0.88388,-1.76777 3.09359,-3.18198 3.09359,-3.18198 0,0 -1.5026,-2.12132 0.17678,-3.71231 2.52865,-2.39556 4.33103,-3.27037 4.5078,-5.74524 0.1156,-1.61847 -1.76776,-5.03814 -1.76776,-5.03814 0,0 -1.99146,2.05211 -4.86136,1.5026 -4.70787,-0.90144 -1.06066,-5.92202 -5.92202,-7.51301 -4.86136,-1.59099 -5.92202,-3.35876 -8.22012,-3.44714 -2.23616,-0.086 -1.14905,2.74003 -4.59619,1.76776 -3.44715,-0.97227 -0.44195,-3.53553 -3.97748,-3.53553 -3.53553,0 -4.16316,2.44595 -6.54074,2.38648 -2.92125,-0.0731 -2.12132,-3.18198 -4.41942,-2.82842 -2.29809,0.35355 -3.53553,4.86136 -6.71751,4.94974 -3.18198,0.0884 -3.62392,-3.18197 -5.48008,-3.8007 -1.67914,-0.55972 -3.44714,-0.0884 -3.44714,-0.0884"
         style="fill:#000000;stroke:#008000;stroke-width:1;stroke-linejoin:round" />
      <path
         class="Tree"
         sodipodi:nodetypes="cssssssscssssscssssssscsssc"
         id="path2853"
         d="m 15.38303,1028.8317 c 0,0 3.53553,-1.9445 5.12652,-1.0606 1.59099,0.8838 4.06586,3.0052 5.12653,2.4748 1.06066,-0.5303 2.29809,-2.2981 4.06586,-2.1213 1.76777,0.1768 3.88909,1.7678 4.77297,1.7678 0.88388,0 3.18198,-1.9446 5.12653,-1.9446 1.94454,0 5.48007,2.2981 8.48527,2.2981 3.00521,0 7.42463,-2.4748 9.8995,-2.4748 2.47487,0 7.24784,1.591 7.24784,1.591 0,0 2.47488,-2.6517 4.24265,-1.4143 1.76776,1.2375 5.83362,2.6517 6.36395,0.8839 0.53033,-1.7677 0.70711,-2.4749 -0.35355,-3.182 -1.06066,-0.7071 -4.06586,-0.1767 -3.88908,-1.0606 0.17678,-0.8839 1.94454,-3.3588 0.35355,-3.7123 -1.59099,-0.3536 -6.89429,3.8891 -6.89429,3.8891 0,0 -4.06587,-4.2427 -6.71752,-3.8891 -2.65165,0.3535 -4.77296,5.3033 -7.95495,5.3033 -2.53105,0 -3.88908,-3.182 -5.48008,-3.3588 -1.59099,-0.1768 -0.88388,2.2981 -3.0052,2.2981 -2.12132,0 -3.0052,-3.8891 -3.88909,-4.0659 -0.88388,-0.1767 -0.7071,3.182 -3.0052,3.0053 -2.2981,-0.1768 -2.46547,-5.4287 -4.24264,-3.0053 -1.94454,2.6517 -5.12652,-0.5303 -5.12652,-0.5303 0,0 2.29809,3.7123 -1.23744,3.5356 -3.53554,-0.1768 -3.53554,1.7677 -5.65686,0.3535 -2.12132,-1.4142 -3.35875,-3.0052 -4.41941,-3.0052 -1.06066,0 0.88388,8.1317 1.06066,7.4246 z"
         style="fill:#000000;stroke:#008000;stroke-width:1;stroke-linejoin:round" />
      <path
         sodipodi:nodetypes="cscscscssscssscccsc"
         class="Tree"
         id="path2851"
         d="m 226.10085,1051.8127 c 0,0 2.2981,-2.1213 1.76777,-4.0659 -0.53033,-1.9445 -3.18198,-5.1265 -3.18198,-5.1265 0,0 3.53553,0.3536 5.48007,-1.0607 1.66725,-1.2125 1.59099,-6.0104 1.59099,-6.0104 0,0 3.18199,3.5356 4.94975,3.5356 1.76777,0 4.06587,-2.4749 4.06587,-2.4749 0,0 1.94454,4.0659 3.35875,3.5355 1.41422,-0.5303 4.24264,-2.2981 6.01041,-2.2981 1.76777,0 3.0052,1.4142 5.3033,1.4142 2.2981,0 7.6014,-4.7729 7.6014,-4.7729 0,0 -0.87644,3.3497 1.06066,4.9497 2.05373,1.6964 2.82208,-0.849 5.12652,0 3.35876,1.2375 0.70711,3.0052 3.00521,3.5356 2.2981,0.5303 5.83363,0.5303 5.83363,0.5303 l -3.88909,4.0658 2.47488,2.6517 c 0,0 -9.01562,1.4142 -12.37437,1.4142 -3.35876,0 -37.47666,0.3536 -38.18377,0.1768 z"
         style="fill:#000000;stroke:#008000;stroke-width:1;stroke-linejoin:round" />
      <path
         class="Tree"
         sodipodi:nodetypes="cscscsssscsc"
         id="path2854"
         d="m 198.52369,1028.4782 c 0,0 7.77817,0.7071 12.55114,0.7071 4.77297,0 13.61181,-1.591 13.61181,-1.591 0,0 -1.23744,-2.1213 -2.12132,-3.7123 -0.88389,-1.591 0,-4.773 0,-4.773 0,0 -1.76777,3.7123 -3.00521,3.182 -1.23743,-0.5304 -2.64388,-3.7928 -4.24263,-3.7123 -1.93915,0.098 -3.90138,3.8196 -6.36397,4.0658 -3.53553,0.3536 -5.3033,-3.0052 -6.71751,-3.0052 -1.41422,0 -3.18198,0.8839 -3.18198,0.8839 0,0 -2.32116,-1.1117 -3.35876,0 -2.47488,2.6517 2.47487,8.1317 2.82843,7.955 z"
         style="fill:#000000;stroke:#008000;stroke-width:1;stroke-linejoin:round" />
      <path
         class="Tree"
         sodipodi:nodetypes="cssscscssssssscsc"
         id="path2856"
         d="m 234.40935,1031.3066 c 0,0 14.14214,-1.4142 19.09189,-0.8839 4.94975,0.5303 11.90241,1.0313 17.14733,-0.7071 4.50765,-1.494 8.13174,-3.8891 8.48529,-5.8336 0.35356,-1.9446 -0.35355,-3.7123 -0.35355,-3.7123 0,0 -2.2981,4.0658 -3.35876,2.4748 -1.06066,-1.591 -0.88389,-5.1265 -0.88389,-5.1265 0,0 -10.25305,6.364 -15.55635,6.5407 -2.65018,0.088 -0.35355,-3.0052 -3.18197,-3.1819 -2.82843,-0.1768 -0.88389,2.6516 -3.35876,3.0052 -2.60157,0.3716 -3.18198,-3.3588 -5.48008,-3.182 -2.2981,0.1768 -5.65685,1.0607 -7.77817,0 -2.12132,-1.0607 -4.41942,-3.8891 -6.01042,-3.8891 -1.59099,0 -0.35355,2.1213 -3.0052,3.3588 -3.87453,1.8081 -3.71231,-0.5304 -3.71231,-0.5304 0,0 1.23744,4.773 2.65165,7.2479 1.41422,2.4748 5.48008,4.7729 5.3033,4.4194 z"
         style="fill:#000000;stroke:#008000;stroke-width:1;stroke-linejoin:round" />
      <path
         class="Tree"
         sodipodi:nodetypes="csssscssszzssc"
         id="path2858"
         d="m 147.96555,1025.1194 c 3.35876,0 3.53553,2.2981 5.65685,2.6517 2.12132,0.3535 16.08669,0.3535 16.97057,0 0.88388,-0.3536 3.0052,-2.4749 4.06586,-2.4749 1.06066,0 2.47253,1.9671 5.3033,2.1213 5.49753,0.2995 9.54595,-0.5303 9.54595,-0.5303 0,0 -6.18719,-1.7678 -6.18719,-3.3588 0,-1.591 4.59619,-3.3587 3.0052,-4.773 -1.59099,-1.4142 -3.35875,2.2981 -5.83363,2.4749 -1.41062,0.1008 -6.89429,-1.9445 -6.89429,-1.9445 l -26.87006,-0.8839 c 0,0 -6.89428,1.0607 -7.60139,3.182 -0.67082,2.0124 1.92266,5.8557 3.35875,6.0104 2.64226,0.2845 3.35876,-2.6517 5.48008,-2.4749 z"
         style="fill:#000000;stroke:#008000;stroke-width:1;stroke-linejoin:round" />
    </g>
  </g>
</svg>
